<svg xmlns="http://www.w3.org/2000/svg" viewBox="0 0 208.79 180.52"><defs><style>.a{fill:#fcfdfd;}.b{fill:#7fccee;}.c{fill:#4575ac;}</style></defs><path class="a" d="M104.25,94.54c12.21,0,24.43-.17,36.64.1,4.17.1,5.24-1.36,5-5.4-.3-6.25.12-12.53-.13-18.79-.12-3.33.71-4.53,4.15-4.42,7.82.26,15.66.11,23.49.06,1.11,0,2.69.64,3.19-.81.45-1.28-.83-2.07-1.74-2.89-9.46-8.48-18.88-17-28.35-25.51C133.29,25,120,13.2,106.78,1.27c-1.76-1.59-3-1.77-4.68-.07-2.19,2.16-4.63,4-6.93,6.09Q64.21,35,33.28,62.7c-.77.69-2.08,1.4-1.76,2.51.45,1.54,2,.87,3.13.88,7.83,0,15.68.32,23.49-.09,4.29-.23,5.14,1.35,5,5.29-.29,6.12.09,12.26-.15,18.38-.15,3.66.86,5,4.67,5C79.82,94.39,92,94.54,104.25,94.54Zm.2,85.93c12.47,0,25-.05,37.42,0,2.82,0,4.15-.77,4-3.93-.19-5-.12-10.07,0-15.11,0-2.25-.69-3.14-3-3.14q-38.43.07-76.85,0c-2.53,0-3.17,1-3.11,3.4.11,5,.17,10.08,0,15.12-.11,2.91.94,3.7,3.67,3.68C79.23,180.4,91.84,180.47,104.45,180.47Zm67.29-39c-1.86-2.53-3.48-4.73-5.11-6.92a2.79,2.79,0,0,0-3.17-1.1c-1.37.38-1.27,1.55-1.27,2.64,0,3.66,0,7.33,0,11,0,1.3.47,2.08,1.81,2.11s1.75-.93,1.75-2.14v-6.21a38.59,38.59,0,0,1,5.86,7.08,2.77,2.77,0,0,0,3.13,1.24c1.4-.38,1-1.7,1.06-2.73,0-3.66,0-7.33,0-11,0-1.31-.45-2.12-1.81-2.07-1.17.05-1.5.87-1.62,1.92C172.19,137.15,172.8,139.05,171.74,141.51ZM37.36,149.45c1.7-.17,3.55.05,5.07-.58,6-2.47-.27-7.72,2.23-11.28.84-1.21-.57-3.25-2.27-3.7-3.08-.81-6.56-1.37-9.31,0-2,1-.49,4.25-.75,6.47-.14,1.21,0,2.44-.06,3.66C32.19,149.29,32.19,149.29,37.36,149.45Zm70.29-5c-.09.25-.12.6-.29.7-2.17,1.19-4.16.88-5.63-1.15a4.52,4.52,0,0,1,.24-5.67,3.84,3.84,0,0,1,5.32-1.1c1.25.65,2.38,1.51,3.5.09s-.19-2-1-2.61c-3-2.32-8.48-1.53-10.87,1.5a8.32,8.32,0,0,0,.9,11.07c2.9,2.56,8.66,2.58,11-.06a4.91,4.91,0,0,0,.51-6c-1.43-1.82-4.22-1.07-6.27-.34-1.1.39-.91,1.83.19,2.57C106,143.92,107.22,143.29,107.65,144.49Zm18.26,4.37c-1.51-4-1.51-4,.08-8.29a5,5,0,0,0-4.18-7.09c-1.7-.2-3.43,0-5.14-.15-2-.14-2.52.86-2.48,2.69.08,3.53,0,7,0,10.57,0,1.25-.09,2.57,1.65,2.64s1.87-1,1.92-2.4c0-1-.38-2.51,1.13-2.58,1.16-.06,1.62,1.27,2.06,2.24C122,148.69,123.33,150.09,125.91,148.86ZM79.2,141.18c0,8.11,0,8.23,5.9,8,1.66-.06,4.7,1.48,4.77-1.65.07-2.86-2.84-1.27-4.42-1.66-1-.23-2.35.21-2.42-1.38s1.28-1.4,2.3-1.47c.66-.05,1.32,0,2,0,1.24,0,2.55-.06,2.57-1.76s-1.25-1.74-2.52-1.83c-1.53-.12-4.22,1.24-4.23-1.23,0-2.69,2.85-1.24,4.45-1.54,1.17-.22,2.53.05,2.45-1.8-.07-1.59-1.3-1.39-2.33-1.5C79.18,132.42,79.18,132.42,79.2,141.18Zm99.31.1c0,8.52,0,8.51,6.33,8,4.93-.41,8-3.81,7.68-8.48-.36-5.32-4-7.91-11.09-7.37-5.38.42-2.15,4.88-2.92,7.46A1.13,1.13,0,0,0,178.51,141.28ZM7.1,122.7c2.73-3,2.72-6.74,5.6-10,0,3.06,0,5,0,7,0,1-.36,2.55,1.19,2.49,1.13,0,1-1.42,1-2.34,0-3.4.07-6.79,0-10.19,0-1.13.37-2.63-1.33-3s-2.15,1.16-2.65,2.41c-1,2.56-2.09,5.1-3.58,8.76-1.48-3.85-2.52-6.58-3.59-9.3-.42-1.06-1-2-2.31-1.85-1.52.14-1.44,1.33-1.44,2.42,0,3.8,0,7.61,0,11.41,0,.79,0,1.88,1,1.87s1-1,1.08-1.86c.2-2.26-.41-4.64.87-7.73Zm128.8,26.54a7.9,7.9,0,0,0,0-15.8c-4.68,0-8,3.12-8.11,7.66A7.8,7.8,0,0,0,135.9,149.24Zm-118.1,0c.19-.07.82-.11,1.14-.46,2.74-3,5.39-3.41,8.21-.07a2.29,2.29,0,0,0,3,.27c1.06-.67.33-1.69,0-2.55-1.35-3.7-2.74-7.38-4-11.11a2.69,2.69,0,0,0-3-2,2.56,2.56,0,0,0-2.76,1.8c-1.42,4-2.9,7.9-4.41,11.83C15.28,148.63,15.86,149.28,17.8,149.27Zm36.36,0a7.92,7.92,0,1,0-.09-15.83,7.92,7.92,0,0,0,.09,15.83Zm91.62-9.71h0c0,1.36-.07,2.72,0,4.07.23,3.88,2.67,5.37,6.07,5.62,4.24.31,7-1.43,7.44-5a85.89,85.89,0,0,0,.17-8.94c0-1.09-.38-1.87-1.56-1.9a1.74,1.74,0,0,0-2,1.94c0,2.31,0,4.62-.05,6.92s-1,3.62-3.37,3.58c-2.09,0-3.12-1.31-3.21-3.36-.1-2.43-.1-4.87-.1-7.31a1.59,1.59,0,0,0-1.68-1.8c-1.13-.07-1.73.51-1.75,1.68C145.77,136.55,145.78,138,145.78,139.53ZM70.59,143.2h-1c-.93-2.67-1.91-5.32-2.78-8a2.38,2.38,0,0,0-3.1-1.77c-2,.5-.84,2-.5,2.93,1.24,3.58,2.6,7.12,3.9,10.68.5,1.37,1.22,2.32,2.85,2.29A3,3,0,0,0,73.19,147c1.09-3.34,2.42-6.6,3.52-9.94.37-1.12,1.91-2.61,0-3.49s-2.92.41-3.52,2.18C72.38,138.23,71.47,140.71,70.59,143.2ZM42.65,107.68c-1.35,4-3.49,4.81-7,3.26a3.55,3.55,0,0,0-4.93,2.16c-.66,1.77.2,3.13,1.82,4,1.44.77,4.6.28,3.79,2.75-.75,2.26-3.2.35-4.9,0-.21,0-.46.19-1.1.48a4.86,4.86,0,0,0,5.86,2c1.45-.44,2.8-1.2,2.78-3,0-2.44-1.93-3-3.74-3.55-.38-.11-.75-.26-1.13-.41-.74-.3-1.59-.55-1.26-1.66.28-.91,1.07-1,1.9-1.17,1.24-.21,2.14,1.44,3.35.7,3.71-2.27,3.5.41,3.58,2.86.06,1.75-.39,3.58.55,5.2.81,1.4,2.17,1.87,3.35.8s-.36-1.33-.92-1.94c-1.69-1.82-1.6-5-.61-6C47.15,111,43.4,109.91,42.65,107.68Zm166.12,6.95c0-1.76,0-3.53,0-5.3,0-.88.36-2.23-.85-2.38s-1.22,1.14-1.19,2.06c.07,1.82-.54,2.13-2.37,1.92-3.93-.44-6,1.67-6.11,5.62-.09,3.49,2.09,6.09,5.09,6,5.46-.11,5.46-.11,5.45-5.5Zm-124.91.19c.83,2.56-2.48,7.78,4.34,7.63,2.15,0,4-.16,5.24-2a6.54,6.54,0,0,0,.38-7,4.5,4.5,0,0,0-5.29-2.62c-.93.18-2,1-2.51-.77-.29-1.13.57-3.36-1.4-3-1.45.24-.59,2.35-.73,3.62S83.86,113.14,83.86,114.82ZM73.78,118c0-6.23-2.77-8.76-7.06-6.58-.67.34-1.75.61-1.37,1.63s1.28.42,2,.1c1.42-.65,3.35-1,3.6.81.35,2.65-2,1.08-3.12,1.29a3.65,3.65,0,0,0-3.34,3,3.44,3.44,0,0,0,2,4c2.17,1.19,4.42.06,6.52,0C74.63,122,73.4,119.26,73.78,118ZM171,122.63c3.2,0,5.49-2.54,5.49-6.1a5.4,5.4,0,0,0-5.34-5.77c-3.37-.11-5.55,2.16-5.63,5.84S167.69,122.63,171,122.63Zm24.59-1.94c-1.49-.91-2.17-.28-2.91-.1-1.85.44-4,.25-4-1.91s2.28-.88,3.54-1.18a4.66,4.66,0,0,1,1.58,0c2.62.25,3-1.06,2.14-3.21-.94-2.46-2.71-3.71-5.24-3.48a5.09,5.09,0,0,0-4.73,4.27c-.59,2.57-.15,5,2.17,6.47C190.62,123.2,193,122.85,195.61,120.69Zm-93.76,1.93c3.27,0,5.68-2.48,5.7-6a5.53,5.53,0,1,0-11,0A5.74,5.74,0,0,0,101.85,122.62ZM22.93,110.78a5.77,5.77,0,0,0-5.59,6.13A5.84,5.84,0,0,0,23,122.63c3.24,0,5.57-2.65,5.5-6.18A5.46,5.46,0,0,0,22.93,110.78Zm126.2,9-.62,1c1.43,1.73,3.36,2.15,5.65,1.62,1.56-.35,2.74-1.2,2.79-3,.07-2.48-1.83-3-3.62-3.64a7.49,7.49,0,0,1-.76-.25c-.79-.35-2.08-.35-1.77-1.7s1.52-1.25,2.6-1.19,1.88,1.23,2.95.24c-1.76-1.93-3.53-2.63-5.3-1.9-1.39.57-2.69,1.42-2.56,3.23.17,2.39,2,2.84,3.85,3.46,1,.34,2.74.49,2.11,2.21-.52,1.39-2,1-3.16.73A19.45,19.45,0,0,1,149.13,119.78Zm-8.65-6.89A4.69,4.69,0,0,0,135,111c-1.51.44-2.65,1.26-2.61,3.11,0,2.24,1.48,3,3.32,3.37a7.41,7.41,0,0,1,1.5.52c.72.32,1.59.62,1.3,1.68s-1.14.93-1.92,1.14c-1.41.36-2.52-1.64-4.44-.25a5.1,5.1,0,0,0,5.24,2c1.64-.33,3.11-1,3.33-3s-1.1-2.76-2.65-3.53c-1.21-.6-4-.05-3.19-2.39s2.9-.71,4.46-.21C139.48,113.47,139.75,113.23,140.48,112.89Zm-22.35,9.55a14.92,14.92,0,0,0,.55-9.4c-1.23-4.13-4.72-1.19-7.12-1.81-1.13-.29-1.87-.18-1.9,1.13-.06,2.84,0,5.68,0,8.53,0,.65.22,1.46,1.08,1.26.35-.08.76-.77.79-1.2.12-1.76.1-3.52.12-5.28a2.73,2.73,0,0,1,3.07-2.93c1.86,0,2.3,1.37,2.42,3C117.28,118,116.63,120.3,118.13,122.44Zm-55.59-1.89c-1.38-1.28-2.15-.27-3-.15-2.95.41-4.47-1.25-4.24-3.93.27-3.09,2.1-4.64,5.29-3.2.63.29,1.26.6,1.68-.2.29-.57-.11-1-.54-1.38-1.8-1.57-5.57-1.09-7.27,1-2.09,2.51-1.71,7,.87,8.77S60.28,123.07,62.54,120.55Zm102.14-8.87c-2.4-.74-2.31-2.94-3.57-3.58-1.5-.76-1.21,1.25-1.73,2s.51,10.87,1,11.48a2.15,2.15,0,0,0,3.15.62c1.69-1.35-.22-1.51-.85-2-1.1-.9-.83-2.2-.89-3.37C161.7,114.89,161.8,113,164.68,111.68Zm-35.84-3a24.32,24.32,0,0,0-1.4,10.71c.12,1.16-.23,2.91,1.36,2.85,1.25-.05.87-1.73.89-2.75C129.79,115.6,129.92,111.65,128.84,108.73Zm56,3.37-.55-.92c-1.68.08-3.51-.22-5,.37-1.11.44-.23,9.25,1,11.12C182.09,119.15,178.7,113.62,184.8,112.1Zm-107.41,10c1.51-3,.46-6.32,1.18-9.42.09-.4-.59-1.19-1.08-1.46s-1,.25-1,.85C76.59,115.42,75.94,118.83,77.39,122.1Z"/><path class="b" d="M104.25,94.54c-12.22,0-24.43-.15-36.64.09-3.81.07-4.82-1.3-4.67-5,.24-6.12-.14-12.26.15-18.38.19-3.94-.66-5.52-5-5.29-7.81.41-15.66.14-23.49.09-1.09,0-2.68.66-3.13-.88-.32-1.11,1-1.82,1.76-2.51Q64.21,35,95.17,7.29c2.3-2,4.74-3.93,6.93-6.09,1.73-1.7,2.92-1.52,4.68.07C120,13.2,133.29,25,146.54,36.88c9.47,8.49,18.89,17,28.35,25.51.91.82,2.19,1.61,1.74,2.89-.5,1.45-2.08.8-3.19.81-7.83,0-15.67.2-23.49-.06-3.44-.11-4.27,1.09-4.15,4.42.25,6.26-.17,12.54.13,18.79.2,4-.87,5.5-5,5.4C128.68,94.37,116.46,94.54,104.25,94.54Z"/><path class="b" d="M104.45,180.47c-12.61,0-25.22-.07-37.83.05-2.73,0-3.78-.77-3.67-3.68.2-5,.14-10.08,0-15.12-.06-2.37.58-3.41,3.11-3.4q38.43.1,76.85,0c2.27,0,3,.89,3,3.14-.11,5-.18,10.08,0,15.11.11,3.16-1.22,3.95-4,3.93C129.4,180.42,116.92,180.47,104.45,180.47Z"/><path class="c" d="M171.74,141.51c1.06-2.46.45-4.36.65-6.18.12-1.05.45-1.87,1.62-1.92,1.36,0,1.82.76,1.81,2.07,0,3.66,0,7.33,0,11,0,1,.34,2.35-1.06,2.73a2.77,2.77,0,0,1-3.13-1.24,38.59,38.59,0,0,0-5.86-7.08v6.21c0,1.21-.3,2.18-1.75,2.14s-1.82-.81-1.81-2.11c0-3.66,0-7.33,0-11,0-1.09-.1-2.26,1.27-2.64a2.79,2.79,0,0,1,3.17,1.1C168.26,136.78,169.88,139,171.74,141.51Z"/><path class="c" d="M37.36,149.45c-5.17-.16-5.17-.16-5.09-5.45,0-1.22-.08-2.45.06-3.66.26-2.22-1.25-5.48.75-6.47,2.75-1.35,6.23-.79,9.31,0,1.7.45,3.11,2.49,2.27,3.7-2.5,3.56,3.73,8.81-2.23,11.28C40.91,149.5,39.06,149.28,37.36,149.45Zm.81-9.77c1.13-.19,2.87.24,2.85-1.76,0-1.4-1.37-1.46-2.41-1.45-1.23,0-2.9-.43-2.87,1.71C35.77,139.72,37,139.58,38.17,139.68Zm.55,6.39c1.11-.14,2.7.23,2.56-1.63s-1.81-1.57-3.07-1.62c-1.07,0-2.29,0-2.34,1.48C35.81,146.45,37.49,145.93,38.72,146.07Z"/><path class="c" d="M107.65,144.49c-.43-1.2-1.64-.57-2.34-1-1.1-.74-1.29-2.18-.19-2.57,2-.73,4.84-1.48,6.27.34a4.91,4.91,0,0,1-.51,6c-2.39,2.64-8.15,2.62-11,.06a8.32,8.32,0,0,1-.9-11.07c2.39-3,7.91-3.82,10.87-1.5.8.63,2,1.33,1,2.61s-2.25.56-3.5-.09a3.84,3.84,0,0,0-5.32,1.1,4.52,4.52,0,0,0-.24,5.67c1.47,2,3.46,2.34,5.63,1.15C107.53,145.09,107.56,144.74,107.65,144.49Z"/><path class="c" d="M125.91,148.86c-2.58,1.23-3.89-.17-4.91-2.37-.44-1-.9-2.3-2.06-2.24-1.51.07-1.09,1.59-1.13,2.58,0,1.36-.27,2.47-1.92,2.4s-1.65-1.39-1.65-2.64c0-3.52,0-7,0-10.57,0-1.83.49-2.83,2.48-2.69,1.71.13,3.44-.05,5.14.15a5,5,0,0,1,4.18,7.09C124.4,144.84,124.4,144.84,125.91,148.86Zm-3.29-10.16c0-1.66-1.07-2.08-2.38-2.16s-2.39.11-2.41,1.84c0,1.25.33,2.13,1.76,2.07S122.3,140.46,122.62,138.7Z"/><path class="c" d="M79.2,141.18c0-8.76,0-8.76,8.51-7.79,1,.11,2.26-.09,2.33,1.5.08,1.85-1.28,1.58-2.45,1.8-1.6.3-4.47-1.15-4.45,1.54,0,2.47,2.7,1.11,4.23,1.23,1.27.09,2.54.15,2.52,1.83s-1.33,1.76-2.57,1.76c-.67,0-1.33,0-2,0-1,.07-2.36-.14-2.3,1.47s1.45,1.15,2.42,1.38c1.58.39,4.49-1.2,4.42,1.66-.07,3.13-3.11,1.59-4.77,1.65C79.23,149.41,79.22,149.29,79.2,141.18Z"/><path class="c" d="M178.51,141.28a1.13,1.13,0,0,1,0-.41c.77-2.58-2.46-7,2.92-7.46,7.11-.54,10.73,2.05,11.09,7.37.32,4.67-2.75,8.07-7.68,8.48C178.5,149.79,178.5,149.8,178.51,141.28Zm3.27.07c.88,1.51-1.52,4.69,2.36,4.69,3,0,4.73-1.62,4.73-4.69s-1.54-4.79-4.61-4.82C180.45,136.51,182.5,139.59,181.78,141.35Z"/><path class="c" d="M7.1,122.7,3,112.84c-1.28,3.09-.67,5.47-.87,7.73-.07.82-.1,1.85-1.08,1.86s-1-1.08-1-1.87c0-3.8,0-7.61,0-11.41,0-1.09-.08-2.28,1.44-2.42,1.31-.11,1.89.79,2.31,1.85,1.07,2.72,2.11,5.45,3.59,9.3,1.49-3.66,2.54-6.2,3.58-8.76.5-1.25.85-2.74,2.65-2.41s1.32,1.82,1.33,3c0,3.4,0,6.79,0,10.19,0,.92.16,2.3-1,2.34-1.55.06-1.15-1.5-1.19-2.49-.07-2,0-4,0-7C9.82,116,9.83,119.72,7.1,122.7Z"/><path class="c" d="M135.9,149.24a7.8,7.8,0,0,1-8.08-8.14c.13-4.54,3.43-7.66,8.11-7.66a7.9,7.9,0,0,1,0,15.8ZM131.46,141c.09,2.69,1,4.8,4,5s4.53-1.5,4.66-4.32-1-4.85-4-5S131.84,138.11,131.46,141Z"/><path class="c" d="M17.8,149.27c-1.94,0-2.52-.64-1.88-2.29,1.51-3.93,3-7.86,4.41-11.83a2.56,2.56,0,0,1,2.76-1.8,2.69,2.69,0,0,1,3,2c1.27,3.73,2.66,7.41,4,11.11.31.86,1,1.88,0,2.55a2.29,2.29,0,0,1-3-.27c-2.82-3.34-5.47-2.93-8.21.07C18.62,149.16,18,149.2,17.8,149.27Zm5.56-11.34c-1.19,2-2.17,3.43-1.5,5.16.27.73,1.71.73,2.15.29C25.73,141.67,23.86,140.29,23.36,137.93Z"/><path class="c" d="M54.16,149.24a7.92,7.92,0,0,1-.09-15.83,7.92,7.92,0,1,1,.09,15.83Zm4.45-8.33c-.46-2.59-1.79-4.51-4.68-4.3s-4.21,2.23-4.11,5,1.78,4.5,4.63,4.39C57.47,145.87,58.38,143.72,58.61,140.91Z"/><path class="c" d="M145.78,139.53c0-1.49,0-3,0-4.47,0-1.17.62-1.75,1.75-1.68a1.59,1.59,0,0,1,1.68,1.8c0,2.44,0,4.88.1,7.31.09,2,1.12,3.32,3.21,3.36,2.32,0,3.34-1.33,3.37-3.58s0-4.61.05-6.92a1.74,1.74,0,0,1,2-1.94c1.18,0,1.57.81,1.56,1.9a85.89,85.89,0,0,1-.17,8.94c-.4,3.54-3.2,5.28-7.44,5-3.4-.25-5.84-1.74-6.07-5.62-.08-1.35,0-2.71,0-4.07Z"/><path class="c" d="M70.59,143.2c.88-2.49,1.79-5,2.64-7.47.6-1.77,1.73-3,3.52-2.18s.33,2.37,0,3.49c-1.1,3.34-2.43,6.6-3.52,9.94a3,3,0,0,1-3.25,2.34c-1.63,0-2.35-.92-2.85-2.29-1.3-3.56-2.66-7.1-3.9-10.68-.34-1-1.5-2.43.5-2.93a2.38,2.38,0,0,1,3.1,1.77c.87,2.68,1.85,5.33,2.78,8Z"/><path class="c" d="M42.65,107.68c.75,2.23,4.5,3.3,1.34,6.49-1,1-1.08,4.17.61,6,.56.61,2.16.82.92,1.94s-2.54.6-3.35-.8c-.94-1.62-.49-3.45-.55-5.2-.08-2.45.13-5.13-3.58-2.86-1.21.74-2.11-.91-3.35-.7-.83.14-1.62.26-1.9,1.17-.33,1.11.52,1.36,1.26,1.66.38.15.75.3,1.13.41,1.81.57,3.71,1.11,3.74,3.55,0,1.82-1.33,2.58-2.78,3a4.86,4.86,0,0,1-5.86-2c.64-.29.89-.51,1.1-.48,1.7.3,4.15,2.21,4.9,0,.81-2.47-2.35-2-3.79-2.75-1.62-.88-2.48-2.24-1.82-4a3.55,3.55,0,0,1,4.93-2.16C39.16,112.49,41.3,111.73,42.65,107.68Z"/><path class="c" d="M208.77,114.63v2.45c0,5.39,0,5.39-5.45,5.5-3,.06-5.18-2.54-5.09-6,.11-4,2.18-6.06,6.11-5.62,1.83.21,2.44-.1,2.37-1.92,0-.92-.13-2.23,1.19-2.06s.83,1.5.85,2.38C208.81,111.1,208.77,112.87,208.77,114.63Zm-2.13,2.05c.27-2.27-.51-3.86-2.87-4-2.75-.13-3.25,2-3.24,4.14s.85,3.88,3.24,3.78S206.93,118.93,206.64,116.68Z"/><path class="c" d="M83.86,114.82c0-1.68-.1-2.91,0-4.12s-.72-3.38.73-3.62c2-.32,1.11,1.91,1.4,3,.46,1.78,1.58.95,2.51.77a4.5,4.5,0,0,1,5.29,2.62,6.54,6.54,0,0,1-.38,7c-1.26,1.82-3.09,1.94-5.24,2C81.38,122.6,84.69,117.38,83.86,114.82Zm2.07,1.76c-.05,2.28.58,4,3,4s3.53-1.75,3.48-4-1-4-3.61-3.88S85.76,114.52,85.93,116.58Z"/><path class="c" d="M73.78,118c-.38,1.31.85,4-.8,4.13-2.1.11-4.35,1.24-6.52,0a3.44,3.44,0,0,1-2-4,3.65,3.65,0,0,1,3.34-3c1.1-.21,3.47,1.36,3.12-1.29-.25-1.85-2.18-1.46-3.6-.81-.69.32-1.55,1-2-.1s.7-1.29,1.37-1.63C71,109.19,73.8,111.72,73.78,118Zm-4.64,2.92c1.37,0,2.45-.46,2.46-2s-1.25-2-2.48-2.08a2,2,0,0,0-2.41,2.1C66.68,120.44,67.77,120.93,69.14,120.87Z"/><path class="c" d="M171,122.63c-3.33,0-5.56-2.45-5.48-6s2.26-5.95,5.63-5.84a5.4,5.4,0,0,1,5.34,5.77C176.51,120.09,174.22,122.63,171,122.63Zm-.13-10a3.67,3.67,0,0,0-3.35,4.2c.13,2.33,1.39,3.92,3.73,3.76,2.13-.14,3.18-1.81,3.19-3.92A3.68,3.68,0,0,0,170.89,112.63Z"/><path class="c" d="M195.61,120.69c-2.62,2.16-5,2.51-7.48.87-2.32-1.52-2.76-3.9-2.17-6.47a5.09,5.09,0,0,1,4.73-4.27c2.53-.23,4.3,1,5.24,3.48.82,2.15.48,3.46-2.14,3.21a4.66,4.66,0,0,0-1.58,0c-1.26.3-3.56-.85-3.54,1.18s2.18,2.35,4,1.91C193.44,120.41,194.12,119.78,195.61,120.69Zm-4-4.51c.51-1,2.57.8,2.38-1.44-.13-1.47-1.42-2.14-2.86-2.16s-2.8.75-2.76,2.18C188.44,116.89,190.4,115.54,191.63,116.18Z"/><path class="c" d="M101.85,122.62a5.74,5.74,0,0,1-5.33-6,5.53,5.53,0,1,1,11,0C107.53,120.14,105.12,122.67,101.85,122.62Zm3.52-6.28c-.08-2.09-1-3.73-3.5-3.64s-3.28,2-3.24,4.19,1.15,3.67,3.33,3.68C104.39,120.59,105.35,118.92,105.37,116.34Z"/><path class="c" d="M22.93,110.78a5.46,5.46,0,0,1,5.53,5.67c.07,3.53-2.26,6.15-5.5,6.18a5.84,5.84,0,0,1-5.62-5.72A5.77,5.77,0,0,1,22.93,110.78Zm3.43,5.71c-.08-2.27-1.24-3.77-3.6-3.75s-3.27,1.67-3.27,3.76,1,4.09,3.4,4.11S26.33,119,26.36,116.49Z"/><path class="c" d="M149.13,119.78a19.45,19.45,0,0,0,2.16.81c1.16.29,2.64.66,3.16-.73.63-1.72-1.13-1.87-2.11-2.21-1.81-.62-3.68-1.07-3.85-3.46-.13-1.81,1.17-2.66,2.56-3.23,1.77-.73,3.54,0,5.3,1.9-1.07,1-2-.19-2.95-.24s-2.28-.17-2.6,1.19,1,1.35,1.77,1.7a7.49,7.49,0,0,0,.76.25c1.79.61,3.69,1.16,3.62,3.64,0,1.76-1.23,2.61-2.79,3-2.29.53-4.22.11-5.65-1.62Z"/><path class="c" d="M140.48,112.89c-.73.34-1,.58-1.17.52-1.56-.5-3.68-2-4.46.21s2,1.79,3.19,2.39c1.55.77,2.89,1.53,2.65,3.53s-1.69,2.66-3.33,3a5.1,5.1,0,0,1-5.24-2c1.92-1.39,3,.61,4.44.25.78-.21,1.66-.2,1.92-1.14s-.58-1.36-1.3-1.68a7.41,7.41,0,0,0-1.5-.52c-1.84-.38-3.28-1.13-3.32-3.37,0-1.85,1.1-2.67,2.61-3.11A4.69,4.69,0,0,1,140.48,112.89Z"/><path class="c" d="M118.13,122.44c-1.5-2.14-.85-4.45-1-6.66-.12-1.67-.56-3-2.42-3a2.73,2.73,0,0,0-3.07,2.93c0,1.76,0,3.52-.12,5.28,0,.43-.44,1.12-.79,1.2-.86.2-1.07-.61-1.08-1.26,0-2.85,0-5.69,0-8.53,0-1.31.77-1.42,1.9-1.13,2.4.62,5.89-2.32,7.12,1.81A14.92,14.92,0,0,1,118.13,122.44Z"/><path class="c" d="M62.54,120.55c-2.26,2.52-4.63,2.64-7.2.86s-3-6.26-.87-8.77c1.7-2,5.47-2.52,7.27-1,.43.38.83.81.54,1.38-.42.8-1.05.49-1.68.2-3.19-1.44-5,.11-5.29,3.2-.23,2.68,1.29,4.34,4.24,3.93C60.39,120.28,61.16,119.27,62.54,120.55Z"/><path class="c" d="M164.68,111.68c-2.88,1.32-3,3.21-2.89,5.12.06,1.17-.21,2.47.89,3.37.63.53,2.54.69.85,2a2.15,2.15,0,0,1-3.15-.62c-.49-.61-1.42-10.86-1-11.48s.23-2.77,1.73-2C162.37,108.74,162.28,110.94,164.68,111.68Z"/><path class="c" d="M128.84,108.73c1.08,2.92.95,6.87.85,10.81,0,1,.36,2.7-.89,2.75-1.59.06-1.24-1.69-1.36-2.85A24.32,24.32,0,0,1,128.84,108.73Z"/><path class="c" d="M184.8,112.1c-6.1,1.52-2.71,7.05-4.52,10.57-1.27-1.87-2.15-10.68-1-11.12,1.5-.59,3.33-.29,5-.37Z"/><path class="c" d="M77.39,122.1c-1.45-3.27-.8-6.68-.87-10,0-.6.45-1.13,1-.85s1.17,1.06,1.08,1.46C77.85,115.78,78.9,119.05,77.39,122.1Z"/><path class="a" d="M38.17,139.68c-1.13-.1-2.4,0-2.43-1.5,0-2.14,1.64-1.7,2.87-1.71,1,0,2.4.05,2.41,1.45C41,139.92,39.3,139.49,38.17,139.68Z"/><path class="a" d="M38.72,146.07c-1.23-.14-2.91.38-2.85-1.77.05-1.51,1.27-1.53,2.34-1.48,1.26.05,2.93-.31,3.07,1.62S39.83,145.93,38.72,146.07Z"/><path class="a" d="M122.62,138.7c-.32,1.76-1.71,1.7-3,1.75s-1.78-.82-1.76-2.07c0-1.73,1.11-1.92,2.41-1.84S122.58,137,122.62,138.7Z"/><path class="a" d="M181.78,141.35c.72-1.76-1.33-4.84,2.48-4.82,3.07,0,4.6,1.83,4.61,4.82s-1.75,4.69-4.73,4.69C180.26,146,182.66,142.86,181.78,141.35Z"/><path class="a" d="M131.46,141c.38-2.86,1.83-4.55,4.7-4.36s4.08,2.37,4,5-1.79,4.51-4.66,4.32S131.55,143.66,131.46,141Z"/><path class="a" d="M23.36,137.93c.5,2.36,2.37,3.74.65,5.45-.44.44-1.88.44-2.15-.29C21.19,141.36,22.17,140,23.36,137.93Z"/><path class="a" d="M58.61,140.91c-.23,2.81-1.14,5-4.16,5.08-2.85.11-4.52-1.53-4.63-4.39s1.26-4.78,4.11-5S58.15,138.32,58.61,140.91Z"/><path class="a" d="M206.64,116.68c.29,2.25-.56,3.83-2.87,3.94s-3.23-1.7-3.24-3.78.49-4.27,3.24-4.14C206.13,112.82,206.91,114.41,206.64,116.68Z"/><path class="a" d="M85.93,116.58c-.17-2.06.44-3.75,2.87-3.88s3.56,1.61,3.61,3.88-1,4.06-3.48,4S85.88,118.86,85.93,116.58Z"/><path class="a" d="M69.14,120.87c-1.37.06-2.46-.43-2.43-2a2,2,0,0,1,2.41-2.1c1.23.09,2.49.51,2.48,2.08S70.51,120.9,69.14,120.87Z"/><path class="a" d="M170.89,112.63a3.68,3.68,0,0,1,3.57,4c0,2.11-1.06,3.78-3.19,3.92-2.34.16-3.6-1.43-3.73-3.76A3.67,3.67,0,0,1,170.89,112.63Z"/><path class="a" d="M191.63,116.18c-1.23-.64-3.19.71-3.24-1.42,0-1.43,1.28-2.21,2.76-2.18s2.73.69,2.86,2.16C194.2,117,192.14,115.21,191.63,116.18Z"/><path class="a" d="M105.37,116.34c0,2.58-1,4.25-3.41,4.23-2.18,0-3.29-1.54-3.33-3.68s.75-4.09,3.24-4.19S105.29,114.25,105.37,116.34Z"/><path class="a" d="M26.36,116.49c0,2.49-1.11,4.14-3.47,4.12s-3.41-1.89-3.4-4.11,1-3.74,3.27-3.76S26.28,114.22,26.36,116.49Z"/></svg>