<svg xmlns="http://www.w3.org/2000/svg" viewBox="0 0 469.9 477.14"><defs><style>.a{fill:#fcfdfd;}.b{fill:#1f61ac;}.c{fill:#7fccee;}.d{fill:#316aaa;}.e{fill:#4575ac;}</style></defs><path class="a" d="M409.55,424.27l.06,0c1,0,1.56-.49,1.27-1.61a1.76,1.76,0,0,0,.17-.37L413,424c1.16,1,2.65,1.9,3.86.72,1.79-1.72-1.17-1.81-1.27-2.9-.15-1.63-1.07-3.51.7-4.77,1.4-1,1.47-1.86,0-2.66-1-.56-.8-1.57-1.09-2.41-1.66-1.72-3.72.09-5.49-.67l-.14-.08c-.11-.39-.33-.57-.72-.33a2.58,2.58,0,0,0-.44-.22,3.76,3.76,0,0,0-5.37,0,3,3,0,0,0-.47.25c-.4-.24-.59,0-.65.36a4,4,0,0,0-1.55,5c.82,2.16,2.65,3.15,5,3.36.64.05,2.11.44,1.82,1.66s-1.41,1.52-2.58,1.11c-.61-.21-1.19-.51-1.79-.77-.82-.37-1.79-1.1-2.43,0-.83,1.42,0,2.26,1.34,2.73l.89.37.24.13c1.89,1.37,3.76,1.6,5.61-.06l.36-.17C409.21,424.9,409.43,424.7,409.55,424.27Zm-215-197.91h0a8,8,0,0,0-4.89-3.12l0,0A35.68,35.68,0,0,0,173,216.72a.7.7,0,0,0-.71-.11c-4.85-.61-7.67-3.48-8.78-8.27,0-2.14,0-4.29,0-6.43,1.9-1.54,3.45-.31,5.07.63,8.35,4.82,16.83,5.54,25.17.21,2.69-1.72,4.57-1.52,7.18.11,7.61,4.76,15.59,5.16,23.33.39,3.37-2.08,6.09-2.35,9.43-.1,8.08,5.45,16.38,4.67,24.38-.14,3.14-1.89,5.68-2,8.77-.07,8.48,5.37,17,5.2,25.42-.33,2.46-1.62,4.76-1.87,7.3.07a14,14,0,0,0,5,2.34,3.52,3.52,0,0,0,4.24-2.85c.48-1.94-1.71-1.45-2.8-2a60.59,60.59,0,0,1-6.79-3.4c-2.29-1.43-4.21-1.61-6.53.07-8.81,6.36-17.82,6.28-26.62.09-3.38-2.38-6-.85-8.68.86-7.69,4.87-15.47,5.62-23,0-3.86-2.85-7-2.26-10.75.07-7.62,4.7-15.36,4.51-22.68-.86-2.52-1.85-4.54-1.92-7.13-.07-8.21,5.84-16.53,5.44-24.89.09a4.9,4.9,0,0,1-2.47-4.29c2.78-6.37,7.1-11.8,10.45-17.82.84-1.52,2.1-1.85,3.55-2.21a152.16,152.16,0,0,0,19.67-6.54c3.55-1.41,6.3-4,11.46-.86a26.16,26.16,0,0,0,18.67,3.5,90,90,0,0,0,9.05-2.42l7-4.65c.71-3,4.25-2,5.81-4.51.9-1.46,3.12-2.32,3.35-4.71,0-.24.9-.47,1.41-.56,3.46-.61,4.81-4.22,7.91-5.72,2.85-1.38,2.83-5.93,6.13-8.47,2.33-1.79,5.53-6.82,2.43-12.06-.88-1.49-2.25-3.46-2.53-5-.69-3.83-2.69-4.94-6-5.26-2.09-.21-4.71-2.07-4.17-3.5.82-2.18.05-2.59-1.27-3.33-.6-.34-1.46-.87-1.17-1.42,1.68-3.15-.14-6.38.36-9.49.72-4.49-3.66-12.54-8-13.5-1.86-.42-4-1.33-4.73-2.27-4.79-6.2-12-5.77-18.28-7.07-6.05-1.24-12.89-5.91-14.48-11.75-.41-1.52-.17-3.76-1.32-4.66-2.94-2.26-3.46-5.77-5.1-8.69-.51-.92-.87-2-2-2.45-7.4-3-14.32-7.35-22.73-7.39-4.78,0-10.34,3.42-11.41,8.08-1,4.49-2.84,5.31-7.69,5.06-2-.1-3.76-.94-5.74-1.08s-5.85-.41-6.32-3.27c-.73-4.34-4.65-6.71-5.41-11a5.46,5.46,0,0,0-3.23-3.71c-6.21-2.22-17.81,1.66-20.91,7.73-1.92,3.79-5.17,5.28-8.39,6.66a120.28,120.28,0,0,0-15.68,7.66c-2.07,1.26-4.19,3.57-3.57,6.38.5,2.25.22,4.57,1,6.75,1.74,4.8-.91,7.61-4.29,10.29-4.56,3.62-9.06,7.36-13.38,11.28-4,3.62-3.68,7.93.35,11.26A7.77,7.77,0,0,1,80,106.42c.62,2.58,1.44,5.1,4,6.61,1.24.71,2.4,2.67.87,3.67-2.9,1.9-4.21,5.16-6.62,7.26-7.56,6.58-7.66,14.53-5.08,23.31.88,3,3.84,3.76,5.41,5.71,3.36,4.16,8.19,5.44,12.39,7.61,3.42,1.76,7.92,1.24,11.54,3.28,1.42.79,2.66-1.48,4.08-.17,4,3.67,9.63,3.49,13.82,6.49,2.12,1.52,3.73-1.46,5.57-.11,3,2.2,6.28,1.91,9.65,1.42,3-.42,8-4,8-6.08-.14-3.88,1.8-3.22,4-2.18,4.59,2.16,9.14,4.38,13.74,6.51,4.22,1.95,4.35,2.14,1,5.27a70.6,70.6,0,0,0-17.06,23.86c-1.38,1.84-3,1.8-4.87.76a39.18,39.18,0,0,1-4.91-2.66c-2.37-1.85-4.35-1.63-6.88-.14-6,3.52-12.15,6.63-19.47,3.63a50.71,50.71,0,0,1-7.83-3.93c-2-1.22-3.49-1.42-5.43,0-8.68,6.28-17.5,6.23-26.26.2-2-1.4-3.67-1.65-5.74-.09-8.56,6.45-17.3,5.88-25.91.18-2.38-1.58-4.21-1.57-6.47.06-9.12,6.58-18.26,6-27.33-.17-1.19-.81-2.65-2.27-3.65-.38A3.4,3.4,0,0,0,1.66,201c9.48,6.19,19.27,8.49,29.39,1.84,2.84-1.86,5-1.59,7.61,0,8.28,5.07,16.57,4.85,24.78-.24,2.06-1.27,3.92-1.61,6.23-.13,8.54,5.47,17.24,5.39,25.78,0,2-1.3,3.79-1.49,5.87-.18,9.16,5.81,18.39,6.26,27.61.09a4.89,4.89,0,0,1,5.91-.07,23.12,23.12,0,0,0,5,2.55,4.18,4.18,0,0,1,3.07,4.54c-.21,4.07-1.86,6.77-6.15,7.41a28.57,28.57,0,0,0-5.15,1.78c-4.51.9-8.47,3.17-12.3,5.57-7.29,4.58-14,9.89-18.1,17.86l0,0c-2.76,2.51-4.09,6-5.38,9.33a5.6,5.6,0,0,1-4.83,4c-8.29,1.59-12.89,7.43-15.59,15.2-.27.78-.59,1.75.27,2.18,1.26.65,1.53-.62,1.88-1.43A26,26,0,0,1,86.91,260c.63-.1,1.27-.15,1.89-.3,4.12-1,4.33-.79,3.56,3.58-.28,1.6-.49,3.21-.72,4.82-.25,1.76.29,2.85,2.22,3,1.7.15,2.71-.22,3-2.2a62.06,62.06,0,0,1,1.84-8.32c5.21-16.89,16-28,32.75-32.73.79.09,1.53.25,1.83,1.15a17.77,17.77,0,0,1-1.75,1.62C118,240.13,110.5,253.49,108,270c-.2,1.28-1.11,3.18,1.23,3.58s2.1-1.48,2.39-2.9a45.53,45.53,0,0,1,3.25-10.86c.91-1.84.85-5,3.14-5.13,1.86-.1,2.17,3,3.51,4.44a34.37,34.37,0,0,1,4,13.55c.07.77,0,1.8,1.2,1.61.86-.14.76-1,.76-1.66,0-5.18-.14-10.36-3.24-14.85l-.18-.17c-.36-1.33-.43-2.85-2.08-3.34l-1.59-2.45-.15-2.46a83.86,83.86,0,0,1,11.22-11.54c2.6-1.37,5.28-2.61,7.48-4.65a.45.45,0,0,0,.52-.19c5.26-.51.57,2.93,1.56,4.12v0c-1.5,1.48-2,3.49-2.63,5.4a100.41,100.41,0,0,0-5.22,28.76c0,1.32-.6,2.91,1.41,3.17,2.19.28,2.19-1.51,2.35-3a98,98,0,0,1,2.73-14.81c1.94-7.38,1.93-7.38,7.68-3l0-.05a10.56,10.56,0,0,0,3.22,4.95l0,0c1.35,4.21,2.94,8.35,3.44,12.8.1.82.2,1.76,1.25,1.65.73-.07.91-.88.92-1.58a28.38,28.38,0,0,0-4-16.08l-.11-.11c-1.32-4.7-3.66-8.65-7.89-11.2l-.08-.27.08-.82c2.64-4.88,5.3-9.74,9.09-13.84,1.43-1.55,2.55-1.71,3.75.18,1.74,2.73,3.67,5.35,5.25,8.17,6.22,11.15,9.51,23.31,11.44,35.91.19,1.2-.23,3.14,1.85,2.91,1.74-.19,1.29-1.83,1.21-3-1.06-15.92-4.12-31.29-11.88-45.38-.45-.83-1.62-1.51-.94-3,5.67,2.54,9.61,7.16,13.89,11.36a8,8,0,0,0,3.07,4.18l0,0a40.72,40.72,0,0,0,4.64,8.56.32.32,0,0,0,.22.4q2.4,7.72,4.81,15.47v0c.16,1.48.31,3,.48,4.43s.11,2.82,2.11,2.72c2.27-.13,2-1.75,1.84-3.24-.39-3.46-.85-6.91-1.29-10.4,1.92-.18,3,.86,4.15,1.76,3.34,2.65,5.39,6.26,7.09,10.15.38.87.45,2.53,2,1.92,1.26-.52.8-1.83.48-2.87-2.07-6.76-5.77-12.27-12.12-15.35-2.55-1.24-3.71-3-4.59-5.6-1.62-4.82-3-9.82-6.58-13.67l0,0c.08-2.24-2.61-3.31-2.41-5.95,5.91,1.09,10.3,4.9,15.27,7.43,9.52,8,16.17,17.95,18.47,30.57.43,2.35,1.14,4.94,3.58,4.36s.75-3.2.42-4.8c-1-4.54-2.19-9-3.44-14a31.25,31.25,0,0,1,12.19,6.82c3.45,3.93,6.94,7.83,9,12.79.31.75.66,1.69,1.62,1.41,1.13-.34.59-1.38.35-2.05-3.1-8.57-7.56-16.05-15.81-20.44l.06,0c-1.7-2.29-4.3-3.19-6.75-3.9a11.24,11.24,0,0,1-6.86-5.55c-3.24-5.44-6.93-10.52-12.87-13.25h0C196.56,226.88,195.6,226.56,194.56,226.36ZM343,417.09a1.35,1.35,0,0,0,.53.31c-.22.67-.43,1.34-.65,2-2.19,2.36-5.31,2.07-8,2.55-1.7.3-3-1.59-3.24-3.53a4.17,4.17,0,0,1,1.36-4.05,3.57,3.57,0,0,1,4.76-.21c1.14.87,2.26,1,3.18,0s-.25-1.73-.86-2.32c-2.15-2.12-6.59-2.12-9.26-.08a8,8,0,0,0-2,9.55c1.76,3.46,4.49,4.44,8.14,3.49,2.25-.58,4.35-2.39,7.15.09,1.4,1.23,6,1.56,7-.51,1.12-2.42,1.57-6.33-.89-8.81-2.2-2.22-4.87-1.55-7.27.16a.69.69,0,0,0-.66,1C342.24,416.88,342.68,417,343,417.09Zm105.68,9.8-.29.11.19.49c1.79,2.78,4.36,2,6.73,1.36A3.94,3.94,0,0,0,458,424.4c-.29-3.31,1-6.75-.74-9.93-.06-.1-.27-.21-.35-.18-2.9,1.28-7.15-1.87-9,2.87l-1.78.06c-.85-2.81-3.2-3.71-5.34-2.77-2.73,1.2-5.39.66-8.07.92-.53-.18-.82-1-1.56-.62-1.79,2.85-.53,6-.74,9a1.31,1.31,0,0,0,1.53,1.44c1-.06,1.35-.72,1.39-1.62.05-1.35,0-2.71.1-4.06a2.91,2.91,0,0,1,3.29-2.74c2.21.44,1.1,2,.42,3.41-.86,1.75-.71,3.86,1.18,4.51,2.57.87,5.42,1.46,8-.47l1.7-1.08.93,1.14c-.07.81-.13,1.61-.19,2.42ZM373,313.18c-.75,1.41-.3,2.94-.43,4.41s-.42,2.48-2,2.53-1.83-1.24-1.88-2.52c-.05-1.09,0-2.18,0-3.27s0-2-1.38-2-1.55.81-1.54,1.89c0,2.05,0,4.09,0,6.13a2.85,2.85,0,0,0,2.4,2.85c5.67,1.39,7.46,0,7.47-5.84a25.49,25.49,0,0,0,0-3.27c-.23-1.8-.44-1.84-2.64-.92ZM300.41,319c.08.67.18,1.34.21,2,.08,1.61-.15,3.49,2.13,3.6s2.47-1.74,2.29-3.37c-.24-2.16,1.67-2.08,2.58-3,7.35-3.83,10.28-9,9.65-17-.66-8.41-9.12-15.86-15.94-14-7.86,2.11-12.43,7.51-12.77,15.12C288.19,310.19,292.4,316.11,300.41,319Zm16.9,96.69c0-7.69-3.83-13.16-11-15.53-1.32-.43-2.59-.63-2.52-2.49a1.24,1.24,0,0,0-1.48-1.43,1.53,1.53,0,0,0-1.48,1.6c-.08,1.91-1.44,2.27-2.84,2.88-6.14,2.66-9.14,7.67-9.35,14.34-.21,6.84,2.76,11.84,8.68,15.29,3.17,1.84,5.35,2.87,9.33.89C312.93,428.08,317.31,423.07,317.31,415.65ZM383,421.79c1.2,1.09,0,3.7,2.28,3.48s1-2.35,1.33-3.6a4.5,4.5,0,0,0,0-1.22c-.06-1.64.22-3.19,2.22-3.07,1.84.11,1.53,1.81,1.8,3.11.35,1.65-1.14,4.71,1.48,4.64,2.91-.07.93-3.26,1.54-4.95a1.34,1.34,0,0,0,0-.4c0-2.38-.1-5.63-2.89-5.22-2.59.37-7.29-2.92-7.58,3.34-6.41-4.81-7.11-4.8-12.25.18-1-2.19-2.53-4.15-5.1-3.73-1.92.32-2.74.09-2.58-2,.07-1-.15-2-1.4-2a1.45,1.45,0,0,0-1.56,1.87c.69,3.77-2.33,3.09-3.67,2.59-3.86-1.46-3.61.89-3.56,3.38a9.14,9.14,0,0,0,0,2c.49,1.73-1.37,4.87,1.48,5,2.65.08,1.33-3,1.39-4.6.08-2.27,1.27-3.54,3.09-3.44,2.23.12.86,2.28,1.18,3.51.39,1.48-.76,4.21.91,4.32,3,.21,6.64,1.89,9-1.87.42-.66.55-1.93,2-.89C378,426.45,378.07,426.4,383,421.79ZM119.79,13.09c0,2.7,0,4.31,0,5.93,0,1.37-.22,2.94,1.81,2.87,1.88-.07,1.43-1.64,1.44-2.77,0-5,.08-10.07,0-15.11,0-1.31.73-3.16-1.64-3.44s-2.92,1.11-3.49,3c-.67,2.18-.58,4.72-2.7,6.78-.79-2.88-1.56-5.33-2.13-7.83-.41-1.78-1.56-1.93-3-1.93-1.58,0-2,.85-2,2.32q0,8.37,0,16.74c0,1.23.25,2.22,1.65,2.27s1.73-.9,1.8-2.13c.12-1.88-.32-3.86.76-6.7l3.13,9.3C117.59,19.48,117.08,16.24,119.79,13.09Zm220,304.65c-1.27-2.73-3.46-3.36-5.62-4.06-.82-.26-2.15-.22-1.86-1.56s1.48-.83,2.34-.71a13.9,13.9,0,0,1,1.88.64,1.5,1.5,0,0,0,2-.88,1.47,1.47,0,0,0-.77-2,7.48,7.48,0,0,0-7.25-.23,4,4,0,0,0-2.27,4.37c.4,2.6,2.44,3.33,4.58,3.86.39.09.78.15,1.17.25.79.22,1.64.54,1.56,1.52-.11,1.36-1.29,1.14-2.15,1.09a6.33,6.33,0,0,1-2.29-.57c-1.09-.51-2.16-.76-2.71.53-.67,1.59.68,2.14,1.73,2.65,3.59,1.71,7,.63,9.95-3.08,3.62,3.72,8.53,5.13,9.27,2.63.54-1.79,1.7-3.6,1.54-5.59a4.54,4.54,0,0,0-2-3.39C345.89,311,342.79,312.45,339.81,317.74Zm8.4-16.31c1-.37,2.47.93,3.57-.38s.2-8.6-1.34-9.56a6,6,0,0,0-5.74-.19c-1.81.76-1.51,1.8-.49,3.14.52.69-.64,1-.83,1.59-1.05,3.27-3.8.18-5.42,1.59-2,1.72-4,1.37-5.55-.65a4.26,4.26,0,0,1,.17-5.63c1.5-1.84,3.31-2.12,5.24-.6,1.15.9,2.46.93,3.13-.27.81-1.46-.78-2.12-1.67-2.73a6.42,6.42,0,0,0-2.94-1.09,7.61,7.61,0,0,0-6.09,13.05c2.59,2.45,5.64,2.58,8.88,1.11,1.09-.49,1.89-3,3.52-1C344.15,301.71,346,301.84,348.21,301.43ZM142.35,13.65l1-.23c.81,2.24,1.59,4.49,2.46,6.71a2.39,2.39,0,0,0,2.78,1.76c1.26-.21,1.31-1.17,1.31-2.14,0-5.72,0-11.43,0-17.15,0-1.32-.5-2-1.85-2s-1.72.89-1.78,2.14c-.09,1.73.33,3.57-.58,5.61-1.8-2.14-2-4.39-2.91-6.32a2.21,2.21,0,0,0-2.56-1.4c-1.21.13-1.42,1-1.42,2.06q0,8.58,0,17.15c0,1.22.37,2.21,1.77,2.16s1.78-1,1.79-2.24C142.36,17.69,142.35,15.67,142.35,13.65Zm28.57-.25c.81,2.33,1.36,3.8,1.82,5.3.52,1.65.74,3.92,3.15,3.15,2.57-.82.67-2.73.29-4-.8-2.66-1.3-4.93.42-7.62,1.39-2.18,1-5-.44-7.36-1.93-3.13-5.07-2.29-7.9-2.32-1.38,0-1.66,1.08-1.66,2.27q0,8.54,0,17.07c0,1.28.51,2.1,1.87,2,1.16-.06,1.48-.88,1.59-1.93C170.25,18.15,169.7,16.23,170.92,13.4Zm-7.63,2.48c0-.9.05-1.32,0-1.72-.18-1.35.66-3.26-1.47-3.65-1.24-.23-2.83-.73-3.73.52-1.24,1.74.4,2.42,1.42,3.47.84.88.57,2.31,0,3.45a1.33,1.33,0,0,1-1.67.75c-1.16-.4-1.46-1.5-1.62-2.57a26.91,26.91,0,0,1,0-9.72c.45-2.14,1.28-3.86,3.61-1.52.77.77,1.65,1,2.45.24,1.06-1,.24-2-.3-2.92a4.22,4.22,0,0,0-4.09-2A5.23,5.23,0,0,0,153.21,4a23.65,23.65,0,0,0-.6,12.46c.84,4.21,3.12,6.23,6.38,5.79C163,21.7,163.69,18.87,163.29,15.88Zm16.21-4.76a18.82,18.82,0,0,0,1.29,7.54c.92,2.14,2.36,3.62,4.77,3.65a5,5,0,0,0,5.09-3.75,21.38,21.38,0,0,0-.08-14.71A5.08,5.08,0,0,0,185.82.17C183.27.1,181.64,1.7,180.69,4A19,19,0,0,0,179.5,11.12Zm19.73,2.59h-.69c-.61-3.57-1.26-7.13-1.79-10.71-.24-1.58-.79-2.65-2.51-2.38-1.87.3-1.28,1.78-1.07,2.89,1,5.33,2.19,10.64,3.23,16,.29,1.49.74,2.51,2.5,2.5s2.21-1,2.5-2.51c1-5.34,2.16-10.66,3.19-16,.21-1.11.83-2.61-1-2.93-1.68-.28-2.28.76-2.52,2.36C200.52,6.54,199.84,10.12,199.23,13.71Zm-62.72,6.11C135.33,14,134.14,8.1,133,2.24c-.33-1.62-1.5-1.69-2.74-1.69s-1.79.8-2,2c-1.1,5.61-2.28,11.19-3.38,16.79-.21,1-.55,2.29,1.06,2.54,1.17.18,2.18-.15,2.36-1.53s.5-2.66,2.29-2.71,2.21,1.12,2.45,2.57a1.87,1.87,0,0,0,2.28,1.71C136.56,21.79,136.63,20.88,136.51,19.82Zm70.08-8.72h0c0,2.71,0,5.43,0,8.14-.05,1.84.58,2.83,2.49,2.75,1.45-.06,2.91,0,4.36,0,1.16,0,2.19-.25,2.1-1.76a1.56,1.56,0,0,0-1.84-1.64c-2.16.2-3.47-.26-3.48-3,0-2.57,1.2-2.93,3.19-2.81a1.63,1.63,0,0,0,1.94-1.58,1.53,1.53,0,0,0-1.66-1.81c-2.06,0-3.54-.2-3.47-3s1.74-2.51,3.47-2.53c1,0,1.87-.25,1.82-1.57A1.71,1.71,0,0,0,214.05.59c-4.85-1.64-7.46.17-7.46,5.22Zm14.47,11.25c4,0,6-2,6.33-5.44s-1.68-5.81-4.1-7.88c-1.2-1-2.66-2.12-1.92-4.06.63-1.66,2.1-1.34,3.42-1.11a1.43,1.43,0,0,0,1.84-1.08c.32-1.13-.28-1.73-1.28-2.14a5.43,5.43,0,0,0-6,.86,6,6,0,0,0-1.69,6.31c.61,2.43,2.44,3.82,4.17,5.29,1.43,1.22,2.46,2.62,1.51,4.56s-2.32,1.37-3.75.68a1.44,1.44,0,0,0-2.2,1,1.81,1.81,0,0,0,1.19,2.27A17,17,0,0,0,221.06,22.35ZM392.9,314.62c2.15.63,4.38-.32,6,.11,2.78.75,1.37,3.91,1.79,6l.09.39a2.62,2.62,0,0,0,2.23,2,2.08,2.08,0,0,0,2.21-.54c1-1.26-.26-1.8-.91-2.62-1-1.27-1.25-3.33-.27-4.16,3.5-3-.08-4.93-1.23-6-1.93-1.81-2.06,1.42-3.1,2.3s-1.65,1.68-3.06.78a5.58,5.58,0,0,0-2.67-.61c-2-.09-3.84.47-4.32,2.72-.51,2.44,1.22,3.29,3.14,3.87.78.23,1.94-.08,2,1.31-.91,1.2-1.94.47-2.91.26-.77-.17-1.73-.55-2.05.44-.39,1.19.58,1.72,1.53,1.91a12.29,12.29,0,0,0,3.51.32c1.65-.17,3.14-.86,3.3-2.88s-.91-3-2.65-3.49C394.64,316.51,393.36,316.7,392.9,314.62Zm-29.74,5.47c0-7.88,0-7.85-5.84-7.75-3.37.05-4.93,2.32-5,5.18s1.18,5.53,4.53,5.64c2,.07,3.39.13,3.31,2.66a1.33,1.33,0,0,0,1.47,1.52c1.19-.06,1.54-.86,1.54-1.94C363.16,323.63,363.16,321.86,363.16,320.09Zm-1.11-26.59c0,1.76,0,3.52,0,5.28-.07,2.22.57,3.37,3,2.63a8.75,8.75,0,0,1,2.71.2c3.43.18,4.7-1.93,4.89-5,.2-3.48-1.62-5.92-4.64-5.75-2,.11-3.36.35-3-2.37.13-1-.26-1.91-1.53-1.83s-1.44.94-1.43,2C362.06,290.25,362.05,291.87,362.05,293.5Zm62.31,25.63c.06-5.67-1.51-7.21-5.88-6.81-3.62.33-2.1,3.23-2.93,5s-1.43,3.64.37,5.12c2.19,1.8,4.89.62,7.26.66C425.22,323.11,423.93,320.39,424.36,319.13Zm38.8,102.36c1.41-.95,2.75-.59,4-.53,3.41.16,3.07-1.82,2-3.85-1.34-2.59-3.62-3.62-6.32-2.44a5.23,5.23,0,0,0-3.13,6.95c1.06,3.19,3.53,4.19,6.63,3.55,1-.2,2.44-.34,2.31-1.71-.14-1.65-1.51-1-2.49-.85S464.06,422.93,463.16,421.49ZM452,317.91c0,1.09,0,2.18,0,3.26s.35,2.25,1.75,2.13c1.24-.11,1.23-1.21,1.26-2.17,0-1.22,0-2.44.06-3.66a1.9,1.9,0,0,1,1.91-2.14c1.42-.06,1.69,1,1.75,2.18.08,1.35,0,2.71.1,4.07.06,1.1.63,1.78,1.78,1.69,1-.08,1.31-.81,1.32-1.7,0-1.89.08-3.8,0-5.69-.05-1.59-.63-3.25-2.27-3.4a38.91,38.91,0,0,0-7.22.34c-.2,0-.38,1.19-.42,1.84C451.94,315.74,452,316.83,452,317.91Zm-71,1.21c1.47-.11,2.48-.16,3.48-.26s2.58.44,3.08-1.07a3.74,3.74,0,0,0-.86-3.38c-2-2.8-4.39-2.65-6.91-1.11a5.48,5.48,0,0,0-1.49,7.49c1.38,2.22,5.4,3.25,7.42,2a1.37,1.37,0,0,0,.74-1.28c0-.87-.64-1.05-1.36-1C383.82,320.5,382.46,321.13,381,319.12ZM301.83,477v.1c2.51,0,5,0,7.54,0,1.29,0,2.46-.1,2.45-1.83,0-1.43-1-1.73-2.15-1.78a116.91,116.91,0,0,0-15.66-.08c-1.12.1-2.16.13-2.15,1.68s.84,1.89,2,1.9C296.55,477.05,299.19,477,301.83,477Zm142.75-164.7c-3.36.06-5.42,2.27-5.31,5.69a5.06,5.06,0,0,0,5.74,5.23c3.28-.22,5.06-2.14,5.18-5.47A5.23,5.23,0,0,0,444.58,312.33ZM386.4,296.27h-.06c0,1.09,0,2.18,0,3.26.06.91-.05,2,1.3,2.11,1.61.15,1.6-1,1.63-2.13s0-2.18,0-3.26c0-1.42.62-2.39,2.1-2.39s1.63,1.16,1.69,2.27,0,2.44.07,3.66c0,1,.35,1.92,1.6,1.84,1-.07,1.29-.85,1.31-1.71,0-1.76.06-3.53,0-5.29,0-1.55-.32-3.35-2-3.57a38.33,38.33,0,0,0-7.26.11c-.18,0-.37,1.2-.41,1.85C386.35,294.1,386.4,295.19,386.4,296.27Zm-1.54,0a5.5,5.5,0,1,0-11,.06c.2,3.34,2,5.18,5.33,5.29A5.22,5.22,0,0,0,384.86,296.3Zm38.72,118a5.29,5.29,0,0,0-5.22,5.74,5.42,5.42,0,0,0,5.31,5.37c3.23,0,5.41-2.24,5.4-5.59A5.22,5.22,0,0,0,423.58,414.27Zm5.23-104.87c-.75,0-1.12.46-1.51,1.07-1,1.55-.52,10.74.79,12a2.75,2.75,0,0,0,3.65.45c1.31-.94.34-1.76-.34-2.66-1.37-1.82-1.33-3.58.24-5.44C432.61,313.64,430.28,309.44,428.81,309.4Zm-21.24,8.32a11.56,11.56,0,0,0,0,2c.23,1.3-.77,3.51,1.5,3.51s1.61-2.1,1.64-3.5c0-1.93-.21-3.88,2.19-4.64a1.45,1.45,0,0,0,.9-1.65c-.11-.83-.76-.84-1.47-.94C407.56,311.82,407.56,311.8,407.57,317.72Zm-53.13-21.55v3.27c0,1.18.14,2.24,1.65,2.19s1.46-1.28,1.49-2.35c.07-2.35-.63-4.88,2.43-6.17.92-.39,1-1.78-.69-2.13C354.79,290.06,354.39,290.46,354.44,296.17Zm82.88,12.39c-4.26,4-2.57,8.44-2.95,12.37-.11,1.11.09,2.32,1.57,2.26s1.37-1.37,1.37-2.43C437.33,317,437.32,313.3,437.32,308.56ZM305.06,333c.06-1.78-.75-3-2.47-2.93s-1.93,1.54-1.95,3c0,1.72.56,3,2.46,2.84C304.85,335.8,305.08,334.45,305.06,333ZM303,341.07c-1.71.05-2.13,1.33-2.27,2.72s.35,2.71,2,2.79,2.37-1,2.28-2.55C305,342.66,304.69,341.32,303,341.07Zm.41,123.59c-.09-1.3.26-3-1.77-2.92-1.46,0-1.52,1.25-1.52,2.36,0,1.31-.29,2.91,1.76,2.88C303.34,467,303.38,465.79,303.38,464.66Zm1.72-229.95c.09-1.77-1-2-2.36-1.94s-1.95.63-1.8,2a2.23,2.23,0,0,0,2.47,2.11C304.84,237,305.14,235.92,305.1,234.71Zm-.32,21.35c-.11-1.07.13-2.51-1.68-2.46-1.5.05-1.51,1.23-1.46,2.33s-.27,2.67,1.45,2.79S304.61,257.31,304.78,256.06Zm0,22.13c-.08-1.24.1-2.67-1.74-2.55-1.61.11-1.29,1.47-1.31,2.47,0,1.19-.17,2.67,1.69,2.53C305,280.52,304.61,279.17,304.74,278.19ZM213,236.05c1,0,2.35,0,2.35-1.67S214.06,233,213,233c-1.18,0-2.55-.12-2.51,1.62C210.56,236,211.72,236.1,213,236.05Zm88.59,219.76c1.36,0,1.79-.85,1.78-2.07s.3-2.53-1.5-2.62c-1.33-.06-1.86.66-1.77,2C300.18,454.24,299.86,455.61,301.58,455.81Zm.18-210.6c0,1.13-.45,2.55,1.43,2.63s1.72-1.24,1.82-2.45.21-2.26-1.25-2.44S301.79,243.86,301.76,245.21ZM303,390.06c1.24-.3.94-1.66,1-2.82s-.4-1.92-1.6-1.79c-1.8.19-1.31,1.71-1.36,2.84S301.25,390.18,303,390.06Zm-19.79-154c1.16,0,2.55.24,2.53-1.64,0-1.65-1.29-1.44-2.3-1.46s-2.27-.31-2.29,1.39C281.08,235.78,281.89,236.22,283.16,236.05ZM303,352.41c-2.17-.07-2,1.15-2,2.24s-.22,2.66,1.64,2.59c1.34,0,1.31-1.18,1.29-2.1C303.88,354,304.33,352.52,303,352.41ZM270.83,234.28c.07,1.42.91,1.8,2.12,1.78s2.51.21,2.57-1.61c0-1.27-.86-1.54-1.85-1.5S271.21,232.6,270.83,234.28Zm-15.56.28c.13-1.66-1-1.69-2.07-1.63s-2.27-.29-2.5,1.27.71,1.86,1.93,1.83S255.15,236.47,255.27,234.56Zm49.45,32.75c0-1.25.07-2.52-1.62-2.55s-1.43,1.25-1.42,2.27-.39,2.61,1.36,2.76S304.58,268.45,304.72,267.31Zm-1,175c-.18-.76.33-2.3-1.5-2.33s-1.63,1.32-1.68,2.53,0,2.45,1.75,2.4S303.67,443.67,303.71,442.3ZM245.27,234.17c-.28-1.62-1.68-1.12-2.77-1.24s-1.79.09-1.81,1.44c0,1.92,1.3,1.7,2.46,1.71S245.29,235.85,245.27,234.17Zm20.1.2C265.26,232.7,264,233,263,233s-2.24,0-2.15,1.63,1.28,1.44,2.33,1.48S265.32,235.83,265.37,234.37Zm-40,.39c.08-1.29-.56-1.86-1.66-1.79s-2.57-.6-2.82,1.29a1.44,1.44,0,0,0,1.63,1.77C223.6,236,225,236.48,225.34,234.76Zm7.48-1.81c-.9.09-2.19-.22-2.29,1.38s.95,1.76,2.1,1.73,2.26.08,2.39-1.44S234,233,232.82,233Zm62.84,1.6c.06-1.58-1-1.66-2.09-1.6s-2.26-.34-2.43,1.24c-.16,1.37.66,1.95,1.9,1.88C294.12,236,295.53,236.41,295.66,234.55Zm8.22,131c-.16-.74.1-2.12-1.53-1.95S301.1,365,301.06,366s.09,2,1.35,2C304,368.07,303.79,366.79,303.88,365.5Zm0,11.08c-.17-.86.19-2.23-1.5-2.12s-1.32,1.41-1.33,2.43-.12,2.37,1.49,2.28S303.74,377.72,303.9,376.58Z"/><path class="b" d="M172.26,216.61a.7.7,0,0,1,.71.11c.67,2.82,3.39,1.75,4.9,2.17,4.07,1.14,7.33,4.49,11.78,4.34l0,0c1.39,1.44,2.44,3.43,4.89,3.12h0a2.18,2.18,0,0,0,2.29,1.76h0c.23,1.67,1.68,2.35,2.66,3.38,1.78,1.88,4.18,3.35,5.41,5.54,4.21,7.45,10.26,12,18.41,13.78l-.06,0c1.53,2.36,3.78,4,5.76,5.85,1.57,1.49,1.63,2.49-.9,2.44A31.25,31.25,0,0,0,216,252.27c1.25,5,2.49,9.47,3.44,14,.33,1.6,2,4.23-.42,4.8s-3.15-2-3.58-4.36c-2.3-12.62-9-22.52-18.47-30.57-.12-1,.25-2.33-.93-2.88Q189,230,182,226.9a2.38,2.38,0,0,0-2.27,3.89c1.46,1.29,2.35,3.28,4.39,3.88l0,0c.17,4.49,3,9.61,12.34,22.16-3.7,0-5,1.83-3.54,5.45a11.4,11.4,0,0,1,.13,8.24c-1.66-1.9-.07-4.67-2.46-5.7v0a23.66,23.66,0,0,0-4.81-15.47.32.32,0,0,1-.22-.41,11.41,11.41,0,0,0-4.64-8.55l0,0c.18-2.32-1.25-3.4-3.07-4.18-4.28-4.2-8.22-8.82-13.89-11.36-.68,1.44.49,2.12.94,3,7.76,14.09,10.82,29.46,11.88,45.38.08,1.12.53,2.76-1.21,3-2.08.23-1.66-1.71-1.85-2.91-1.93-12.6-5.22-24.76-11.44-35.91-1.58-2.82-3.51-5.44-5.25-8.17-1.2-1.89-2.32-1.73-3.75-.18-3.79,4.1-6.45,9-9.09,13.84-.11.07-.31.16-.3.2a5.11,5.11,0,0,0,.22.62l.08.27,7.89,11.2.11.11c-.12,1.3.49,3-1.62,3.21l0,0c.19-2.52-1.49-3.75-3.22-4.95l0,.05c.06-2.68-1.41-3.89-3.82-4.2-2-.26-3.52.65-3.89,2.63-1.12,6-3.84,11.68-3.43,18,0,.7.22,1.76-1.25,1.69-1.14-7.19.83-14,2.27-20.91,1-4.68,3.8-8.78,3.8-13.72v0a2.72,2.72,0,0,0,1.75-2.49c.14-1,2.29-2,.54-3-1.18-.62-3.21-1-3.85,1.34a.45.45,0,0,1-.52.19c-3.86-.76-5.74,1.83-7.48,4.65a83.86,83.86,0,0,0-11.22,11.54c-2.07,1-.55,1.68.15,2.46l1.59,2.45c0,1.56,1.44,2.2,2.08,3.34l.18.17c-.57,1.44,1.46,2.78,0,4.74-.88-1.44-.65-3.69-2.81-3.39-1.34-1.42-1.65-4.54-3.51-4.44-2.29.12-2.23,3.29-3.14,5.13a45.53,45.53,0,0,0-3.25,10.86c-.29,1.42-.19,3.27-2.39,2.9s-1.43-2.3-1.23-3.58c2.51-16.47,10-29.83,23.57-39.34a17.77,17.77,0,0,0,1.75-1.62c2.45.15,3.81-1.79,6.64-3.09-3.83-.48-6.26.25-8.47,1.94-16.78,4.73-27.54,15.84-32.75,32.73a62.06,62.06,0,0,0-1.84,8.32c-.32,2-1.33,2.35-3,2.2-1.93-.17-2.47-1.26-2.22-3,.23-1.61.44-3.22.72-4.82.77-4.37.56-4.57-3.56-3.58-.62.15-1.26.2-1.89.3-.84-4.58,3.19-3,5-3.93,1.16-.61,3.18,0,3.76-1.59,1.58-4.31,4.53-8,5.5-12.55l0,0a4.57,4.57,0,0,0,2.13-1.59c4.92-6.74,11.4-11.63,18.27-16.09,3.25-2.1,7.22-2.83,10-5.75a28.57,28.57,0,0,1,5.15-1.78c4.29-.64,5.94-3.34,6.15-7.41.87-3.46.93-7.11,2.33-10.45A70.6,70.6,0,0,1,162.27,175c3.4-3.13,3.27-3.32-1-5.27-4.6-2.13-9.15-4.35-13.74-6.51-2.21-1-4.15-1.7-4,2.18.08,2.1-5,5.66-8,6.08-3.37.49-6.66.78-9.65-1.42-1.84-1.35-3.45,1.63-5.57.11-4.19-3-9.87-2.82-13.82-6.49-1.42-1.31-2.66,1-4.08.17-3.62-2-8.12-1.52-11.54-3.28-4.2-2.17-9-3.45-12.39-7.61C77,151,74,150.28,73.15,147.27c-2.58-8.78-2.48-16.73,5.08-23.31,2.41-2.1,3.72-5.36,6.62-7.26,1.53-1,.37-3-.87-3.67-2.59-1.51-3.41-4-4-6.61a7.77,7.77,0,0,0-2.67-4.32c-4-3.33-4.35-7.64-.35-11.26,4.32-3.92,8.82-7.66,13.38-11.28,3.38-2.68,6-5.49,4.29-10.29-.79-2.18-.51-4.5-1-6.75-.62-2.81,1.5-5.12,3.57-6.38a120.28,120.28,0,0,1,15.68-7.66c3.22-1.38,6.47-2.87,8.39-6.66,3.1-6.07,14.7-9.95,20.91-7.73a5.46,5.46,0,0,1,3.23,3.71c.76,4.26,4.68,6.63,5.41,11,.47,2.86,4.24,3.12,6.32,3.27s3.75,1,5.74,1.08c4.85.25,6.66-.57,7.69-5.06C171.6,43.4,177.16,40,181.94,40c8.41,0,15.33,4.39,22.73,7.39,1.12.45,1.48,1.53,2,2.45,1.64,2.92,2.16,6.43,5.1,8.69,1.15.9.91,3.14,1.32,4.66,1.59,5.84,8.43,10.51,14.48,11.75,6.3,1.3,13.49.87,18.28,7.07.73.94,2.87,1.85,4.73,2.27,4.31,1,8.69,9,8,13.5-.5,3.11,1.32,6.34-.36,9.49-.29.55.57,1.08,1.17,1.42,1.32.74,2.09,1.15,1.27,3.33-.54,1.43,2.08,3.29,4.17,3.5,3.3.32,5.3,1.43,6,5.26.28,1.57,1.65,3.54,2.53,5,3.1,5.24-.1,10.27-2.43,12.06-3.3,2.54-3.28,7.09-6.13,8.47-3.1,1.5-4.45,5.11-7.91,5.72-.51.09-1.39.32-1.41.56-.23,2.39-2.45,3.25-3.35,4.71-1.56,2.52-5.1,1.54-5.81,4.51l-7,4.65a90,90,0,0,1-9.05,2.42,26.16,26.16,0,0,1-18.67-3.5c-5.16-3.11-7.91-.55-11.46.86a152.16,152.16,0,0,1-19.67,6.54c-1.45.36-2.71.69-3.55,2.21-3.35,6-7.67,11.45-10.45,17.82-1.88,2.72-2.18,6-2.92,9.09,0,2.14,0,4.29,0,6.43C163.34,215.82,164.47,216.88,172.26,216.61Zm21.31-71.19.89-.79h0c3.59.24,4.13-4.3,7.23-4.84l.05,1.67-7.16,8.17c-4.23,1.21-6.39,4.8-8.84,8.06-2.11,1.62-3,3.93-3.87,6.42-1,2.82.3,2.75,2.2,2.31,5.82-1.36,11.47-3.28,17.17-5.07,3.42-1.07,4-3.13,3.48-6.2-.35-2,2.62-5.21,4.51-5.56a10.46,10.46,0,0,0,5.1-2.31c1.05-1-.93-4.23,2.79-3.92,1.35.11,2.24-3.06,4.55-1.62.21.13,1.09-.35,1.25-.73,2.58-6.24,5.55-12.41,3.75-19.53-.58-2.28-3-2.8-4.29-4.52-.34-.47-.87,1.07-1.4,1.6-2.77.58-1.56,2.72-1.62,4.36a.34.34,0,0,1-.12.51c-3.06,2.4-1.62,5.86-1.45,8.68.22,3.68-1.9,5.72-4.1,7.2a10.28,10.28,0,0,1-6.29,2.05l-.06-.13c-1.35-2.65-3.54-1.9-5.65-1.45.05-2.58-.85-4.58-3.26-5.67-2.63-1-3.33-3.07-3.16-5.69-.11-1.3.66-3-1.42-3.42l-.06-.06-.18-1.63,0,0c2.14,0,1.45-1.75,1.75-3,1.23-5-1.55-9.57-1.42-14.55.07-2.25-2.67-5.5-5.73-5-2.66.47-5.4.55-8,1.31h0c-2.41-4-3.68-.47-4.94.66-2.81-3.94-6.84-6.19-10.57-8.79-.31-.21-1,.14-1.5.23-1.81,1.4-4.11.51-6,1.38-1.76-.84-2.58-1.06-2.12,1.67.72,4.28-.51,8.72.49,13,.35,1.53-2.65,2.49-.54,4.16l-.34,1.59c-.25,2.21.72,3.24,2.84,2.24a11.94,11.94,0,0,1,11.4.23l.91.93c.15.89,0,2,1.27,2.12a1.7,1.7,0,0,0,1.82-1.71c.13-1.28.53-2.85-1.58-2.89h0c.11-1.18-.42-1.71-1.55-1.64h-.08c.61-2.26,3.76-2,4.25-4.71.11-.61,1.67.45,1.3,1.5-1.47,4.15,1.6,7.45,1.83,11.26.16,2.26.32,5.67,2.1,5.95,2.38.38,3.34-2.87,4.44-5,.06-.12.19-.19.29-.28,1.72.12,1.76-2.44,3.49-2.3l.14,2.58,0-.05c-1.79,1.15-3.37,2.44-3.32,4.89l-.3.72c-1.62,1-3.3,1.9-2.71,4.33l0,0c-2.38.81-2.09,1.89-.3,3.12l0,0c-.77,5,1.44,9.51,1.81,14.34.18,2.33,1.78,2.48,2.95.2l0,0,.9-.72h0c1.17,0,2.26,0,2.38-1.62l3.66-3.46a.91.91,0,0,0,1-.8Zm-18.84,4.16a5.59,5.59,0,0,0,0-.82c-.22-1.68.67-3.91-1.15-4.86-2-1.05-2,1.46-2.88,2.38-.21.22-.75,0-1.11.16-3.91,1.29-7.82,2.65-12,2.62a24.43,24.43,0,0,1-12.37-3.63C141.32,143,139,137.89,136,134c2.45-2.35-2.14-2.74-1.25-4.85.66-1.6-.16-3.68-1.53-4a4.46,4.46,0,0,0-5.13,2.16c-.91,1.63-.38,7.77,1.14,9,2.24,1.87,4.16,4,7,5.32,5.21,2.36,7.85,7.54,8.53,12.81.3,2.26.77,2.8,2.24,3.42,6.51,2.73,13.07,5.32,19.53,8.17,2.43,1.07,3.65.29,4.73-1.87A35.57,35.57,0,0,0,174.73,149.58Z"/><path class="c" d="M145.21,198.88c-1.4,3.34-1.46,7-2.33,10.45a4.18,4.18,0,0,0-3.07-4.54,23.12,23.12,0,0,1-5-2.55,4.89,4.89,0,0,0-5.91.07c-9.22,6.17-18.45,5.72-27.61-.09-2.08-1.31-3.82-1.12-5.87.18-8.54,5.44-17.24,5.52-25.78,0-2.31-1.48-4.17-1.14-6.23.13-8.21,5.09-16.5,5.31-24.78.24-2.62-1.61-4.77-1.88-7.61,0-10.12,6.65-19.91,4.35-29.39-1.84a3.4,3.4,0,0,1-1.2-4.64c1-1.89,2.46-.43,3.65.38,9.07,6.17,18.21,6.75,27.33.17,2.26-1.63,4.09-1.64,6.47-.06,8.61,5.7,17.35,6.27,25.91-.18,2.07-1.56,3.72-1.31,5.74.09,8.76,6,17.58,6.08,26.26-.2,1.94-1.4,3.47-1.2,5.43,0a50.71,50.71,0,0,0,7.83,3.93c7.32,3,13.46-.11,19.47-3.63,2.53-1.49,4.51-1.71,6.88.14a39.18,39.18,0,0,0,4.91,2.66C142.18,200.68,143.83,200.72,145.21,198.88Z"/><path class="c" d="M163.47,201.91c.74-3.11,1-6.37,2.92-9.09a4.9,4.9,0,0,0,2.47,4.29c8.36,5.35,16.68,5.75,24.89-.09,2.59-1.85,4.61-1.78,7.13.07,7.32,5.37,15.06,5.56,22.68.86,3.78-2.33,6.89-2.92,10.75-.07,7.55,5.57,15.33,4.82,23,0,2.7-1.71,5.3-3.24,8.68-.86,8.8,6.19,17.81,6.27,26.62-.09,2.32-1.68,4.24-1.5,6.53-.07a60.59,60.59,0,0,0,6.79,3.4c1.09.51,3.28,0,2.8,2a3.52,3.52,0,0,1-4.24,2.85,14,14,0,0,1-5-2.34c-2.54-1.94-4.84-1.69-7.3-.07-8.4,5.53-16.94,5.7-25.42.33-3.09-2-5.63-1.82-8.77.07-8,4.81-16.3,5.59-24.38.14-3.34-2.25-6.06-2-9.43.1-7.74,4.77-15.72,4.37-23.33-.39-2.61-1.63-4.49-1.83-7.18-.11-8.34,5.33-16.82,4.61-25.17-.21C166.92,201.6,165.37,200.37,163.47,201.91Z"/><path class="d" d="M317.31,415.65c0,7.42-4.38,12.43-10.67,15.55-4,2-6.16.95-9.33-.89-5.92-3.45-8.89-8.45-8.68-15.29.21-6.67,3.21-11.68,9.35-14.34,1.4-.61,2.76-1,2.84-2.88a1.53,1.53,0,0,1,1.48-1.6,1.24,1.24,0,0,1,1.48,1.43c-.07,1.86,1.2,2.06,2.52,2.49C313.48,402.49,317.32,408,317.31,415.65Zm-14.17,9.41c1.53-.15,1.47-1.35,1.37-2.41-.32-3.57-.21-6.67,4.72-5.69a1.27,1.27,0,0,0,1.61-1.32c0-1.09-.44-2.06-1.57-1.85-4.9.93-5.09-2.08-4.74-5.7.11-1.13,0-2.26-1.6-2.12-1.43.12-1.68,1.15-1.57,2.31.31,3.47,0,6.29-4.58,5.52-1.06-.18-1.7.54-1.7,1.73,0,1,.62,1.62,1.48,1.44,4.84-1,5.1,2,4.8,5.63C301.26,423.84,301.37,425.15,303.14,425.06Z"/><path class="d" d="M300.41,319c-8-2.85-12.22-8.77-11.85-16.72.34-7.61,4.91-13,12.77-15.12,6.82-1.83,15.28,5.62,15.94,14,.63,8-2.3,13.19-9.65,17Zm2.86-25.45c-2.39.07-2,1.92-1.89,3.27.3,3.18-.49,5-4.05,4.49-1-.15-2.25,0-2.28,1.55s1.15,2,2.43,1.84c3.35-.53,4.12,1.16,3.92,4.21-.08,1.37-1,3.74,1.65,3.72,2.37,0,1.52-2.23,1.43-3.46-.23-3.14.42-5.05,4-4.49,1.26.19,2.44-.1,2.34-1.88-.09-1.59-1.28-1.68-2.3-1.52-3.57.58-4.34-1.26-4.06-4.43C304.59,295.65,305.2,294,303.27,293.51Z"/><path class="e" d="M383,421.79c-4.93,4.61-5,4.66-10.88.34-1.42-1-1.55.23-2,.89-2.34,3.76-6,2.08-9,1.87-1.67-.11-.52-2.84-.91-4.32-.32-1.23,1.05-3.39-1.18-3.51-1.82-.1-3,1.17-3.09,3.44-.06,1.63,1.26,4.68-1.39,4.6-2.85-.09-1-3.23-1.48-5a9.14,9.14,0,0,1,0-2c0-2.49-.3-4.84,3.56-3.38,1.34.5,4.36,1.18,3.67-2.59a1.45,1.45,0,0,1,1.56-1.87c1.25.05,1.47,1.05,1.4,2-.16,2.13.66,2.36,2.58,2,2.57-.42,4.05,1.54,5.1,3.73,5.14-5,5.84-5,12.25-.18.29-6.26,5-3,7.58-3.34,2.79-.41,2.9,2.84,2.89,5.22a1.34,1.34,0,0,1,0,.4c-.61,1.69,1.37,4.88-1.54,4.95-2.62.07-1.13-3-1.48-4.64-.27-1.3,0-3-1.8-3.11-2-.12-2.28,1.43-2.22,3.07a4.5,4.5,0,0,1,0,1.22c-.35,1.25,1,3.37-1.33,3.6S384.2,422.88,383,421.79Zm-5.91-4.68c-1.66.1-2.22,1.28-2.29,2.74a2.28,2.28,0,0,0,2.36,2.65c1.7.05,2.29-1.22,2.27-2.69S378.83,417.16,377.09,417.11Zm-9.49,2.62c-.1-1.53-.66-2.7-2.38-2.58-1.48.11-1.93,1.19-1.92,2.58s.33,2.82,2.11,2.8S367.57,421.25,367.6,419.73Z"/><path class="d" d="M119.79,13.09c-2.71,3.15-2.2,6.39-4.37,9.28l-3.13-9.3c-1.08,2.84-.64,4.82-.76,6.7-.07,1.23-.41,2.19-1.8,2.13s-1.66-1-1.65-2.27q0-8.37,0-16.74c0-1.47.44-2.33,2-2.32,1.43,0,2.58.15,3,1.93.57,2.5,1.34,5,2.13,7.83,2.12-2.06,2-4.6,2.7-6.78.57-1.87,1.23-3.25,3.49-3S123,2.7,123,4c.07,5,0,10.08,0,15.11,0,1.13.44,2.7-1.44,2.77-2,.07-1.81-1.5-1.81-2.87C119.79,17.4,119.79,15.79,119.79,13.09Z"/><path class="e" d="M339.81,317.74c3-5.29,6.08-6.7,9.07-4.56a4.54,4.54,0,0,1,2,3.39c.16,2-1,3.8-1.54,5.59-.74,2.5-5.65,1.09-9.27-2.63-2.94,3.71-6.36,4.79-9.95,3.08-1.05-.51-2.4-1.06-1.73-2.65.55-1.29,1.62-1,2.71-.53a6.33,6.33,0,0,0,2.29.57c.86.05,2,.27,2.15-1.09.08-1-.77-1.3-1.56-1.52-.39-.1-.78-.16-1.17-.25-2.14-.53-4.18-1.26-4.58-3.86a4,4,0,0,1,2.27-4.37,7.48,7.48,0,0,1,7.25.23,1.47,1.47,0,0,1,.77,2,1.5,1.5,0,0,1-2,.88,13.9,13.9,0,0,0-1.88-.64c-.86-.12-2.07-.55-2.34.71s1,1.3,1.86,1.56C336.35,314.38,338.54,315,339.81,317.74Zm4.85,2.15c1.66.92,2.78,1.11,3.77-.88C347.07,319,346,318.39,344.66,319.89Z"/><path class="e" d="M342.84,415.7c2.4-1.71,5.07-2.38,7.27-.16,2.46,2.48,2,6.39.89,8.81-1,2.07-5.57,1.74-7,.51-2.8-2.48-4.9-.67-7.15-.09-3.65,1-6.38,0-8.14-3.49a8,8,0,0,1,2-9.55c2.67-2,7.11-2,9.26.08.61.59,1.75,1.28.86,2.32s-2,.91-3.18,0a3.57,3.57,0,0,0-4.76.21,4.17,4.17,0,0,0-1.36,4.05c.28,1.94,1.54,3.83,3.24,3.53,2.71-.48,5.83-.19,8-2.55,1.56-1.23,3.83,0,5.63-1.43-1.77-1.92-3.4-1-5-.58a1.35,1.35,0,0,1-.53-.31C342.91,416.63,342.88,416.16,342.84,415.7Z"/><path class="e" d="M348.21,301.43c-2.24.41-4.06.28-5.56-1.6-1.63-2.05-2.43.49-3.52,1-3.24,1.47-6.29,1.34-8.88-1.11a7.61,7.61,0,0,1,6.09-13.05,6.42,6.42,0,0,1,2.94,1.09c.89.61,2.48,1.27,1.67,2.73-.67,1.2-2,1.17-3.13.27-1.93-1.52-3.74-1.24-5.24.6a4.26,4.26,0,0,0-.17,5.63c1.54,2,3.58,2.37,5.55.65,1.62-1.41,4.37,1.68,5.42-1.59.19-.57,1.35-.9.83-1.59-1-1.34-1.32-2.38.49-3.14a6,6,0,0,1,5.74.19c1.54,1,2.51,8.17,1.34,9.56S349.25,301.06,348.21,301.43Zm-1-4.64c-1,.08-1.94.36-1.82,1.59s1.13,1.38,2,1.41a1.42,1.42,0,0,0,1.58-1.4C349.05,297.18,348.14,296.9,347.2,296.79Zm0-3.42c-.73.16-1.37.29-1,1,.17.34.81.51,1.27.58s1.07-.23.77-.87C348,293.68,347.42,293.53,347.17,293.37Z"/><path class="e" d="M142.35,13.65c0,2,0,4,0,6.06,0,1.23-.45,2.18-1.79,2.24s-1.77-.94-1.77-2.16q0-8.58,0-17.15c0-1,.21-1.93,1.42-2.06A2.21,2.21,0,0,1,142.78,2c.89,1.93,1.11,4.18,2.91,6.32.91-2,.49-3.88.58-5.61.06-1.25.37-2.14,1.78-2.14s1.86.73,1.85,2.05c0,5.72,0,11.43,0,17.15,0,1,0,1.93-1.31,2.14a2.39,2.39,0,0,1-2.78-1.76c-.87-2.22-1.65-4.47-2.46-6.71Z"/><path class="e" d="M170.92,13.4c-1.22,2.83-.67,4.75-.85,6.61-.11,1-.43,1.87-1.59,1.93-1.36.08-1.87-.74-1.87-2q0-8.54,0-17.07c0-1.19.28-2.28,1.66-2.27,2.83,0,6-.81,7.9,2.32,1.45,2.34,1.83,5.18.44,7.36-1.72,2.69-1.22,5-.42,7.62.38,1.24,2.28,3.15-.29,4-2.41.77-2.63-1.5-3.15-3.15C172.28,17.2,171.73,15.73,170.92,13.4Zm-1-6.37c.37,1.2-.81,3.37,1.6,3.35,1.88,0,2.16-1.76,2.12-3.3s-.32-3.22-2.24-3.2C169.27,3.91,170.19,5.81,169.93,7Z"/><path class="e" d="M163.29,15.88c.4,3-.27,5.82-4.3,6.37-3.26.44-5.54-1.58-6.38-5.79A23.65,23.65,0,0,1,153.21,4,5.23,5.23,0,0,1,157.92.2a4.22,4.22,0,0,1,4.09,2c.54.87,1.36,1.91.3,2.92-.8.76-1.68.53-2.45-.24-2.33-2.34-3.16-.62-3.61,1.52a26.91,26.91,0,0,0,0,9.72c.16,1.07.46,2.17,1.62,2.57a1.33,1.33,0,0,0,1.67-.75c.57-1.14.84-2.57,0-3.45-1-1.05-2.66-1.73-1.42-3.47.9-1.25,2.49-.75,3.73-.52,2.13.39,1.29,2.3,1.47,3.65C163.34,14.56,163.29,15,163.29,15.88Z"/><path class="e" d="M179.51,11.12A18.77,18.77,0,0,1,180.69,4c.95-2.25,2.58-3.85,5.13-3.78a5.08,5.08,0,0,1,4.75,3.68,21.38,21.38,0,0,1,.08,14.71,5,5,0,0,1-5.09,3.75c-2.41,0-3.85-1.51-4.77-3.65A18.64,18.64,0,0,1,179.51,11.12Zm3.59.31c.21,1.7.34,3.6.7,5.44a2,2,0,0,0,1.83,1.86c1.16.06,1.61-.85,1.87-1.77a21.82,21.82,0,0,0,.13-11.23c-.25-1.05-.72-2.2-2.06-2.07S183.89,4.94,183.7,6C183.4,7.72,183.31,9.48,183.1,11.43Z"/><path class="e" d="M199.23,13.71c.61-3.59,1.29-7.17,1.82-10.78.24-1.6.84-2.64,2.52-2.36,1.85.32,1.23,1.82,1,2.93-1,5.33-2.16,10.65-3.19,16-.29,1.5-.77,2.49-2.5,2.51s-2.21-1-2.5-2.5c-1-5.34-2.19-10.65-3.23-16-.21-1.11-.8-2.59,1.07-2.89,1.72-.27,2.27.8,2.51,2.38.53,3.58,1.18,7.14,1.79,10.71Z"/><path class="e" d="M190.57,264.86c2.39,1,.8,3.8,2.46,5.7a11.4,11.4,0,0,0-.13-8.24c-1.46-3.62-.16-5.46,3.54-5.45-9.32-12.55-12.17-17.67-12.34-22.16,3.58,3.85,5,8.85,6.58,13.67.88,2.59,2,4.36,4.59,5.6,6.35,3.08,10,8.59,12.12,15.35.32,1,.78,2.35-.48,2.87-1.51.61-1.58-1.05-2-1.92-1.7-3.89-3.75-7.5-7.09-10.15-1.14-.9-2.23-1.94-4.15-1.76.44,3.49.9,6.94,1.29,10.4.16,1.49.43,3.11-1.84,3.24-2,.1-2-1.37-2.11-2.72S190.73,266.34,190.57,264.86Z"/><path class="e" d="M136.51,19.82c.12,1.06.05,2-1.24,2.12A1.87,1.87,0,0,1,133,20.23c-.24-1.45-.66-2.62-2.45-2.57s-2.09,1.25-2.29,2.71-1.19,1.71-2.36,1.53c-1.61-.25-1.27-1.5-1.06-2.54,1.1-5.6,2.28-11.18,3.38-16.79.24-1.22.72-2,2-2s2.41.07,2.74,1.69C134.14,8.1,135.33,14,136.51,19.82ZM130.23,6c-.41,2.52-.8,4.61-1.07,6.72-.14,1.07.28,1.87,1.5,1.89s1.85-.7,1.55-1.78C131.63,10.68,132.08,8.22,130.23,6Z"/><path class="e" d="M206.59,11.1V5.81c0-5,2.61-6.86,7.46-5.22a1.71,1.71,0,0,1,1.43,1.67c.05,1.32-.81,1.56-1.82,1.57-1.73,0-3.4-.28-3.47,2.53s1.41,3.05,3.47,3a1.53,1.53,0,0,1,1.66,1.81,1.63,1.63,0,0,1-1.94,1.58c-2-.12-3.19.24-3.19,2.81,0,2.73,1.32,3.19,3.48,3a1.56,1.56,0,0,1,1.84,1.64c.09,1.51-.94,1.75-2.1,1.76-1.45,0-2.91,0-4.36,0-1.91.08-2.54-.91-2.49-2.75.07-2.71,0-5.43,0-8.14Z"/><path class="e" d="M221.06,22.35a17,17,0,0,1-2.46-.76,1.81,1.81,0,0,1-1.19-2.27,1.44,1.44,0,0,1,2.2-1c1.43.69,2.87,1.13,3.75-.68s-.08-3.34-1.51-4.56c-1.73-1.47-3.56-2.86-4.17-5.29a6,6,0,0,1,1.69-6.31,5.43,5.43,0,0,1,6-.86c1,.41,1.6,1,1.28,2.14a1.43,1.43,0,0,1-1.84,1.08c-1.32-.23-2.79-.55-3.42,1.11-.74,1.94.72,3,1.92,4.06,2.42,2.07,4.45,4.27,4.1,7.88S225,22.36,221.06,22.35Z"/><path class="e" d="M392.9,314.62c.46,2.08,1.74,1.89,2.67,2.17,1.74.53,2.82,1.54,2.65,3.49s-1.65,2.71-3.3,2.88a12.29,12.29,0,0,1-3.51-.32c-1-.19-1.92-.72-1.53-1.91.32-1,1.28-.61,2.05-.44,1,.21,2,.94,2.91-.26-.1-1.39-1.26-1.08-2-1.31-1.92-.58-3.65-1.43-3.14-3.87.48-2.25,2.32-2.81,4.32-2.72a5.58,5.58,0,0,1,2.67.61c1.41.9,2.12,0,3.06-.78s1.17-4.11,3.1-2.3c1.15,1.09,4.73,3.05,1.23,6-1,.83-.74,2.89.27,4.16.65.82,1.89,1.36.91,2.62a2.08,2.08,0,0,1-2.21.54,2.62,2.62,0,0,1-2.23-2l-.09-.39c-.42-2.14,1-5.3-1.79-6C397.28,314.3,395.05,315.25,392.9,314.62Z"/><path class="e" d="M446.32,424.19c-2.54,1.94-5.39,1.35-8,.48-1.89-.65-2-2.76-1.18-4.51.68-1.39,1.79-3-.42-3.41a2.91,2.91,0,0,0-3.29,2.74c-.11,1.35-.05,2.71-.1,4.06,0,.9-.43,1.56-1.39,1.62a1.31,1.31,0,0,1-1.53-1.44c.21-3-1.05-6.13.74-9,.2,3-.48,6.14.39,9.08l1.17-.07v-8.39c2.68-.26,5.34.28,8.07-.92,2.14-.94,4.49,0,5.34,2.77C446.21,419.55,446.27,421.87,446.32,424.19Z"/><path class="e" d="M447.94,417.16c1.85-4.74,6.1-1.59,9-2.87.08,0,.29.08.35.18,1.73,3.18.45,6.62.74,9.93a3.94,3.94,0,0,1-2.77,4.45c-2.37.68-4.94,1.42-6.73-1.35a.59.59,0,0,0,.1-.61l.13-.21c1.29.1,2.58.3,3.87.29,1.07,0,2.37-.4,2.19-1.69-.23-1.56-1.41-.39-2.17-.34-1.3.09-2.59.24-3.7-.68l-.93-1.14C448,421.13,448,419.15,447.94,417.16Zm4.94,5.4c1.88-.08,2.21-1.29,2.19-2.77s-.55-2.72-2.26-2.6a2.36,2.36,0,0,0-2.27,2.73A2.52,2.52,0,0,0,452.88,422.56Z"/><path class="e" d="M141.07,237c0,4.94-2.83,9-3.8,13.72-1.44,6.91-3.41,13.72-2.27,20.91,1.47.07,1.29-1,1.25-1.69-.41-6.31,2.31-12,3.43-18,.37-2,1.87-2.89,3.89-2.63,2.41.31,3.88,1.52,3.82,4.2-5.75-4.35-5.74-4.35-7.68,3A98,98,0,0,0,137,271.4c-.16,1.46-.16,3.25-2.35,3-2-.26-1.45-1.85-1.41-3.17a100.41,100.41,0,0,1,5.22-28.76C139.08,240.53,139.57,238.52,141.07,237Z"/><path class="e" d="M363.16,320.09c0,1.77,0,3.54,0,5.31,0,1.08-.35,1.88-1.54,1.94a1.33,1.33,0,0,1-1.47-1.52c.08-2.53-1.34-2.59-3.31-2.66-3.35-.11-4.61-2.85-4.53-5.64s1.63-5.13,5-5.18C363.21,312.24,363.2,312.21,363.16,320.09Zm-5.23-5a2.48,2.48,0,0,0-2.23,2.74c0,1.46.69,2.61,2.33,2.64s2.12-1.15,2.14-2.66S359.62,315.2,357.93,315.05Z"/><path class="e" d="M362.05,293.5c0-1.63,0-3.25,0-4.87,0-1.05.2-1.92,1.43-2s1.66.81,1.53,1.83c-.34,2.72,1.05,2.48,3,2.37,3-.17,4.84,2.27,4.64,5.75-.19,3.09-1.46,5.2-4.89,5a8.75,8.75,0,0,0-2.71-.2c-2.46.74-3.1-.41-3-2.63C362.09,297,362.05,295.26,362.05,293.5Zm5.08,0c-1.79.14-2.05,1.36-2.09,2.83-.05,1.65.64,2.63,2.25,2.56s2.29-1.23,2.23-2.75A2.53,2.53,0,0,0,367.13,293.52Z"/><path class="e" d="M401.67,424.4c-1.32-.47-2.17-1.31-1.34-2.73.64-1.09,1.61-.36,2.43,0,.6.26,1.18.56,1.79.77,1.17.41,2.29.1,2.58-1.11s-1.18-1.61-1.82-1.66c-2.33-.21-4.16-1.2-5-3.36a4,4,0,0,1,1.55-5,.69.69,0,0,0,.65-.36,3.47,3.47,0,0,1,.46-.25l5.38,0a2.58,2.58,0,0,1,.44.22l.72.33.14.08c1.19,4.56-1.72,1.75-3,1.69s-2.67-.33-3.08,1c-.51,1.7,1.2,1.81,2.23,2.09,3.1.87,5.9,1.9,5.21,6.12a1.76,1.76,0,0,1-.17.37l-1.27,1.61-.06,0-.78.4-.35.17-5.62.06-.24-.13Z"/><path class="e" d="M424.36,319.13c-.43,1.26.86,4-1.18,3.95-2.37,0-5.07,1.14-7.26-.66-1.8-1.48-1.26-3.25-.37-5.12s-.69-4.65,2.93-5C422.85,311.92,424.42,313.46,424.36,319.13ZM419.5,315l-.93.72a4.09,4.09,0,0,0,1.12.7c.24.05.57-.3.86-.47Z"/><path class="e" d="M101.2,241.91c-1,4.57-3.92,8.24-5.5,12.55-.58,1.57-2.6,1-3.76,1.59-1.84.95-5.87-.65-5,3.93a26,26,0,0,0-9.36,11.17c-.35.81-.62,2.08-1.88,1.43-.86-.43-.54-1.4-.27-2.18,2.7-7.77,7.3-13.61,15.59-15.2a5.6,5.6,0,0,0,4.83-4C97.11,247.88,98.44,244.42,101.2,241.91Z"/><path class="e" d="M463.16,421.49c.9,1.44,1.95,1.28,3,1.12s2.35-.8,2.49.85c.13,1.37-1.33,1.51-2.31,1.71-3.1.64-5.57-.36-6.63-3.55a5.23,5.23,0,0,1,3.13-6.95c2.7-1.18,5-.15,6.32,2.44,1.05,2,1.39,4-2,3.85C465.91,420.9,464.57,420.54,463.16,421.49Z"/><path class="e" d="M452,317.91c0-1.08-.05-2.17,0-3.25,0-.65.22-1.82.42-1.84a38.91,38.91,0,0,1,7.22-.34c1.64.15,2.22,1.81,2.27,3.4.07,1.89,0,3.8,0,5.69,0,.89-.34,1.62-1.32,1.7-1.15.09-1.72-.59-1.78-1.69-.07-1.36,0-2.72-.1-4.07-.06-1.14-.33-2.24-1.75-2.18a1.9,1.9,0,0,0-1.91,2.14c0,1.22,0,2.44-.06,3.66,0,1,0,2.06-1.26,2.17-1.4.12-1.75-.9-1.75-2.13S452,319,452,317.91Z"/><path class="e" d="M381,319.12c1.49,2,2.85,1.38,4.1,1.35.72,0,1.33.16,1.36,1a1.37,1.37,0,0,1-.74,1.28c-2,1.26-6,.23-7.42-2a5.48,5.48,0,0,1,1.49-7.49c2.52-1.54,4.95-1.69,6.91,1.11a3.74,3.74,0,0,1,.86,3.38c-.5,1.51-2,1-3.08,1.07S382.44,319,381,319.12Z"/><path class="e" d="M301.83,477c-2.64,0-5.28,0-7.93,0-1.2,0-2-.48-2-1.9s1-1.58,2.15-1.68a116.91,116.91,0,0,1,15.66.08c1.18.05,2.13.35,2.15,1.78,0,1.73-1.16,1.85-2.45,1.83-2.51,0-5,0-7.54,0Z"/><path class="e" d="M444.58,312.33a5.23,5.23,0,0,1,5.61,5.45c-.12,3.33-1.9,5.25-5.18,5.47a5.06,5.06,0,0,1-5.74-5.23C439.16,314.6,441.22,312.39,444.58,312.33Zm2.49,5.52c-.11-1.51-.79-2.68-2.33-2.72s-2.39.91-2.43,2.56a2.33,2.33,0,0,0,2.28,2.71C446.23,320.51,446.89,319.38,447.07,317.85Z"/><path class="e" d="M386.4,296.27c0-1.08,0-2.17,0-3.25,0-.65.23-1.83.41-1.85a38.33,38.33,0,0,1,7.26-.11c1.68.22,2,2,2,3.57.05,1.76,0,3.53,0,5.29,0,.86-.29,1.64-1.31,1.71-1.25.08-1.56-.81-1.6-1.84-.06-1.22,0-2.44-.07-3.66s-.26-2.27-1.69-2.27-2.07,1-2.1,2.39c0,1.08,0,2.17,0,3.26s0,2.28-1.63,2.13c-1.35-.11-1.24-1.2-1.3-2.11-.06-1.08,0-2.17,0-3.26Z"/><path class="e" d="M384.86,296.3a5.22,5.22,0,0,1-5.67,5.35c-3.31-.11-5.13-1.95-5.33-5.29a5.5,5.5,0,1,1,11-.06Zm-5.7-2.78a2.53,2.53,0,0,0-2.15,2.84c0,1.61.85,2.64,2.44,2.59s2.35-1.18,2.27-2.76A2.52,2.52,0,0,0,379.16,293.52Z"/><path class="e" d="M423.58,414.27a5.22,5.22,0,0,1,5.49,5.52c0,3.35-2.17,5.61-5.4,5.59a5.42,5.42,0,0,1-5.31-5.37A5.29,5.29,0,0,1,423.58,414.27Zm.29,2.87c-1.86,0-2.48,1.23-2.49,2.69s.67,2.71,2.35,2.68a2.72,2.72,0,0,0,.14-5.37Z"/><path class="e" d="M373,313.15c2.2-.92,2.41-.88,2.64.92a25.49,25.49,0,0,1,0,3.27c0,5.83-1.8,7.23-7.47,5.84a2.85,2.85,0,0,1-2.4-2.85c-.07-2,0-4.08,0-6.13,0-1.08.32-1.9,1.54-1.89s1.34,1.06,1.38,2,0,2.18,0,3.27c0,1.28.2,2.57,1.88,2.52s1.86-1.21,2-2.53-.32-3,.43-4.41c-.07,2.31-.1,4.61-.25,6.91,0,.75-.09,1.39.72,1.59.25.06.89-.34.87-.47C374.07,318.5,376.15,315.36,373,313.15Z"/><path class="e" d="M228.15,259.09c2.53.05,2.47-.95.9-2.44-2-1.89-4.23-3.49-5.76-5.85,8.25,4.39,12.71,11.87,15.81,20.44.24.67.78,1.71-.35,2.05-1,.28-1.31-.66-1.62-1.41C235.09,266.92,231.6,263,228.15,259.09Z"/><path class="e" d="M428.81,309.4c1.47,0,3.8,4.24,2.83,5.39-1.57,1.86-1.61,3.62-.24,5.44.68.9,1.65,1.72.34,2.66a2.75,2.75,0,0,1-3.65-.45c-1.31-1.23-1.8-10.42-.79-12C427.69,309.86,428.06,309.38,428.81,309.4Z"/><path class="e" d="M131.58,218.52c-2.78,2.92-6.75,3.65-10,5.75-6.87,4.46-13.35,9.35-18.27,16.09a4.57,4.57,0,0,1-2.13,1.59c4.14-8,10.81-13.28,18.1-17.86C123.11,221.69,127.07,219.42,131.58,218.52Z"/><path class="e" d="M223.35,250.83c-8.15-1.77-14.2-6.33-18.41-13.78-1.23-2.19-3.63-3.66-5.41-5.54-1-1-2.43-1.71-2.66-3.38,5.94,2.73,9.63,7.81,12.87,13.25a11.24,11.24,0,0,0,6.86,5.55C219.05,247.64,221.65,248.54,223.35,250.83Z"/><path class="e" d="M407.57,317.72c0-5.92,0-5.9,4.78-5.18.71.1,1.36.11,1.47.94a1.45,1.45,0,0,1-.9,1.65c-2.4.76-2.16,2.71-2.19,4.64,0,1.4.48,3.5-1.64,3.5s-1.27-2.21-1.5-3.51A11.56,11.56,0,0,1,407.57,317.72Z"/><path class="e" d="M354.44,296.17c-.05-5.71.35-6.11,4.88-5.19,1.72.35,1.61,1.74.69,2.13-3.06,1.29-2.36,3.82-2.43,6.17,0,1.07.07,2.3-1.49,2.35s-1.66-1-1.65-2.19Z"/><path class="e" d="M150.56,258.44c2.11-.23,1.5-1.91,1.62-3.21a28.38,28.38,0,0,1,4,16.08c0,.7-.19,1.51-.92,1.58-1.05.11-1.15-.83-1.25-1.65C153.5,266.79,151.91,262.65,150.56,258.44Zm4.15,5.71-.52-1c-.1.23-.29.46-.28.67a5.12,5.12,0,0,0,.25,1.08Z"/><path class="e" d="M184.07,234.67c-2-.6-2.93-2.59-4.39-3.88A2.38,2.38,0,0,1,182,226.9Q189,230,196,233.27c1.18.55.81,1.85.93,2.88-5-2.53-9.36-6.34-15.27-7.43C181.46,231.36,184.15,232.43,184.07,234.67Z"/><path class="e" d="M121.51,259.09c2.16-.3,1.93,2,2.81,3.39,1.42-2-.61-3.3,0-4.74,3.1,4.49,3.19,9.67,3.24,14.85,0,.65.1,1.52-.76,1.66-1.18.19-1.13-.84-1.2-1.61A34.37,34.37,0,0,0,121.51,259.09Z"/><path class="c" d="M411.05,422.24c.69-4.22-2.11-5.25-5.21-6.12-1-.28-2.74-.39-2.23-2.09.41-1.36,1.87-1.08,3.08-1s4.17,2.87,3-1.69c1.77.76,3.83-1.05,5.49.67-2.77-.11-3.83,3.57-3.54,3.91,2.14,2.55.81,5.47,1.34,8.11Z"/><path class="e" d="M437.32,308.56c0,4.74,0,8.47,0,12.2,0,1.06.14,2.36-1.37,2.43s-1.68-1.15-1.57-2.26C434.75,317,433.06,312.6,437.32,308.56Z"/><path class="d" d="M413,424c-.53-2.64.8-5.56-1.34-8.11-.29-.34.77-4,3.54-3.91.29.84,0,1.85,1.09,2.41,1.47.8,1.4,1.66,0,2.66-1.77,1.26-.85,3.14-.7,4.77.1,1.09,3.06,1.18,1.27,2.9C415.61,425.9,414.12,425,413,424Z"/><path class="e" d="M189.65,223.23c-4.45.15-7.71-3.2-11.78-4.34-1.51-.42-4.23.65-4.9-2.17A35.68,35.68,0,0,1,189.65,223.23Z"/><path class="c" d="M300.41,319l7.21-.79c-.91.95-2.82.87-2.58,3,.18,1.63,0,3.48-2.29,3.37s-2.05-2-2.13-3.6C300.59,320.3,300.49,319.63,300.41,319Z"/><path class="c" d="M305.06,333c0,1.46-.21,2.81-2,2.92-1.9.12-2.47-1.12-2.46-2.84,0-1.46.33-2.91,1.95-3S305.12,331.22,305.06,333Z"/><path class="c" d="M303,341.07c1.72.25,2,1.59,2,3,.09,1.59-.63,2.63-2.28,2.55s-2.21-1.27-2-2.79S301.26,341.12,303,341.07Z"/><path class="e" d="M185.75,249.35a23.66,23.66,0,0,1,4.81,15.47Q188.16,257.08,185.75,249.35Z"/><path class="e" d="M303.37,464.66c0,1.13,0,2.29-1.52,2.32-2.05,0-1.76-1.57-1.76-2.88,0-1.11.06-2.34,1.52-2.36C303.64,461.71,303.29,463.36,303.37,464.66Z"/><path class="e" d="M305.1,234.7c0,1.22-.26,2.25-1.69,2.21a2.23,2.23,0,0,1-2.47-2.11c-.15-1.4.48-2,1.8-2S305.19,232.94,305.1,234.7Z"/><path class="e" d="M152.07,255.12l-7.89-11.2C148.41,246.47,150.75,250.42,152.07,255.12Z"/><path class="e" d="M172.26,216.61c-7.79.27-8.92-.79-8.78-8.27C164.59,213.13,167.41,216,172.26,216.61Z"/><path class="e" d="M304.78,256.06c-.17,1.25.12,2.8-1.69,2.66s-1.4-1.64-1.45-2.79,0-2.28,1.46-2.33C304.91,253.55,304.67,255,304.78,256.06Z"/><path class="e" d="M304.74,278.19c-.13,1,.21,2.33-1.36,2.45-1.86.14-1.71-1.34-1.69-2.53,0-1-.3-2.36,1.31-2.47C304.84,275.52,304.66,277,304.74,278.19Z"/><path class="e" d="M213,236.05c-1.27,0-2.43,0-2.46-1.47,0-1.74,1.33-1.66,2.51-1.62,1,0,2.31-.09,2.3,1.42S214,236.09,213,236.05Z"/><path class="e" d="M301.58,455.81c-1.72-.2-1.4-1.57-1.49-2.72-.09-1.31.44-2,1.77-2,1.8.09,1.48,1.47,1.5,2.62S302.94,455.81,301.58,455.81Z"/><path class="e" d="M301.77,245.21c0-1.35.39-2.46,2-2.26s1.35,1.35,1.25,2.44-.08,2.52-1.82,2.45S301.79,246.34,301.77,245.21Z"/><path class="d" d="M303,390.06c-1.7.12-2-.7-2-1.77s-.44-2.65,1.36-2.84c1.2-.13,1.64.69,1.6,1.79S304.19,389.76,303,390.06Z"/><path class="e" d="M283.16,236.05c-1.27.17-2.08-.27-2.06-1.71,0-1.7,1.29-1.4,2.29-1.39s2.28-.19,2.3,1.46C285.71,236.29,284.32,236,283.16,236.05Z"/><path class="d" d="M303,352.41c1.36.11.91,1.61.94,2.73,0,.92,0,2.06-1.29,2.1-1.86.07-1.61-1.4-1.64-2.59S300.8,352.34,303,352.41Z"/><path class="e" d="M270.83,234.28c.38-1.68,1.73-1.29,2.84-1.33s1.89.23,1.85,1.5c-.06,1.82-1.39,1.59-2.57,1.61S270.9,235.7,270.83,234.28Z"/><path class="e" d="M255.27,234.55c-.12,1.92-1.51,1.46-2.64,1.48s-2.15-.32-1.93-1.83,1.5-1.21,2.5-1.27S255.4,232.9,255.27,234.55Z"/><path class="e" d="M304.72,267.31c-.14,1.14.11,2.64-1.68,2.48s-1.35-1.65-1.36-2.76-.15-2.3,1.42-2.27S304.77,266.06,304.72,267.31Z"/><path class="e" d="M303.71,442.3c0,1.37.14,2.55-1.43,2.6s-1.8-1.1-1.75-2.4,0-2.56,1.68-2.53S303.53,441.54,303.71,442.3Z"/><path class="e" d="M245.27,234.17c0,1.68-1,1.91-2.12,1.91s-2.47.21-2.46-1.71c0-1.35.77-1.55,1.81-1.44S245,232.55,245.27,234.17Z"/><path class="e" d="M265.37,234.37c-.05,1.46-1,1.74-2.18,1.7s-2.25.11-2.33-1.48,1.06-1.65,2.15-1.63S265.26,232.7,265.37,234.37Z"/><path class="e" d="M225.34,234.76c-.34,1.72-1.74,1.25-2.85,1.27a1.44,1.44,0,0,1-1.63-1.77c.25-1.89,1.75-1.23,2.82-1.29S225.42,233.47,225.34,234.76Z"/><path class="e" d="M232.82,233c1.22,0,2.34.09,2.2,1.67s-1.34,1.42-2.39,1.44-2.2-.25-2.1-1.73S231.92,233,232.82,233Z"/><path class="e" d="M295.66,234.55c-.13,1.86-1.54,1.46-2.62,1.52-1.24.07-2.06-.51-1.9-1.88.17-1.58,1.47-1.18,2.43-1.24S295.72,233,295.66,234.55Z"/><path class="c" d="M131.48,227.85c2.21-1.69,4.64-2.42,8.47-1.94-2.83,1.3-4.19,3.24-6.64,3.09C133,228.1,132.27,227.94,131.48,227.85Z"/><path class="d" d="M432.75,415.37v8.39l-1.17.07c-.87-2.94-.19-6.06-.39-9.08C431.93,414.37,432.22,415.19,432.75,415.37Z"/><path class="e" d="M131.5,237.78c1.74-2.82,3.62-5.41,7.48-4.65C136.78,235.17,134.1,236.41,131.5,237.78Z"/><path class="e" d="M139.5,232.94c.64-2.37,2.67-2,3.85-1.34,1.75.93-.4,1.93-.54,3a2.72,2.72,0,0,1-1.75,2.49C140.07,235.87,144.76,232.43,139.5,232.94Z"/><path class="e" d="M180.89,240.39a11.41,11.41,0,0,1,4.64,8.55A40.4,40.4,0,0,1,180.89,240.39Z"/><path class="d" d="M303.88,365.5c-.09,1.29.14,2.57-1.47,2.52-1.26,0-1.39-1-1.35-2s-.2-2.33,1.29-2.48S303.72,364.76,303.88,365.5Z"/><path class="c" d="M449,424.26c1.11.92,2.4.77,3.7.68.76-.05,1.94-1.22,2.17.34.18,1.29-1.12,1.68-2.19,1.69-1.29,0-2.58-.19-3.87-.29C448.82,425.87,448.88,425.07,449,424.26Z"/><path class="d" d="M303.9,376.58c-.16,1.14.26,2.51-1.34,2.59s-1.49-1.21-1.49-2.28-.26-2.33,1.33-2.43S303.73,375.72,303.9,376.58Z"/><path class="c" d="M447.94,417.16c0,2,.05,4,.08,6l-1.7,1.07c-.05-2.32-.11-4.64-.16-7Z"/><path class="c" d="M343.48,417.4c1.58-.4,3.21-1.34,5,.58-1.8,1.44-4.07.2-5.63,1.43C343.05,418.74,343.26,418.07,343.48,417.4Z"/><path class="e" d="M194.59,226.37c-2.45.31-3.5-1.68-4.89-3.12A8,8,0,0,1,194.59,226.37Z"/><path class="e" d="M147.36,253.51c1.73,1.2,3.41,2.43,3.22,4.95A10.56,10.56,0,0,1,147.36,253.51Z"/><path class="e" d="M177.84,236.24c1.82.78,3.25,1.86,3.07,4.18A8,8,0,0,1,177.84,236.24Z"/><path class="c" d="M408.37,410.68l-5.38,0A3.77,3.77,0,0,1,408.37,410.68Z"/><path class="c" d="M402.8,424.9l5.62-.06C406.56,426.5,404.69,426.27,402.8,424.9Z"/><path class="e" d="M124.1,257.57c-.64-1.14-2.07-1.78-2.08-3.34C123.67,254.72,123.74,256.24,124.1,257.57Z"/><path class="e" d="M196.85,228.12a2.18,2.18,0,0,1-2.29-1.76C195.6,226.56,196.56,226.88,196.85,228.12Z"/><path class="e" d="M120.43,251.78c-.7-.78-2.22-1.51-.15-2.46Z"/><path class="c" d="M409.61,424.22l1.27-1.61C411.17,423.73,410.64,424.18,409.61,424.22Z"/><path class="c" d="M342.84,415.7c0,.46.07.93.11,1.39-.27-.13-.71-.21-.77-.4A.69.69,0,0,1,342.84,415.7Z"/><path class="e" d="M144.1,243.65a5.11,5.11,0,0,1-.22-.62s.19-.13.3-.2C144.15,243.1,144.13,243.37,144.1,243.65Z"/><path class="c" d="M402.53,411a.69.69,0,0,1-.65.36C401.94,410.91,402.13,410.72,402.53,411Z"/><path class="c" d="M409.53,411.23l-.72-.33C409.2,410.66,409.42,410.84,409.53,411.23Z"/><path class="c" d="M401.67,424.4l.89.37Z"/><path class="c" d="M408.77,424.67l.78-.4C409.43,424.7,409.21,424.9,408.77,424.67Z"/><path class="c" d="M448.63,426.89a.59.59,0,0,1-.1.61c-.07-.17-.13-.33-.19-.5Z"/><path class="a" d="M174.73,149.58a35.57,35.57,0,0,1-3.5,14.55c-1.08,2.16-2.3,2.94-4.73,1.87-6.46-2.85-13-5.44-19.53-8.17-1.47-.62-1.94-1.16-2.24-3.42-.68-5.27-3.32-10.45-8.53-12.81-2.85-1.29-4.77-3.45-7-5.32-1.52-1.26-2-7.4-1.14-9a4.46,4.46,0,0,1,5.13-2.16c1.37.33,2.19,2.41,1.53,4-.89,2.11,3.7,2.5,1.25,4.85,3,3.94,5.36,9,9.27,11.48a24.43,24.43,0,0,0,12.37,3.63c4.16,0,8.07-1.33,12-2.62.36-.12.9.06,1.11-.16.9-.92.87-3.43,2.88-2.38,1.82.95.93,3.18,1.15,4.86A5.59,5.59,0,0,1,174.73,149.58Z"/><path class="a" d="M219.22,123.44a.35.35,0,0,0,.12-.52c.61-1.42,1.62-2.69,1.62-4.35.53-.53,1.06-2.07,1.4-1.6,1.26,1.72,3.71,2.24,4.29,4.52,1.8,7.12-1.17,13.29-3.75,19.53-.16.38-1,.86-1.25.73-2.31-1.44-3.2,1.73-4.55,1.62-3.72-.31-1.74,2.94-2.79,3.92a10.46,10.46,0,0,1-5.1,2.31c-1.89.35-4.86,3.52-4.51,5.56.53,3.07-.06,5.13-3.48,6.2-5.7,1.79-11.35,3.71-17.17,5.07-1.9.44-3.17.51-2.2-2.31.86-2.49,1.76-4.8,3.87-6.42a32.17,32.17,0,0,0,8.84-8.06l7.16-8.17c1.84-.63,3.77.79,5.6-.23l.06.13c2,2.07,4.14,1.08,6-.09C220.19,137.05,219.29,130.08,219.22,123.44Z"/><path class="a" d="M183.88,130l.3-.72a7.56,7.56,0,0,0,3.32-4.89l0,0a2.73,2.73,0,0,0,1.43-2.59.39.39,0,0,0,.24-.47c2.36-1.76,2.05-5.28,4.42-7l.26.26-.24,8.79,0,0c-1.26.7-.72,1.19.18,1.63l.06.06c.32,1.21-.66,3,1.42,3.42-.17,2.62.53,4.72,3.16,5.69-.18.65-.65,1.75-.48,1.87,4.24,3,.12,4.21-1.17,6-.7,1-1.54,1.8-2.32,2.69h0a.83.83,0,0,0-.89.79l.05,0-1,.8-3.66,3.46a2.27,2.27,0,0,0-2.38,1.62h0l-.9.72,0,0c-2.25.7-2.19-.81-2.36-2.4-.43-4.11-.64-8.29-2.4-12.14l0,0,.3-3.12,0,0A6.12,6.12,0,0,0,183.88,130Z"/><path class="a" d="M183.83,124.12c-.1.09-.23.16-.29.28-1.1,2.12-2.06,5.37-4.44,5-1.78-.28-1.94-3.69-2.1-5.95-.12-5.81-.21-11.63-.37-17.44-.07-2.53,1-3.83,3.51-3.81h0c1.68.84,3.16,2.08,5.32.84,2.68-1.54,4.55-.16,6.48,2s-.12,3.62-.58,5.34c-.41,1.52-1.77,2.65-1.72,4.37l-.7,1.36a3.91,3.91,0,0,0-1.79,3.08v0C185.61,120.55,184.84,122.42,183.83,124.12Z"/><path class="e" d="M180.14,102.19c-2.51,0-3.58,1.28-3.51,3.81.16,5.81.25,11.63.37,17.44-.23-3.81-3.3-7.11-1.83-11.26.37-1.05-1.19-2.11-1.3-1.5-.49,2.66-3.64,2.45-4.25,4.71l-2.32-1.56-10.63-12a82.08,82.08,0,0,1-.13,9.33c-.12,1,1,3.34-1.6,3.34-2.11-1.67.89-2.63.54-4.16-1-4.31.23-8.75-.49-13-.46-2.73.36-2.51,2.12-1.67,0,.93-.38,1.92.36,2.72A181.78,181.78,0,0,0,172,112.77c.39-3.19.61-5.75,1-8.27.3-1.78-.32-3-1.86-3.55-3.45-1.28-5.46-4.33-8.06-6.66.51-.09,1.19-.44,1.5-.23,3.73,2.6,7.76,4.85,10.57,8.79C176.46,101.72,177.73,98.22,180.14,102.19Z"/><path class="a" d="M163.13,94.29c2.6,2.33,4.61,5.38,8.06,6.66,1.54.56,2.16,1.77,1.86,3.55-.42,2.52-.64,5.08-1,8.27a181.78,181.78,0,0,1-14.55-14.38c-.74-.8-.4-1.79-.36-2.72C159,94.8,161.32,95.69,163.13,94.29Z"/><path class="a" d="M154.94,114.53c2.6,0,1.48-2.32,1.6-3.34a82.08,82.08,0,0,0,.13-9.33l10.63,12c.08,1.74-1.16,1.33-2.12,1.38l-.18-.11c-.27-.48-.52-.42-.74.05-3.15,1-6.3,2.15-9.66,1Z"/><path class="e" d="M189.65,114.8c-.05-1.72,1.31-2.85,1.72-4.37.46-1.72,2.63-3,.58-5.34s-3.8-3.59-6.48-2c-2.16,1.24-3.64,0-5.32-.84,2.62-.76,5.36-.84,8-1.31,3.06-.55,5.8,2.7,5.73,5-.13,5,2.65,9.55,1.42,14.55-.3,1.2.39,2.92-1.75,3l.24-8.79a5,5,0,0,0,.41-.5s-.15-.16-.24-.25l-.43.49c-2.37,1.76-2.06,5.28-4.42,7,0-.92-.11-1.84-.17-2.76C191.8,117.82,189.75,116.12,189.65,114.8Z"/><path class="e" d="M219.22,123.44c.07,6.64,1,13.61-5.82,17.84-1.88,1.17-4,2.16-6,.09a10.28,10.28,0,0,0,6.29-2.05c2.2-1.48,4.32-3.52,4.1-7.2C217.6,129.3,216.16,125.84,219.22,123.44Z"/><path class="e" d="M194.44,144.64c.78-.89,1.62-1.73,2.32-2.69,1.29-1.75,5.41-3,1.17-6-.17-.12.3-1.22.48-1.87,2.41,1.09,3.31,3.09,3.26,5.67h0C198.57,140.34,198,144.88,194.44,144.64Z"/><path class="e" d="M154.6,116.12c3.36,1.18,6.51,0,9.66-1l.38.06.36-.11.18.11,3.66,3.38a11.94,11.94,0,0,0-11.4-.23C155.32,119.36,154.35,118.33,154.6,116.12Z"/><path class="e" d="M180.91,137.41c1.76,3.85,2,8,2.4,12.14.17,1.59.11,3.1,2.36,2.4-1.17,2.28-2.77,2.13-2.95-.2C182.35,146.92,180.14,142.36,180.91,137.41Z"/><path class="e" d="M194.56,149.64a32.17,32.17,0,0,1-8.84,8.06C188.17,154.44,190.33,150.85,194.56,149.64Z"/><path class="c" d="M168.84,118.59l-3.66-3.38c1,0,2.2.36,2.12-1.38l2.32,1.56h.08a1.74,1.74,0,0,0,1.55,1.64h0c.32,1.35.21,2.43-1.51,2.48Z"/><path class="e" d="M207.32,141.24c-1.83,1-3.76-.4-5.6.23,0-.56,0-1.12-.05-1.67h0C203.78,139.34,206,138.59,207.32,141.24Z"/><path class="e" d="M169.75,119.52c1.72,0,1.83-1.13,1.51-2.48,2.11,0,1.71,1.61,1.58,2.89a1.7,1.7,0,0,1-1.82,1.71C169.72,121.57,169.9,120.41,169.75,119.52Z"/><path class="e" d="M187.5,124.35a7.56,7.56,0,0,1-3.32,4.89C184.13,126.79,185.71,125.5,187.5,124.35Z"/><path class="e" d="M183.88,130a6.12,6.12,0,0,1-2.71,4.32C180.58,131.86,182.26,130.93,183.88,130Z"/><path class="e" d="M183.83,124.12c1-1.7,1.78-3.57,3.32-4.9.06.86.13,1.72.19,2.57l0,0C185.59,121.68,185.55,124.24,183.83,124.12Z"/><path class="e" d="M195.25,128.43c-2.08-.43-1.1-2.21-1.42-3.42C195.91,125.46,195.14,127.13,195.25,128.43Z"/><path class="e" d="M221,118.57c0,1.66-1,2.93-1.62,4.35C219.4,121.29,218.19,119.15,221,118.57Z"/><path class="e" d="M181.19,134.24l-.3,3.12C179.1,136.13,178.81,135.05,181.19,134.24Z"/><path class="e" d="M188.89,121.8a2.73,2.73,0,0,1-1.43,2.59c0-.85-.09-1.71-.14-2.57l0,0Z"/><path class="e" d="M186.55,151.26a2.27,2.27,0,0,1,2.38-1.62C188.81,151.21,187.72,151.3,186.55,151.26Z"/><path class="e" d="M171.25,117a1.74,1.74,0,0,1-1.55-1.64C170.83,115.32,171.36,115.85,171.25,117Z"/><path class="e" d="M193.77,125c-.9-.44-1.44-.93-.18-1.63Z"/><path class="e" d="M192.59,146.18l1-.8A.91.91,0,0,1,192.59,146.18Z"/><path class="e" d="M185.64,152l.9-.72Z"/><path class="e" d="M193.57,145.42a.83.83,0,0,1,.89-.79Z"/><path class="a" d="M303.14,425.06c-1.77.09-1.88-1.22-1.78-2.46.3-3.62,0-6.6-4.8-5.63-.86.18-1.47-.42-1.48-1.44,0-1.19.64-1.91,1.7-1.73,4.6.77,4.89-2.05,4.58-5.52-.11-1.16.14-2.19,1.57-2.31,1.59-.14,1.71,1,1.6,2.12-.35,3.62-.16,6.63,4.74,5.7,1.13-.21,1.6.76,1.57,1.85a1.27,1.27,0,0,1-1.61,1.32c-4.93-1-5,2.12-4.72,5.69C304.61,423.71,304.67,424.91,303.14,425.06Z"/><path class="a" d="M303.27,293.51c1.93.45,1.32,2.14,1.22,3.3-.28,3.17.49,5,4.06,4.43,1-.16,2.21-.07,2.3,1.52.1,1.78-1.08,2.07-2.34,1.88-3.61-.56-4.26,1.35-4,4.49.09,1.23.94,3.45-1.43,3.46-2.62,0-1.73-2.35-1.65-3.72.2-3.05-.57-4.74-3.92-4.21-1.28.2-2.45-.1-2.43-1.84s1.27-1.7,2.28-1.55c3.56.52,4.35-1.31,4.05-4.49C301.25,295.43,300.88,293.58,303.27,293.51Z"/><path class="a" d="M377.09,417.11c1.74.05,2.32,1.24,2.34,2.7s-.57,2.74-2.27,2.69a2.28,2.28,0,0,1-2.36-2.65C374.87,418.39,375.43,417.21,377.09,417.11Z"/><path class="a" d="M367.6,419.73c0,1.52-.48,2.78-2.19,2.8s-2.1-1.3-2.11-2.8.44-2.47,1.92-2.58C366.94,417,367.5,418.2,367.6,419.73Z"/><path class="a" d="M344.66,319.89c1.3-1.5,2.41-.87,3.77-.88C347.44,321,346.32,320.81,344.66,319.89Z"/><path class="c" d="M347.2,296.79c.94.11,1.85.39,1.8,1.6a1.42,1.42,0,0,1-1.58,1.4c-.91,0-1.93-.27-2-1.41S346.19,296.87,347.2,296.79Z"/><path class="a" d="M347.17,293.37c.25.16.83.31,1,.67.3.64-.21,1-.77.87s-1.1-.24-1.27-.58C345.8,293.66,346.44,293.53,347.17,293.37Z"/><path class="a" d="M169.93,7c.26-1.22-.66-3.12,1.48-3.15,1.92,0,2.21,1.66,2.24,3.2s-.24,3.28-2.12,3.3C169.12,10.4,170.3,8.23,169.93,7Z"/><path class="a" d="M183.1,11.43c.21-1.95.3-3.71.6-5.44.19-1,.61-2.22,1.87-2.33s1.81,1,2.06,2.07A21.82,21.82,0,0,1,187.5,17c-.26.92-.71,1.83-1.87,1.77a2,2,0,0,1-1.83-1.86C183.44,15,183.31,13.13,183.1,11.43Z"/><path class="c" d="M130.23,6c1.85,2.24,1.4,4.7,2,6.83.3,1.08-.38,1.8-1.55,1.78s-1.64-.82-1.5-1.89C129.43,10.59,129.82,8.5,130.23,6Z"/><path class="a" d="M452.88,422.56a2.52,2.52,0,0,1-2.34-2.64,2.36,2.36,0,0,1,2.27-2.73c1.71-.12,2.24,1.06,2.26,2.6S454.76,422.48,452.88,422.56Z"/><path class="a" d="M357.93,315.05c1.69.15,2.25,1.15,2.24,2.72s-.4,2.69-2.14,2.66-2.32-1.18-2.33-2.64A2.48,2.48,0,0,1,357.93,315.05Z"/><path class="a" d="M367.13,293.52a2.53,2.53,0,0,1,2.39,2.64c.06,1.52-.63,2.68-2.23,2.75S365,298,365,296.35C365.08,294.88,365.34,293.66,367.13,293.52Z"/><path class="a" d="M419.5,315l1.05.95c-.29.17-.62.52-.86.47a4.09,4.09,0,0,1-1.12-.7Z"/><path class="a" d="M447.07,317.85c-.18,1.53-.84,2.66-2.48,2.55a2.33,2.33,0,0,1-2.28-2.71c0-1.65.93-2.59,2.43-2.56S447,316.34,447.07,317.85Z"/><path class="a" d="M379.16,293.52a2.52,2.52,0,0,1,2.56,2.67c.08,1.58-.66,2.7-2.27,2.76s-2.41-1-2.44-2.59A2.53,2.53,0,0,1,379.16,293.52Z"/><path class="a" d="M423.87,417.14a2.72,2.72,0,0,1-.14,5.37c-1.68,0-2.35-1.2-2.35-2.68S422,417.18,423.87,417.14Z"/><path class="d" d="M373,313.15c3.11,2.21,1,5.35,1.32,8.06,0,.13-.62.53-.87.47-.81-.2-.77-.84-.72-1.59.15-2.3.18-4.6.25-6.91Z"/><path class="b" d="M154.71,264.15l-.55.77a5.12,5.12,0,0,1-.25-1.08c0-.21.18-.44.28-.67Z"/><path class="b" d="M188.89,121.8h-1.55c-.06-.85-.13-1.71-.19-2.57v0l1.73-.73.07.06c.06.92.12,1.84.17,2.76A.39.39,0,0,1,188.89,121.8Z"/><path class="b" d="M189.65,114.8c.1,1.32,2.15,3-.69,3.77l-.07-.06.06-2.35C189.18,115.7,189.42,115.25,189.65,114.8Z"/><path class="e" d="M189,116.16l-.06,2.35-1.73.73A3.91,3.91,0,0,1,189,116.16Z"/><path class="c" d="M165,115.1l-.36.11-.38-.06C164.48,114.68,164.73,114.62,165,115.1Z"/><path class="a" d="M193.55,114.29l.43-.49c.09.09.25.23.24.25a5,5,0,0,1-.41.5Z"/></svg>