<svg xmlns="http://www.w3.org/2000/svg" viewBox="0 0 321 104.83"><defs><style>.a{fill:#fcfdfd;}.b{fill:#316aaa;}.c{fill:#1f61ac;}.d{fill:#1c60ac;}.e{fill:#4575ac;}.f{fill:#7fccee;}</style></defs><path class="a" d="M116.86,22.15h0c.08-.08.25-.17.24-.23a3.55,3.55,0,0,0-.17-.64l0-1.42a2,2,0,0,0-.15-2.42c.78-2.18-.14-4.58.91-6.76A2.2,2.2,0,0,0,117,9c-4.14.19-4.75-4.44-7.66-6.25C106.13.71,103,1,100,.23c-2.4-.61-5.26,1.19-8.08,1.19-2.39,0-4.23,4-7.11,1.12-.06-.06-.44.24-.68.35-3.26,1.46-5.8,3.64-7,7.21a11.33,11.33,0,0,0-2.91,8.58c.15,2.42,2.81,3.5,2.8,6.09,0,2.87,1.52,4.35,4.49,4.18a12.28,12.28,0,0,1,3.5.45c9.9,2.27,9.26-.67,9.48,11.7,0,.14,0,.28,0,.41,0,2-.68,3.28-2.76,3.86-2.52.7-5,1.78-8.14,3h22.79c-.79-1.4-1.84-1.21-2.68-1.45-1.93-.55-4.45-1.11-4.89-3-1-4.21-.77-8.63-.56-13a1.22,1.22,0,0,1,1.64-1.25c2.27.68,4.47-.51,6.71-.17l0,0c.76,1.05,1.53,1.4,2.31,0l0,0c3.28-1.12,4.24-5,7.22-6.47h0C116.66,23,117,22.74,116.86,22.15ZM277.63,72.42v0c-.11.43-.21.86-.31,1.29.38,3.68,2.71,6.67,3.55,10.2.08.33,1.13.5,1.75.61q6.93,1.16,13.88,2.27l.53.75c0,2.18-.36,4.41,0,6.51.69,4.15-1.06,6.29-4.73,7.38-2,.59-3.91,1.37-5.93,2.09,1.1,1.45,2.53,1,3.78,1,4.51.06,9,.16,13.52,0,1.92-.09,5.05,1.31,5.47-1.09.28-1.56-3.26-1.14-5-1.82l-.1-.06c-2.35-1.69-2.39-4.18-2.41-6.8-.06-8.22-.11-8.22,7.38-9.8l.78.46c3.46,1.8,4.15-1.32,5.52-3.26,4.51-3.29,5.81-7.78,4.79-13.22-.13-.7.49-1.52.65-2.3.19-1-.26-2.46-.92-2.44-4.07.13-4.89-4.22-7.6-6a13.86,13.86,0,0,0-9.64-2.22c-3.69.5-8.41-.84-11.25,3.27-.33.47-.71.15-1-.08-3.65-2.87-5.32,1.51-8,2.28a8.73,8.73,0,0,0-3.69,7.32l-.08.05-.82.45a2.9,2.9,0,0,1-.27.41,1.59,1.59,0,0,0,.05,2.45Zm.06-55.7V17c-.11.33-.22.65-.32,1-.13,4.15,2.81,7.18,3.85,10.92,0,.17.7.18,1.08.23L295.47,31c3.53,3.66,2.32,8.52,1.31,12.16-1.09,3.92-6.43,3.44-10.23,5.19H309c0-.16,0-.32,0-.48l-6.53-2.69a.37.37,0,0,0-.44-.21l-.12-.11c-.23-3.93-.56-7.85-.65-11.78,0-1.38-.07-3.12,1.94-3.46,4.28-.19,8.59,1.58,12.51-2.71,3.4-3.74,5.66-7.22,4.56-12.36-.26-1.19.28-2.1.6-3.11.37-1.18-.19-2.83-.91-2.81-4,.06-4.69-4.19-7.56-5.85A17.5,17.5,0,0,0,300.89.41c-3.57.43-7.24,2-10.62,2.2s-5.47,1.59-7.89,3.14c-2.76,2-3.47,5.12-4.56,8.05l-.22.23c-1,.8-.81,1.62,0,2.45ZM129.51,62.93c-1.09.48-1.12,1.62-1.49,2.54-1.63.58-1.05,2.21-1.52,3.34-1.38.24-1.33,1.29-1.55,2.42-.6,3.06,1.73,5.16,2.19,7.69.87,4.72,3.59,5.92,7.6,5.94a12.77,12.77,0,0,1,2.73.4c7.46,1.65,7.24,1.66,7.61,9.51.18,3.78-1,5.87-4.47,6.82-2,.55-4,1.3-6.83,2.24a138.73,138.73,0,0,0,23.09-.31c-7.86-3-7.86-3-8.12-12,0-.82,0-1.63-.07-2.45-.11-2.55.06-3.86,3.53-4,3-.16,6.31,2.13,9.57-1.22,4.41-4.52,8-8.8,6.21-15.67a2.3,2.3,0,0,1,.08-.81c1.54-1.81.69-2.84-1.13-3.44a6.89,6.89,0,0,0-1.88-.09c.19-3.9-3.84-3.66-5.33-5.73-2.59-3.59-6.36-2.25-9.35-2.48-4.87-.38-9.55,2.87-14.72,2.07A1.24,1.24,0,0,0,134.47,59c-1.09,1.1-3.16-.2-3.93,1.68C129.72,61.21,129.67,62.1,129.51,62.93ZM2,38.38v0c-1.92,1-1.3,2,0,2.93a.47.47,0,0,0,.2.53l0,3.27v0c-2.75,2.89-3,5.3-.06,6.82,4.1,2.1,8.28,4.9,13.33,2.67C16.8,54,19,55,18.3,55.85c-2.23,2.9-1.89,7.66-5.72,9.16-5,1.95-7.2,6.6-10.39,10.31l-.13.09.1-.09c.43-.31,1.16-.95,1.24-.87,2.54,2.38,2.64-.24,3.32-1.66a9.84,9.84,0,0,1,5.05-5C10.6,69.55,10,70.45,9.43,71.35,9,72,8,72.61,9,73.32s1.74.24,2-1a3,3,0,0,1,2.53-2.74c1.24,1-1.35,2.74.91,3.06,1.75.25,1.48-.93,1.45-2.29,0-1,1-2.09,1.56-3.13l.3,0,.3,0,4,10.27c2.09-2.65-1.12-5.18.91-7.34a35.74,35.74,0,0,0,1.82,3.54c.44.65-.2,2.2,1.73,1.82,1.6-.31,2.22-.93,2.28-2.44.89,4,5,.28,6.5,3-.83-4.46-4.87-5.55-7.49-8.07l-.22-.26-.66-.58-1.05-.86a1.18,1.18,0,0,0-1.42-.71c-5.17-2.17-5.9-6.2-1.44-9.35,2.11-1.49,4.67-2.61,7.51-1.67,5.29,1.74,8-2.24,11.07-5.39,2.72-2.82.7-4.83-1.33-6.8a1.65,1.65,0,0,1-.38-1.12C40,37.5,37.4,36,34.48,35.27a7.11,7.11,0,0,1-5-4.07c-1.88-3.74-5.32-4.28-8.7-1.67a2.39,2.39,0,0,1-3.53-.21c-4.19-3.87-4.19-3.87-7.86.25l-.06,0C7.41,30,5.09,30.27,5,32.71,5,34.85,3.76,36.05,2.77,37.53l0,0ZM226.76,76l.18.19c1.49,1,1.53,2.68,1.8,4.26.5,2.81,1.74,4.43,4.95,4.46s6.23.9,9.35,1.39c2.13.34,3.06,1.41,3.13,3.81.13,5.12.73,10.28-5.63,12.17l-4.79,1.28c6.27,1.08,18.9.78,22.23-.5-7.48-2.37-7.48-2.37-7.68-10.72,0-1.36,0-2.72-.09-4.08-.09-2.31.66-2.78,3.14-3.16,3.42-.53,7,2.26,10.52-1.83s7.07-7.69,5.62-13.81c-.22-.93.55-2.07.57-3.12s.05-2.76-1.25-2.52c-2.53.46-1.93-1.78-2.81-2.56-2.27-2-5.12-3.29-7.44-5.38-.45-.41-1.44.4-1.89,1.14l-.73.07c-1.35-1.93-3-2.18-5.19-1.44A46.07,46.07,0,0,1,239.58,58c-3.49.27-5.64,1.71-8.12,3.39a9.57,9.57,0,0,0-2.92,4.86c.1,1.5-.79,2.44-1.8,3.3-.1.07-.29.13-.29.2a3.55,3.55,0,0,0,.1.64c.07.53.13,1,.2,1.58-.08.09-.23.19-.22.27a5.63,5.63,0,0,0,.18.64l-.15,2.44c-.07.09-.2.23-.18.25A3.07,3.07,0,0,0,226.76,76Zm17.71-30.66c-1.64-.59-2.8.25-3.86,1.39l-5.28,1.6h23.08c-1.19-1.58-2.75-1.17-3.87-1.83-1.68-1-3.92-1.51-4-4-.17-3.53-.2-7.08-.22-10.62,0-1.07.06-2.53,1.57-2.21,1.91.39,4-.8,5.46-.1,3.26,1.54,4.89-.28,6.76-2.3,1.73-1.85,5.42-4.22,5.08-5.23C267.58,17.43,274,11.27,266.64,8c-.3-.13-.39-1-.39-1.5a2,2,0,0,0-2-2.12,4.9,4.9,0,0,1-4.08-2.85A2,2,0,0,0,258.3.31,54.8,54.8,0,0,0,245,1.12c-2,.33-3.67,2.36-5.5,1.74-3.62-1.22-5.38,1.79-7.94,2.95-2.74,2-3.06,5.46-4.8,8.05-.65.29-.8.78-1,1.5-1.14,3.85,2.64,6,2.93,9.31s1.78,5,5.36,4.87a39,39,0,0,1,8.2,1c1.41.24,3.42.72,3.52,2.19.28,4.19,1.59,8.56-1,12.53ZM219,9.79c0-2.6-2.75-.77-2.75-1.41,0-4.53-4.85-3.7-6.42-6.39-.47-.8-1-1.86-2-1.64-3.87.8-7.74-.9-11.73.52a27.06,27.06,0,0,1-7,1.93c-6.32.34-8.3,1.37-10.05,7a9.56,9.56,0,0,0-3.27,9.2c.42,2.27,2.16,4.29,3.32,6.42,0,1.92.17,3.29,2.74,3.38,3.26.11,6.5.92,9.76,1.38,2.56.36,3.95,1.51,4.09,4.46.49,10.16.45,10.33-9.13,13-.35.1-.69.25-1.87.69h24.14a20.83,20.83,0,0,0-2.27-1.17c-6.58-2.13-6.57-2.13-6.85-9.15-.06-1.5-.16-3-.22-4.49-.11-2.49,0-3.86,3.49-4,3-.13,6.25,2.11,9.51-1.06,4.47-4.34,7.84-8.58,6.35-15.28a4.83,4.83,0,0,1,.21-1.61C219.62,11,219.84,10.41,219,9.79ZM93,86.67c2.63,3.81,2.26,8.49.94,12-1.39,3.73-6.48,3.43-10.62,5a113.72,113.72,0,0,0,22.59-.32c-1.59-.89-3.23-1.35-4.75-2.09s-2.81-1.48-2.81-3.53c0-3.4-.15-6.79-.23-10.19,0-1.82.56-2.27,2.56-2.45,4-.37,8.93,2.33,11.58-2.85,1.5-2.93,7.22-3.49,4.69-8.66l0-1.63a1.56,1.56,0,0,0,0-2.35c-.15-1.78,2.31-4.7.23-5-4-.64-5-4.57-7.85-6.44-3.38-2.22-6.56-1.9-9.73-2.47-4.87-.88-9.21,4-14.42,2.07a.46.46,0,0,0-.37.14c-2.09,2.29-5.92,2.24-7,6.25-.41,1.5-.71,4.08-2.85,5-1.07.24-.81,1.15-1,1.9-1,4.28,2.6,7.12,3.13,10.87.32,2.27,1.61,2.76,3.51,3C84.67,85.41,88.81,86.07,93,86.67ZM128.08,10a9.58,9.58,0,0,0-3,9.23c.4,2,2.61,3.27,2.73,5.64.14,2.81,1.53,4.37,4.52,4.11a10,10,0,0,1,3.11.4c9.43,2.27,9.64-.81,9.61,11.09,0,2.75-.39,4.66-3.5,5.27-2.31.46-4.48,1.58-7.3,2.63h22.55l1.2-1.13c-10.22.48-9-6.42-9.28-12.38,0-.54,0-1.09-.06-1.63-.15-2.57.36-3.46,3.47-3.62,2.92-.15,6.12,2.12,9-.66,4.16-4.07,8.69-7.73,7.15-14.81-.51-2.31,2.29-6-2.91-5.78-.58,0-.88-1-.68-1.69.49-1.8-.74-2.07-1.95-2.33-1.05-.23-2.22-.4-2.83-1.34-2.52-4-6.64-2.9-9.92-2.66-3.94.29-8,1.74-11.85,2.42-6,1-8,1.51-10,7.21Zm79.24,93.85.06-.71c-.74-.23-1.49-.42-2.22-.68-2.29-.85-5.15-1.07-5.38-4.45s-.32-6.53-.42-9.8c-.07-2.21.4-3.4,3.19-3.07,5.14.62,10.29.78,13.1-5.36.55-1.22,3.18-1,3.16-3.49,0-3.36-.64-6.77.56-10.08.17-.48-.4-1.79-.63-1.79-4,0-5.12-4.2-7.65-6.1a13,13,0,0,0-9.32-2.67c-6,1-12.24,1.11-17.86,4.08-3,1.61-7.48,8.71-8.16,11.92-.87,4.16,3.22,6.11,3.22,9.71,0,1.8.74,2.76,2.92,2.84,3.26.14,6.5,1,9.75,1.5,2.7.42,4.28,1.61,4.23,4.77-.19,11,1.72,9-8.63,12.58l-2.19.8ZM57.37,50.54v0c2.11,0,4.23,0,6.34,0,1.26,0,2-.48,2-1.86s-.74-1.9-2-1.9H51.48c-1.15,0-2.18.25-2.11,1.74a1.91,1.91,0,0,0,2.06,2C53.41,50.57,55.39,50.54,57.37,50.54Zm.46,3.57c-2.12,0-4.24,0-6.35,0-1,0-1.93.34-1.9,1.57s1,1.47,2,1.48c4.1,0,8.2,0,12.3,0,1,0,1.86-.28,1.83-1.57s-.94-1.49-1.92-1.5C61.79,54.09,59.81,54.11,57.83,54.11Z"/><path class="b" d="M207.32,103.82H185.05l2.19-.8c10.35-3.63,8.44-1.58,8.63-12.58,0-3.16-1.53-4.35-4.23-4.77-3.25-.5-6.49-1.36-9.75-1.5-2.18-.08-2.92-1-2.92-2.84,0-3.6-4.09-5.55-3.22-9.71.68-3.21,5.12-10.31,8.16-11.92,5.62-3,11.91-3.11,17.86-4.08a13,13,0,0,1,9.32,2.67c2.53,1.9,3.66,6.13,7.65,6.1.23,0,.8,1.31.63,1.79-1.2,3.31-.58,6.72-.56,10.08,0,2.52-2.61,2.27-3.16,3.49-2.81,6.14-8,6-13.1,5.36-2.79-.33-3.26.86-3.19,3.07.1,3.27.2,6.54.42,9.8s3.09,3.6,5.38,4.45c.73.26,1.48.45,2.22.68Zm-5.91-26.26c-1.26-2.16-3.31-1.35-4.69-1.35s-3.62-1.1-4.34.55c-.8,1.84,1.73,1.86,2.64,2.85.62.68.24,2.76,2.31,1.84C199.21,80.62,199,77.88,201.41,77.56Z"/><path class="c" d="M277.33,73.76c.1-.43.2-.86.31-1.29l.28-.13-.29.08-.09-.35c0-.82,0-1.64-.05-2.45a2.9,2.9,0,0,0,.27-.41c.46.2.7,0,.82-.45l.08-.05c1.18-2.47,3.74-4.2,3.69-7.32,2.66-.77,4.33-5.15,8-2.28.29.23.67.55,1,.08,2.84-4.11,7.56-2.77,11.25-3.27a13.86,13.86,0,0,1,9.64,2.22c2.71,1.81,3.53,6.16,7.6,6,.66,0,1.11,1.43.92,2.44-.16.78-.78,1.6-.65,2.3,1,5.44-.28,9.93-4.79,13.22-2.81-.63-2.86,3.63-5.52,3.26l-.78-.46c-1.62-1.49-4.4.67-5.39-1.18-1.5-2.8-1.95-1.38-2.49.27-1.62,5-.71,10.14-.37,15.21.1,1.61,1.67,2.28,3.28,2.3l.1.06c.59,1,.63,1.73-.86,1.72-3,0-6,0-9.25,0,4-3.18,5.08-9.24,3-15.71l-.53-.75c1.68-1.51.55-4.27,2.42-5.69a5.63,5.63,0,0,0,3.72-1c1.49-1.29,1.71-3.28-.2-3.75s-4.22-1.6-6.37-.23c-1,0-2.24-.62-2.58.8-.25,1.07.85,1.48,1.67,1.84.58.25,1.2.41,1.8.62l0,0c-.87,3.81-3.77,5.23-7,3.46a3.3,3.3,0,0,0-3.27.12c-2.05.92-4.9,1.89-5.53-1.59C280.57,78.33,280.87,75.14,277.33,73.76Z"/><path class="c" d="M117,19.85l0,1.42c0,.29,0,.58-.07.87h0c-.24.3-.49.59-.74.88h0c-4.91-.79-4.89,4.22-7.22,6.47l0,0-2.31,0,0,0a1.78,1.78,0,0,0-1.72-.8c-3,.29-4.78-.14-3.7-4.14.38-1.4.3-5-3.4-3.58l-3.1-.4c-2.48.22-4.68.6-1.83,3.64.82.87.84,1.34-.31,2.14-1.94,1.32-3.61,2.72-5.91.71-.84-.74-1.79-.48-2.91,0-4.22,1.93-6.17.25-5.49-4.63.15-1.08.83-2.18-.71-2.65-3.44-1.06-2.32-3.65-1.32-5.47a9,9,0,0,0,.94-4.22c1.19-3.57,3.73-5.75,7-7.21.24-.11.62-.41.68-.35,2.88,2.83,4.72-1.11,7.11-1.12,2.82,0,5.68-1.8,8.08-1.19,3,.76,6.18.48,9.42,2.5C112.28,4.54,112.89,9.17,117,9a2.2,2.2,0,0,1,.7,1.69c-1,2.18-.13,4.58-.91,6.75Z"/><path class="c" d="M116.88,72l0,1.63c-.1.8,0,2.2-.31,2.3-3.81,1.22-5.34,5.14-8.36,7.19-2.3,1.58-6.5.17-7.27-2,.89-5.3-3.36-4.68-6.21-5.68-5,.72-2.91,4.65-3.25,7.49C90,83.73,88.65,86.24,87,83c-.37-.7-1.59-.56-2.55-.13-4.43,2-6.74.45-6.85-4.51,0-.87.93-2.31-.2-2.52-4.67-.87-1.8-4.43-2.49-6.69,2.15-.9,2.45-3.48,2.86-5,1.08-4,4.91-4,7-6.25a.46.46,0,0,1,.37-.14c5.21,2,9.55-2.95,14.42-2.07,3.17.57,6.35.25,9.73,2.47,2.83,1.87,3.81,5.8,7.85,6.44,2.08.34-.38,3.26-.23,5Z"/><path class="c" d="M277.37,18l.33-1,.3,0-.31-.28-.11-.24,0-2.45.21-.23c2.6-1.66,3.35-4.63,4.78-7.12,3.13-.8,6.55-.91,9.45-1.85,5.39-1.75,10.46-4.06,16.27-2.49.71.19,11,8.69,10.92,9.43-.47,4.06,2,9.2-3.85,11.35-.72.26-.69,1.05-.9,1.69-1.28,3.85-4.47,3.06-7.3,3.09-3.16,0-2.07-2.47-2.27-4.13a2.46,2.46,0,0,0-2.17-2.48l-1-.64c-.7-1.1-1.82-1-2.83-.91-2.06.12-4.47-.84-6.09.59-1.81,1.61,1.23,2.87,1,4.6a31.21,31.21,0,0,0-.07,3.21h-1.2l-1.93-.29c-1.36-1.17-2.47-1.13-4.22-.24s-4.73,1.9-5.3-1.59C280.6,22.87,280.4,19.81,277.37,18Z"/><path class="d" d="M255.94,57.11l.73-.07c2.64,2.09,5.89,3.13,7.58,6.78.89,1.93,3.72,3,3.88,5.84.14,2.4,1,5.31-1.18,6.81a9.87,9.87,0,0,0-3.82,4.68c-1.6,3.59-5.26,2.44-8.12,2.26-3.27-.21-.81-2.73-1-4.07-.45-3.54-2-4.56-5.7-3.17l-1.55-.08c-1.1-1.58-2.08.84-3,.13-.8-.59-1.55-1.32-2.24-.15s0,1.94.81,2.8,2.17,1.63,2.12,3.21c-1.57,1.37-3.1,2.5-5.11.58a2.5,2.5,0,0,0-2.61-.22c-5.62,2.06-6.78,1.09-6.27-5.4.14-1.81-.87-1.59-1.94-1.5-1.18-3.63,1.51-6.62,1.57-10a.58.58,0,0,1,.41-.15c1.38-.36,1.08-1.48,1.06-2.47a1.26,1.26,0,0,1,.17-.57A36.59,36.59,0,0,0,241,60.54,46.63,46.63,0,0,1,255.94,57.11Z"/><path class="c" d="M2.21,41.8a.47.47,0,0,1-.2-.53l0-2.93v0a.86.86,0,0,0,.84-.87l0,0c2,.62,2.53-.8,3-2.29a12.74,12.74,0,0,1,3.57-5.65l.06,0c2.79-1.33,5.34-2.24,7.73,1.1.82,1.15,2.77.57,4.33-.37,3.23-1.94,5.77-1.14,7.49,2.21.77,1.5,1.57,3.35,3.11,3.35,7,0,5.83,7.39,9.35,10.47.12.1,0,.51,0,.76C41,48.67,34.6,54,33,54c-2,0-3.78-.38-3.7-3.07a.43.43,0,0,1,.49-.32c2.2.66,2.74-.93,3.2-2.53.41-1.43.91-3.61-.62-3.92-2.41-.48-.58,1.87-1.08,2.79-.37.67-1.29,1-1.16,2l-2.42.22a1.47,1.47,0,0,0-.8-1.63h0c-.16-.27-.33-.53-.5-.8l-.4-.81c-.24-3.61-2.38-5.33-5.58-6.23-1.34-.38-2.07-.21-2.17,1.24-.07,1.1-.26,3.5.66,3,3.71-2.16,2.76,2.16,4.3,2.81-.11,1.09-.23,2.19-.34,3.29l-1,.17-1.37,0c-2.2-1.41-5.75-.56-6.65-4.21-.1-.39-1.12-.51-1.18.22s-1.64,1.7,0,2.67A16.85,16.85,0,0,1,15,50.87l0,.6c-.17.89.05,2.11-1.06,2.39-3.78.94-7-1-10.25-2.45-2.8-1.24-1.95-4-1.52-6.31v0C4.11,44,4.09,42.91,2.21,41.8Z"/><path class="e" d="M128.12,9.94c1.94-5.7,4-6.16,10-7.21C142,2.05,146,.6,149.94.31,153.22.07,157.34-1,159.86,3c.61.94,1.78,1.11,2.83,1.34,1.21.26,2.44.53,1.95,2.33-.2.73.1,1.71.68,1.69,5.2-.18,2.4,3.47,2.91,5.78,1.54,7.08-3,10.74-7.15,14.81-2.84,2.78-6,.51-9,.66-3.11.16-3.62,1.05-3.47,3.62,0,.54,0,1.09.06,1.63.26,6-.94,12.86,9.28,12.38l-1.2,1.13H134.24c2.82-1.05,5-2.17,7.3-2.63,3.11-.61,3.49-2.52,3.5-5.27,0-11.9-.18-8.82-9.61-11.09a10,10,0,0,0-3.11-.4c-3,.26-4.38-1.3-4.52-4.11-.12-2.37-2.33-3.65-2.73-5.64a9.58,9.58,0,0,1,3-9.23,7.72,7.72,0,0,1-1.14,4.58c-.94,1.36-1.3,4.1.33,4.71,2.5.92,2.25,2.5,2.36,4.38.22,3.51,2,4.55,5.12,3.07a2.81,2.81,0,0,1,3,.09,3.65,3.65,0,0,0,5.32-.75c1.17-1.55-1.67-2.29-1.78-3.87A3.91,3.91,0,0,1,144.78,25c.22.64.57,1.48,1.32.77,1.58-1.51,4.74-1.71,4.14-5.09,2.74.52,2.25,3,2,4.53-.46,2.61.74,2.59,2.55,2.74,3.27.26,6-.23,7.61-3.67a5.57,5.57,0,0,1,3.28-2.83c.9-.31,1.09-.76,1.09-1.77,0-2.75-.58-5.56.69-8.22.33-.69.07-1.57-.75-1.45-2.7.41-3.25-2-4.77-3.28-2.69-2.27-5.15-5.07-9.3-5.1-7.39,0-13.79,3.85-20.86,4.94C129.84,6.88,130.25,9.87,128.12,9.94Z"/><path class="e" d="M231.52,5.81c2.56-1.16,4.32-4.17,7.94-2.95,1.83.62,3.47-1.41,5.5-1.74A54.8,54.8,0,0,1,258.3.31a2,2,0,0,1,1.91,1.18,4.9,4.9,0,0,0,4.08,2.85,2,2,0,0,1,2,2.12c0,.52.09,1.37.39,1.5,7.39,3.31.94,9.47,2.51,14.07.34,1-3.35,3.38-5.08,5.23-1.87,2-3.5,3.84-6.76,2.3-1.48-.7-3.55.49-5.46.1-1.51-.32-1.58,1.14-1.57,2.21,0,3.54.05,7.09.22,10.62.12,2.52,2.36,3,4,4,1.12.66,2.68.25,3.87,1.83H235.33l5.28-1.6c1.29-.44,3.15.78,3.86-1.39l.26-.08c2.34-.2,2.09-2,2.09-3.6q0-6.36-.12-12.73c0-1.57-1.06-2-2.39-2a3.29,3.29,0,0,0-1.44-3.43c-2.82-2.13-.71-3,1-3.65a2.65,2.65,0,0,1,2.91.52,1.47,1.47,0,0,0,1.45,1.93c.09,1.94.38,3.4,2.47,1.26a17.37,17.37,0,0,1,1.77-1.41c1.71.3,1.55,1.71,1.45,2.86-.23,2.49,1,3,3.09,2.93,2.66,0,10.6-5.58,11.22-8.07a6.71,6.71,0,0,0,.06-1.62c0-4-.19-7.3-3.59-10.81-3.56-3.66-12.29-7-16.38-5.15-5.3,2.37-11,3.14-16.56,4.41Z"/><path class="e" d="M168.07,67.32a2.3,2.3,0,0,0-.08.81c1.81,6.87-1.8,11.15-6.21,15.67-3.26,3.35-6.53,1.06-9.57,1.22-3.47.19-3.64,1.5-3.53,4,0,.82,0,1.63.07,2.45.26,9,.26,9,8.12,12a138.73,138.73,0,0,1-23.09.31c2.86-.94,4.82-1.69,6.83-2.24,3.49-1,4.65-3,4.47-6.82-.37-7.85-.15-7.86-7.61-9.51a12.77,12.77,0,0,0-2.73-.4c-4,0-6.73-1.22-7.6-5.94-.46-2.53-2.79-4.63-2.19-7.69.22-1.13.17-2.18,1.55-2.42l.22.21c0,1.76-.76,4.58,0,5.07,2.3,1.51,1.58,3.53,1.89,5.46.63,3.81,2.5,5,5.83,3.21,1.66-.88,2.72-.38,4,.25A3.41,3.41,0,0,0,143,81.93c1.47-1.8-.52-2.53-1.17-3.24-1.88-2,.61-3,1-2.73,1.51,1.22,2.1-.64,3.21-.64,4.62,0,6,1.34,6.08,6.39,0,1.24.53,1.58,1.6,1.8,5.34,1.11,12.49-5,12.69-10.64.07-2-1.26-4.45,1.34-5.87C167.85,67.1,168,67.21,168.07,67.32Z"/><path class="e" d="M302.75,21.29a2.46,2.46,0,0,1,2.17,2.48c.2,1.66-.89,4.17,2.27,4.13,2.83,0,6,.76,7.3-3.09.21-.64.18-1.43.9-1.69,5.88-2.15,3.38-7.29,3.85-11.35.08-.74-10.21-9.24-10.92-9.43-5.81-1.57-10.88.74-16.27,2.49-2.9.94-6.32,1-9.45,1.85-.07-.31-.15-.62-.22-.93,2.42-1.55,4.53-2.95,7.89-3.14S297.32.84,300.89.41a17.5,17.5,0,0,1,11.52,2.32C315.28,4.39,316,8.64,320,8.58c.72,0,1.28,1.63.91,2.81-.32,1-.86,1.92-.6,3.11,1.1,5.14-1.16,8.62-4.56,12.36-3.92,4.29-8.23,2.52-12.51,2.71-.11-.75.3-1.81-.65-2.11s-1,.75-1.16,1.3c-1.94,5.42-1.06,10.75.52,16.05l.12.11c0,.38.06.63.44.21L309,47.82c0,.16,0,.32,0,.48H286.55c3.8-1.75,9.14-1.27,10.23-5.19,1-3.64,2.22-8.5-1.31-12.16.68-.79,2.73-.64,1.88-2.43s-2.36-.55-3.59-.38a31.21,31.21,0,0,1,.07-3.21c.2-1.73-2.84-3-1-4.6,1.62-1.43,4-.47,6.09-.59,1-.06,2.13-.19,2.83.91-2.33-.56-4.39,2.16-6.88.3.62,1.49,1.34,2.59,1.91,3.77s1,2,2.24.81c1.46-1.42,3.06-.54,4.86.06C303.73,23.8,301.88,22.86,302.75,21.29Z"/><path class="e" d="M219,11.62a4.83,4.83,0,0,0-.21,1.61c1.49,6.7-1.88,10.94-6.35,15.28-3.26,3.17-6.5.93-9.51,1.06-3.52.14-3.6,1.51-3.49,4,.06,1.5.16,3,.22,4.49.28,7,.27,7,6.85,9.15a20.83,20.83,0,0,1,2.27,1.17H184.62c1.18-.44,1.52-.59,1.87-.69,9.58-2.69,9.62-2.86,9.13-13-.14-3-1.53-4.1-4.09-4.46-3.26-.46-6.5-1.27-9.76-1.38-2.57-.09-2.77-1.46-2.74-3.38l.24-.17c2,.65,3.38,3.61,5.79,2,1.65-1.12,2.8-1.08,4.22,0,1.26,1,2.1.24,3-.7s.66-1.48,0-2.37-2.48-1.58-.84-3.24c1.43-1.45,2.82-1.84,4.42-.35-.08.25-.08.64-.25.74-1,.57-2.19-1.85-2.92-.05-.65,1.58,1.18,1.72,2.05,2.39a3.12,3.12,0,0,1,.95,1.19c1,2.68,2.27.52,2.75-.11,1.32-1.72.28-3.2-1.06-4.44,4.17-1,5.77.18,5.91,4.7.05,1.36-.6,2.55,1.5,2.91,5.56.94,12.4-4.91,12.61-10.73.07-2-1.19-4.42,1.31-5.88Z"/><path class="e" d="M2.17,45.1c-.43,2.35-1.28,5.07,1.52,6.31,3.22,1.43,6.47,3.39,10.25,2.45,1.11-.28.89-1.5,1.06-2.39,5.67,3.44,6.09,3.36,6.85-1.33l1-.17c.62.87,1.6.63,2.44.82l0,0c.75,1.34-1.62,1.64-1,3,2.44.44,3.48-1.63,5-2.84C29.17,53.61,31,54,33,54c1.65,0,8.08-5.32,8.44-6.9.06-.25.14-.66,0-.76-3.52-3.08-2.36-10.48-9.35-10.47-1.54,0-2.34-1.85-3.11-3.35-1.72-3.35-4.26-4.15-7.49-2.21-1.56.94-3.51,1.52-4.33.37-2.39-3.34-4.94-2.43-7.73-1.1,3.67-4.12,3.67-4.12,7.86-.25a2.39,2.39,0,0,0,3.53.21c3.38-2.61,6.82-2.07,8.7,1.67a7.11,7.11,0,0,0,5,4.07C37.4,36,40,37.5,39.85,41.33a1.65,1.65,0,0,0,.38,1.12c2,2,4.05,4,1.33,6.8-3,3.15-5.78,7.13-11.07,5.39-2.84-.94-5.4.18-7.51,1.67-4.46,3.15-3.73,7.18,1.44,9.35a1.43,1.43,0,0,0,1.42.71l1.05.86.66.58.22.26c-.79,1.21-1.55.26-2.34,0-.47-.15-1.13-.44-1.28.26-.08.36.42.85.65,1.28.7,1.93,1.3,4,4,3.32l-.08.18c-.06,1.51-.68,2.13-2.28,2.44-1.93.38-1.29-1.17-1.73-1.82a35.74,35.74,0,0,1-1.82-3.54c-.33-2.44-2.13-2.89-4.07-3.15,1.69-2.4-.72-4.83.05-7.23.09-.13.19-.25.29-.38l-.35.32c-3.54.76-2.37,4.35-3.55,6.52-.48.89,1.32.76,2.13,1-.56,1-1.58,2.1-1.56,3.13,0,1.36.3,2.54-1.45,2.29-2.26-.32.33-2-.91-3.06A3,3,0,0,0,11,72.33c-.24,1.23-1.05,1.67-2,1s0-1.36.43-2c.58-.9,1.17-1.8,2.34-3.59a9.84,9.84,0,0,0-5,5c-.68,1.42-.78,4-3.32,1.66-.08-.08-.81.56-1.24.87h0C5.38,71.61,7.59,67,12.58,65c3.83-1.5,3.49-6.26,5.72-9.16C19,55,16.8,54,15.44,54.59c-5,2.23-9.23-.57-13.33-2.67C-.84,50.4-.58,48,2.17,45.1Z"/><path class="e" d="M244.45,82.08c.05-1.58-1.28-2.26-2.12-3.21s-1.44-1.73-.81-2.8,1.44-.44,2.24.15c1,.71,1.93-1.71,3-.13-1.17,1.89-2.52,3.8.79,4.93l.26.18-.29-.15c.2-1-1.2-1.84-.2-2.91,1.09.31,1.15,3.41,3.09,1.2.51-.59,1.31-1.15,1.08-2-.48-1.86-2.51.43-3.18-1.16,3.72-1.39,5.25-.37,5.7,3.17.16,1.34-2.3,3.86,1,4.07,2.86.18,6.52,1.33,8.12-2.26A9.87,9.87,0,0,1,267,76.47c2.21-1.5,1.32-4.41,1.18-6.81-.16-2.84-3-3.91-3.88-5.84-1.69-3.65-4.94-4.69-7.58-6.78.45-.74,1.44-1.55,1.89-1.14,2.32,2.09,5.17,3.38,7.44,5.38.88.78.28,3,2.81,2.56,1.3-.24,1.27,1.52,1.25,2.52s-.79,2.19-.57,3.12c1.45,6.12-2,9.6-5.62,13.81s-7.1,1.3-10.52,1.83c-2.48.38-3.23.85-3.14,3.16.06,1.36,0,2.72.09,4.08.2,8.35.2,8.35,7.68,10.72-3.33,1.28-16,1.58-22.23.5l4.79-1.28c4.85.23,6.72-1.94,6.34-6.77-.28-3.61-.17-7.26-.15-10.89C246.74,83,246.11,82.09,244.45,82.08Z"/><path class="e" d="M77.09,10.1a9,9,0,0,1-.94,4.22c-1,1.82-2.12,4.41,1.32,5.47,1.54.47.86,1.57.71,2.65-.68,4.88,1.27,6.56,5.49,4.63,1.12-.51,2.07-.77,2.91,0,2.3,2,4,.61,5.91-.71,1.15-.8,1.13-1.27.31-2.14-2.85-3-.65-3.42,1.83-3.64-.4,1.35,1.13,1.61,1.39,2.59.19.74.29,1.77,1.37,1.28A3.82,3.82,0,0,0,99,22.79c.68-1.28-.46-1.49-1.26-1.84,3.7-1.39,3.78,2.18,3.4,3.58-1.08,4,.69,4.43,3.7,4.14a1.78,1.78,0,0,1,1.72.8c-2.24-.34-4.44.85-6.71.17a1.22,1.22,0,0,0-1.64,1.25c-.21,4.35-.42,8.77.56,13,.44,1.91,3,2.47,4.89,3,.84.24,1.89,0,2.68,1.45H83.54c3.19-1.19,5.62-2.27,8.14-3,2.08-.58,2.75-1.89,2.76-3.86,0-.13,0-.27,0-.41-.22-12.37.42-9.43-9.48-11.7a12.28,12.28,0,0,0-3.5-.45c-3,.17-4.51-1.31-4.49-4.18,0-2.59-2.65-3.67-2.8-6.09A11.33,11.33,0,0,1,77.09,10.1Z"/><path class="e" d="M91.51,82.92c.34-2.84-1.72-6.77,3.25-7.49-.15,4.46,3.29,4.77,6.21,5.68.77,2.2,5,3.61,7.27,2,3-2,4.55-6,8.36-7.19.31-.1.21-1.5.31-2.3,2.53,5.17-3.19,5.73-4.69,8.66-2.65,5.18-7.63,2.48-11.58,2.85-2,.18-2.6.63-2.56,2.45.08,3.4.24,6.79.23,10.19,0,2,1.4,2.85,2.81,3.53s3.16,1.2,4.75,2.09a113.72,113.72,0,0,1-22.59.32c4.14-1.6,9.23-1.3,10.62-5,1.32-3.55,1.69-8.23-.94-12,.6-1.09,2.18-1.85,1.31-3.42C93.6,82,92.49,82.55,91.51,82.92Z"/><path class="e" d="M179,9.83c1.75-5.66,3.73-6.69,10.05-7a27.06,27.06,0,0,0,7-1.93c4-1.42,7.86.28,11.73-.52,1.09-.22,1.57.84,2,1.64,1.57,2.69,6.41,1.86,6.42,6.39,0,.64,2.79-1.19,2.75,1.41l-.3.3c-1.46-.7-3.18.43-4.64-1.42-5.84-7.34-9.19-8.38-17.84-5.82-2.39.7-4.81,2.78-6.74,2.47-4.8-.78-7.57,1.55-10.26,4.76Z"/><path class="e" d="M134.47,59a1.24,1.24,0,0,1,1.19-1.36c5.17.8,9.85-2.45,14.72-2.07,3,.23,6.76-1.11,9.35,2.48,1.49,2.07,5.52,1.83,5.33,5.73a6.89,6.89,0,0,1,1.88.09c1.82.6,2.67,1.63,1.13,3.44-.11-.11-.22-.22-.34-.32-3.78-1.16-5.95-4.64-8.71-7-3.45-3-7-3-10.64-2.52-4.57.54-8.76,3.94-13.7,1.81Z"/><path class="f" d="M244.45,82.08c1.66,0,2.29.9,2.28,2.56,0,3.63-.13,7.28.15,10.89.38,4.83-1.49,7-6.34,6.77,6.36-1.89,5.76-7,5.63-12.17-.07-2.4-1-3.47-3.13-3.81-3.12-.49-6.23-1.36-9.35-1.39s-4.45-1.65-4.95-4.46c-.27-1.58-.31-3.24-1.8-4.26l1.58-.67c1.07-.09,2.08-.31,1.94,1.5-.51,6.49.65,7.46,6.27,5.4a2.5,2.5,0,0,1,2.61.22C241.35,84.58,242.88,83.45,244.45,82.08Z"/><path class="f" d="M244.31,26.94c1.33,0,2.37.44,2.39,2q.11,6.38.12,12.73c0,1.59.25,3.4-2.09,3.6,2.58-4,1.27-8.34,1-12.53-.1-1.47-2.11-1.95-3.52-2.19a39,39,0,0,0-8.2-1c-3.58.14-5.08-1.63-5.36-4.87s-4.07-5.46-2.93-9.31c.21-.72.36-1.21,1-1.5l.29.28c.75,1.87-1.64,4.75,1.39,5.73,1.66.54,2.16.46,1.36,2.49a4.72,4.72,0,0,0,1.4,5.11c1.35.91,3.5,2.07,5.33.05a1.83,1.83,0,0,1,2.83.08C241.49,30.53,242.8,28.3,244.31,26.94Z"/><path class="f" d="M57.37,50.54c-2,0-4,0-5.94,0a1.91,1.91,0,0,1-2.06-2c-.07-1.49,1-1.74,2.11-1.74H63.76c1.25,0,2,.5,2,1.9s-.78,1.87-2,1.86c-2.11,0-4.23,0-6.34,0Z"/><path class="f" d="M297,87.59c2.06,6.47,1,12.53-3,15.71,3.29,0,6.27,0,9.25,0,1.49,0,1.45-.69.86-1.72,1.76.68,5.3.26,5,1.82-.42,2.4-3.55,1-5.47,1.09-4.5.21-9,.11-13.52,0-1.25,0-2.68.47-3.78-1,2-.72,3.95-1.5,5.93-2.09,3.67-1.09,5.42-3.23,4.73-7.38C296.68,92,297,89.77,297,87.59Z"/><path class="f" d="M298.93,81.15c-1.87,1.42-.74,4.18-2.42,5.69q-6.94-1.12-13.88-2.27c-.62-.11-1.67-.28-1.75-.61-.84-3.53-3.17-6.52-3.55-10.2,3.54,1.38,3.24,4.57,3.8,7.63.63,3.48,3.48,2.51,5.53,1.59a3.3,3.3,0,0,1,3.27-.12c3.25,1.77,6.15.35,7-3.46C297.91,79.62,298.36,80.46,298.93,81.15Z"/><path class="e" d="M255.94,57.11a46.63,46.63,0,0,0-15,3.43,36.59,36.59,0,0,1-9.25,1.77l-.27-.89c2.48-1.68,4.63-3.12,8.12-3.39a46.07,46.07,0,0,0,11.17-2.36C252.92,54.93,254.59,55.18,255.94,57.11Z"/><path class="f" d="M91.51,82.92c1-.37,2.09-.88,2.76.33.87,1.57-.71,2.33-1.31,3.42-4.15-.6-8.29-1.26-12.45-1.76-1.9-.22-3.19-.71-3.51-3-.53-3.75-4.16-6.59-3.13-10.87.19-.75-.07-1.66,1-1.9.69,2.26-2.18,5.82,2.49,6.69,1.13.21.19,1.65.2,2.52.11,5,2.42,6.52,6.85,4.51,1-.43,2.18-.57,2.55.13C88.65,86.24,90,83.73,91.51,82.92Z"/><path class="f" d="M293.76,28.14c1.23-.17,2.71-1.44,3.59.38s-1.2,1.64-1.88,2.43l-13.16-1.82c-.38-.05-1-.06-1.08-.23-1-3.74-4-6.77-3.86-10.92,3,1.83,3.23,4.89,3.74,8,.57,3.49,3.62,2.44,5.3,1.59s2.86-.93,4.22.24c.05.6-.07,1.35.75,1.46s.92-.63,1.18-1.17Z"/><path class="f" d="M57.83,54.11c2,0,4,0,6,0,1,0,1.88.19,1.92,1.5s-.82,1.57-1.83,1.57c-4.1,0-8.2,0-12.3,0-1,0-2-.24-2-1.48s.91-1.55,1.9-1.57C53.59,54.09,55.71,54.11,57.83,54.11Z"/><path class="f" d="M304,101.53c-1.61,0-3.18-.69-3.28-2.3-.34-5.07-1.25-10.2.37-15.21.54-1.65,1-3.07,2.49-.27,1,1.85,3.77-.31,5.39,1.18-7.49,1.58-7.44,1.58-7.38,9.8C301.64,97.35,301.68,99.84,304,101.53Z"/><path class="e" d="M179,25.45c-1.16-2.13-2.9-4.15-3.32-6.42A9.56,9.56,0,0,1,179,9.83l.25.25a22.47,22.47,0,0,1-.88,3.48c-1.08,2.35-2.68,5,1.39,6.35,1.14.38.9,1.54.26,2.36a3.45,3.45,0,0,0-.73,3Z"/><path class="f" d="M28.76,73.1l.08-.18c-.82-1.77-1.6-3.61-4-3.32-.23-.43-.73-.92-.65-1.28.15-.7.81-.41,1.28-.26.79.27,1.55,1.22,2.34,0,2.62,2.52,6.66,3.61,7.49,8.07C33.79,73.38,29.65,77.14,28.76,73.1Z"/><path class="f" d="M18.86,67c1.94.26,3.74.71,4.07,3.15-2,2.16,1.18,4.69-.91,7.34L18,67.25Z"/><path class="d" d="M18.86,67l-.83.22-.3,0-.3,0c-.81-.21-2.61-.08-2.13-1,1.18-2.17,0-5.76,3.55-6.52l.06.06C18.14,62.2,20.55,64.63,18.86,67Z"/><path class="f" d="M301.92,44.81c-1.58-5.3-2.46-10.63-.52-16,.19-.55.28-1.59,1.16-1.3s.54,1.36.65,2.11c-2,.34-2,2.08-1.94,3.46C301.36,37,301.69,40.88,301.92,44.81Z"/><path class="e" d="M9.34,29.59a12.74,12.74,0,0,0-3.57,5.65c-.47,1.49-1,2.91-3,2.29C3.76,36.05,5,34.85,5,32.71,5.09,30.27,7.41,30,9.34,29.59Z"/><path class="e" d="M228.52,75.54l-1.58.67-.18-.19a.79.79,0,0,0-.2-.67l.15-2.44c0-.3,0-.61,0-.91-.07-.53-.13-1-.2-1.58.06-.28.12-.56.19-.84,1-.86,1.9-1.8,1.8-3.3l1.55-.78C230,68.92,227.34,71.91,228.52,75.54Z"/><path class="e" d="M108.91,29.49c2.33-2.25,2.31-7.26,7.22-6.47C113.15,24.5,112.19,28.37,108.91,29.49Z"/><path class="f" d="M231.52,5.81l.24.9c-1.49,2.54-2.2,5.61-4.75,7.43l-.29-.28C228.46,11.27,228.78,7.78,231.52,5.81Z"/><path class="f" d="M282.38,5.75c.07.31.15.62.22.93-1.43,2.49-2.18,5.46-4.78,7.12C278.91,10.87,279.62,7.7,282.38,5.75Z"/><path class="f" d="M282.35,61.39c0,3.12-2.51,4.85-3.69,7.32A8.73,8.73,0,0,1,282.35,61.39Z"/><path class="f" d="M309.78,85.39c2.66.37,2.71-3.89,5.52-3.26C313.93,84.07,313.24,87.19,309.78,85.39Z"/><path class="f" d="M230.09,65.5l-1.55.78a9.57,9.57,0,0,1,2.92-4.86l.27.89a1.26,1.26,0,0,0-.17.57c-.87.59-.82,1.59-1.06,2.47A.58.58,0,0,0,230.09,65.5Z"/><path class="e" d="M130.54,60.69c.77-1.88,2.84-.58,3.93-1.68l.21.23c-.68,2.14-2.68,1-3.94,1.66Z"/><path class="f" d="M244.47,45.36c-.71,2.17-2.57,1-3.86,1.39C241.67,45.61,242.83,44.77,244.47,45.36Z"/><path class="e" d="M126.5,68.81c.47-1.13-.11-2.76,1.52-3.34l.26.25c-.4,1.16.08,2.76-1.56,3.3Z"/><path class="e" d="M2,38.34l0,2.93C.68,40.3.06,39.33,2,38.34Z"/><path class="e" d="M2.21,41.8c1.88,1.11,1.9,2.2,0,3.27Z"/><path class="e" d="M128,65.47c.37-.92.4-2.06,1.49-2.54l.31.24c-.12,1.1-.29,2.17-1.54,2.55Z"/><path class="e" d="M106.58,29.49l2.31,0C108.11,30.89,107.34,30.54,106.58,29.49Z"/><path class="f" d="M277.61,14l0,2.45C276.79,15.65,276.62,14.83,277.61,14Z"/><path class="e" d="M117,19.85l-.15-2.43A2,2,0,0,1,117,19.85Z"/><path class="e" d="M116.88,72l0-2.35A1.56,1.56,0,0,1,116.88,72Z"/><path class="f" d="M277.49,69.62c0,.81,0,1.63.05,2.45A1.59,1.59,0,0,1,277.49,69.62Z"/><path class="e" d="M129.51,62.93c.16-.83.21-1.72,1-2.24l.2.21c-.31.76-.61,1.52-.92,2.27Z"/><path class="f" d="M25.84,66.37a1.43,1.43,0,0,1-1.42-.71A1.18,1.18,0,0,1,25.84,66.37Z"/><path class="e" d="M219,9.79c.83.62.61,1.23,0,1.83l-.3-.28,0-1.25Z"/><path class="f" d="M277.69,16.72,278,17l-.3,0Z"/><path class="e" d="M116.87,22.14c0-.29,0-.58.07-.87a3.55,3.55,0,0,1,.17.64C117.12,22,117,22.06,116.87,22.14Z"/><path class="e" d="M116.12,23c.25-.29.5-.58.74-.88C117,22.74,116.66,23,116.12,23Z"/><path class="f" d="M27.55,67.81l-.66-.58Z"/><path class="f" d="M278.58,68.76c-.12.44-.36.65-.82.45Z"/><path class="e" d="M2.81,37.51a.86.86,0,0,1-.84.87Z"/><path class="f" d="M226.74,69.58c-.07.28-.13.56-.19.84a3.55,3.55,0,0,1-.1-.64C226.45,69.71,226.64,69.65,226.74,69.58Z"/><path class="f" d="M226.75,72c0,.3,0,.61,0,.91a5.63,5.63,0,0,1-.18-.64C226.52,72.19,226.67,72.09,226.75,72Z"/><path class="f" d="M277.63,72.42l.29-.08-.28.13Z"/><path class="f" d="M302.48,45.13c-.38.42-.44.17-.44-.21A.37.37,0,0,1,302.48,45.13Z"/><polygon class="e" points="2.16 75.32 2.06 75.41 2.19 75.32 2.16 75.32"/><path class="f" d="M226.56,75.35a.79.79,0,0,1,.2.67,3.07,3.07,0,0,1-.38-.42S226.49,75.44,226.56,75.35Z"/><path class="f" d="M201.41,77.56c-2.4.32-2.2,3.06-4.08,3.89-2.07.92-1.69-1.16-2.31-1.84-.91-1-3.44-1-2.64-2.85.72-1.65,2.93-.56,4.34-.55S200.15,75.4,201.41,77.56Z"/><path class="e" d="M298.93,81.15c-.57-.69-1-1.53-2-1.75l0,0a3.78,3.78,0,0,0-.89-3.26c2.15-1.37,4.41-.26,6.37.23s1.69,2.46.2,3.75A5.63,5.63,0,0,1,298.93,81.15Z"/><path class="f" d="M296.08,76.17a3.78,3.78,0,0,1,.89,3.26c-.6-.21-1.22-.37-1.8-.62-.82-.36-1.92-.77-1.67-1.84C293.84,75.55,295.12,76.15,296.08,76.17Z"/><path class="f" d="M97.73,21c.8.35,1.94.56,1.26,1.84a3.82,3.82,0,0,1-1.6,1.63c-1.08.49-1.18-.54-1.37-1.28-.26-1-1.79-1.24-1.39-2.59Z"/><path class="f" d="M101,81.11c-2.92-.91-6.36-1.22-6.21-5.68C97.61,76.43,101.86,75.81,101,81.11Z"/><path class="f" d="M302.75,21.29c-.87,1.57,1,2.51,1.1,4.3-1.8-.6-3.4-1.48-4.86-.06-1.26,1.22-1.72.27-2.24-.81s-1.29-2.28-1.91-3.77c2.49,1.86,4.55-.86,6.88-.3Z"/><path class="e" d="M292.56,28.14c-.26.54-.4,1.28-1.18,1.17s-.7-.86-.75-1.46Z"/><path class="f" d="M248.34,76.17c.67,1.59,2.7-.7,3.18,1.16.23.86-.57,1.42-1.08,2-1.94,2.21-2-.89-3.09-1.2-1,1.07.4,1.94.2,2.91l0,0c-3.31-1.13-2-3-.79-4.93Z"/><path class="e" d="M230.5,65.35c.24-.88.19-1.88,1.06-2.47C231.58,63.87,231.88,65,230.5,65.35Z"/><path class="f" d="M23.16,46.68c-1.54-.65-.59-5-4.3-2.81-.92.53-.73-1.87-.66-3,.1-1.45.83-1.62,2.17-1.24,3.2.9,5.34,2.62,5.58,6.23C24.91,45.75,24.28,47.11,23.16,46.68Z"/><path class="a" d="M23.16,46.68c1.12.43,1.75-.93,2.79-.79l.4.81c-.11.45,0,.73.5.8h0c0,.68-.32,1.52.8,1.63l2.42-.21c-.11.56-.22,1.11-.34,1.67a.43.43,0,0,0-.49.32c-1.5,1.21-2.54,3.28-5,2.84-.65-1.36,1.72-1.66,1-3l.63,0-.23-.48c-.13.19-.25.38-.38.56-.84-.19-1.82.05-2.44-.82C22.93,48.87,23.05,47.77,23.16,46.68Z"/><path class="e" d="M15,50.87a16.85,16.85,0,0,0-2.34-2.08c-1.62-1-.05-1.82,0-2.67s1.08-.61,1.18-.22c.9,3.65,4.45,2.8,6.65,4.21C18.78,51.41,16.8,50.58,15,50.87Z"/><path class="a" d="M15,50.87c1.83-.29,3.81.54,5.51-.76l1.37,0c-.76,4.69-1.18,4.77-6.85,1.33Z"/><path class="e" d="M29.74,50.6c.12-.56.23-1.11.34-1.67-.13-1,.79-1.32,1.16-2,.5-.92-1.33-3.27,1.08-2.79,1.53.31,1,2.49.62,3.92C32.48,49.67,31.94,51.26,29.74,50.6Z"/><path class="e" d="M27.66,49.14c-1.12-.11-.81-1-.8-1.63A1.47,1.47,0,0,1,27.66,49.14Z"/><path class="e" d="M26.85,47.5c-.46-.07-.61-.35-.5-.8C26.52,47,26.69,47.23,26.85,47.5Z"/><path class="c" d="M141.29,22.18c.11,1.58,3,2.32,1.78,3.87a3.65,3.65,0,0,1-5.32.75,2.81,2.81,0,0,0-3-.09c-3.17,1.48-4.9.44-5.12-3.07-.11-1.88.14-3.46-2.36-4.38-1.63-.61-1.27-3.35-.33-4.71A7.72,7.72,0,0,0,128.08,10l0,0c2.13-.07,1.72-3.06,3.64-3.36,7.07-1.09,13.47-5,20.86-4.94,4.15,0,6.61,2.83,9.3,5.1C163.44,8,164,10.43,166.69,10c.82-.12,1.08.76.75,1.45-1.27,2.66-.7,5.47-.69,8.22,0,1-.19,1.46-1.09,1.77a5.57,5.57,0,0,0-3.28,2.83c-1.62,3.44-4.34,3.93-7.61,3.67-1.81-.15-3-.13-2.55-2.74.27-1.54.76-4-2-4.53l.06,0c-1.19-1.46-2.54-1-3.92-.37l-1.51.43c-.69-1.1-1.51-1.24-2.47-.38A2.06,2.06,0,0,0,141.29,22.18Z"/><path class="f" d="M144.87,20.71l1.51-.43c1.18,1.57,2.59.43,3.92.37l-.06,0c.6,3.38-2.56,3.58-4.14,5.09-.75.71-1.1-.13-1.32-.77a3.91,3.91,0,0,0-3.49-2.83,2.06,2.06,0,0,1,1.11-1.85C143.21,20.49,143.86,21.88,144.87,20.71Z"/><path class="c" d="M227,14.14c2.55-1.82,3.26-4.89,4.75-7.43,5.58-1.27,11.27-2,16.57-4.41,4.09-1.84,12.82,1.49,16.38,5.15,3.4,3.51,3.62,6.79,3.59,10.81a6.71,6.71,0,0,1-.06,1.62c-.62,2.49-8.56,8-11.22,8.07-2.08,0-3.32-.44-3.09-2.93.1-1.15.26-2.56-1.45-2.86-.09-.43-.19-.86-.28-1.29-1.16-1.85-2.5-1.32-3.88-.31l-1.53-.18a2.65,2.65,0,0,0-2.91-.52c-1.72.68-3.83,1.52-1,3.65a3.29,3.29,0,0,1,1.44,3.43c-1.51,1.36-2.82,3.59-5,.66a1.83,1.83,0,0,0-2.83-.08c-1.83,2-4,.86-5.33-.05a4.72,4.72,0,0,1-1.4-5.11c.8-2,.3-1.95-1.36-2.49C225.37,18.89,227.76,16,227,14.14Z"/><path class="f" d="M252.2,20.87c.09.43.19.86.28,1.29a17.37,17.37,0,0,0-1.77,1.41c-2.09,2.14-2.38.68-2.47-1.26l.29-.39C249.7,21.39,250.8,20.58,252.2,20.87Z"/><path class="f" d="M246.79,20.38l1.53.18.21,1.36-.29.39A1.47,1.47,0,0,1,246.79,20.38Z"/><path class="c" d="M129.82,63.17c.31-.75.61-1.51.92-2.27,1.26-.67,3.26.48,3.94-1.66,4.94,2.13,9.13-1.27,13.7-1.81C152,57,155.57,56.92,159,60c2.76,2.41,4.93,5.89,8.71,7-2.6,1.42-1.27,3.9-1.34,5.87-.2,5.65-7.35,11.75-12.69,10.64-1.07-.22-1.59-.56-1.6-1.8-.07-5-1.46-6.37-6.08-6.39-1.11,0-1.7,1.86-3.21.64-.35-.28-2.84.68-1,2.73.65.71,2.64,1.44,1.17,3.24A3.41,3.41,0,0,1,138.44,83c-1.3-.63-2.36-1.13-4-.25-3.33,1.77-5.2.6-5.83-3.21-.31-1.93.41-4-1.89-5.46-.74-.49,0-3.31,0-5.07,1.64-.54,1.16-2.14,1.56-3.3C129.53,65.34,129.7,64.27,129.82,63.17Z"/><path class="c" d="M218.71,10.09l0,1.25c-2.5,1.46-1.24,3.91-1.31,5.88C217.16,23,210.32,28.89,204.76,28c-2.1-.36-1.45-1.55-1.5-2.91-.14-4.52-1.74-5.71-5.91-4.7l-1.52.28c-1.6-1.49-3-1.1-4.42.35-1.64,1.66.16,2.36.84,3.24s.92,1.46,0,2.37-1.75,1.7-3,.7c-1.42-1.11-2.57-1.15-4.22,0-2.41,1.64-3.83-1.32-5.79-2a3.46,3.46,0,0,1,.73-3c.64-.82.88-2-.26-2.36-4.07-1.35-2.47-4-1.39-6.35a22.47,22.47,0,0,0,.88-3.48c2.69-3.21,5.46-5.54,10.26-4.76,1.93.31,4.35-1.77,6.74-2.47,8.65-2.56,12-1.52,17.84,5.82C215.53,10.52,217.25,9.39,218.71,10.09Z"/><path class="f" d="M195.83,20.62l1.52-.28c1.34,1.24,2.38,2.72,1.06,4.44-.48.63-1.73,2.79-2.75.11a3.12,3.12,0,0,0-.95-1.19c-.87-.67-2.7-.81-2.05-2.39.73-1.8,1.92.62,2.92.05C195.75,21.26,195.75,20.87,195.83,20.62Z"/><path class="a" d="M24.8,69.6c2.44-.29,3.22,1.55,4,3.32C26.1,73.59,25.5,71.53,24.8,69.6Z"/><path class="d" d="M18.85,59.74l.35-.32c-.1.13-.2.25-.29.38Z"/><path class="f" d="M247.55,81.05l.29.15-.26-.18Z"/><path class="e" d="M25.26,50.79c.13-.18.25-.37.38-.56l.23.48-.63,0Z"/><path class="e" d="M150.3,20.65c-1.33.06-2.74,1.2-3.92-.37C147.76,19.6,149.11,19.19,150.3,20.65Z"/><path class="e" d="M144.87,20.71c-1,1.17-1.66-.22-2.47-.38C143.36,19.47,144.18,19.61,144.87,20.71Z"/><path class="e" d="M248.53,21.92l-.21-1.36c1.38-1,2.72-1.54,3.88.31C250.8,20.58,249.7,21.39,248.53,21.92Z"/></svg>