<svg xmlns="http://www.w3.org/2000/svg" viewBox="0 0 250.35 279.82"><defs><style>.a{fill:#fcfdfd;}.b{fill:#1c60ac;}.c{fill:#7fccee;}.d{fill:#4575ac;}.e{fill:#316aaa;}</style></defs><path class="a" d="M235.8,112.67c2.79-2.31,2.09-4.91.61-7.58-.5-.89-1.81-1.85-.82-2.84,3.65-3.7,1.3-7.43.67-11.39-.48-3-2.57-6.22-.44-9.34,3.36-4.93,3.21-6.33-1.57-10.71a.84.84,0,0,0-.35-.69c0-.54,0-1.09,0-1.63a.91.91,0,0,0,.41-.63,2.31,2.31,0,0,0,1.56-2.6l0,0c1.55-1.23-.16-3.37,1.46-4.79,4.09-3.56,4.56-8,1.32-11.9-1.33-1.59-2.92-2.72-1.12-5.11a1.32,1.32,0,0,0-1.47-2c-1.48.53-3.49,0-4.44,1.43-2.13,3.19-6.07,2.2-8.7,4.32-1.27,1-1.81-.75-1.74-1.77.38-5.27-1.46-8.31-7.07-7.93-1,.07-1.39-.61-1.47-1.54-.06-.68,0-1.87.49-1.74,2.62.66,4.51-3.39,7.31-1.08a1.54,1.54,0,0,0,2.17-.21c.85-.83.62-1.66.15-2.58-1.75-3.43-4.85-6-8.12-6.17-4.38-.24-8.07-2.16-12.11-3.11C196,19.56,192.39,14.74,190.31,9c-1.26-3.51-2.76-5.53-6.28-6.37s-5.41,1.25-7.26,3.65c-1.61,2.08-10.91,2.39-12.49.43-.08-.1-.09-.25-.17-.37-4.85-7.32-9.92-8.27-16.85-3a3.46,3.46,0,0,1-4.21.55c-5-2.26-9-.61-11.53,4.42-.45.88-.67,2.05-1.84,1.32-1.48-.9-3.31-1-4.58-2.32-2.82-3-4-2.87-5.11.95-.45,1.5-1.9,2.51-2.4,2.08-2-1.77-4.84-1.24-6.77-2.9-2.16-1.85-3.53-1.66-5.46.82-2.29,2.94-5.71,4.88-9.07,6.44-1.07.49-2.67.09-3.31,1.52-.8,1.77.81,2.36,1.78,3.15,1.78,1.47,1.33,3.15.42,4.75a3.5,3.5,0,0,1-4.44,1.77,3.39,3.39,0,0,1-1.66-4.49c1.39-2.9,0-3.48-2.3-4.16-2.12-.62-4.37-1.52-4.14-4.52.09-1.14.27-2.32-1-2.71a2.9,2.9,0,0,0-3.2,1.17,6.93,6.93,0,0,1-4.07,3c-4,1.29-5.59,4.27-5.3,8.47.08,1.17.87,2.65-.32,3.43-1.4.93-2.41-.51-3.44-1.28-7-5.29-16.91-1.23-17.06,7.62-.07,4.5-3,6-5.17,6.44-6.22,1.26-1.83,2.9-.58,4.62.8,1.12,3.56,1.56,1.37,3.82l-.07,0c-1.84.5-3.21,2.19-5.49,1.79-1.41-.26-4.75,4.71-4,5.92,1.55,2.54.35,3.39-1.76,4-.75.21-1.72.2-1.81,1.22s.85,1.21,1.59,1.47a3.88,3.88,0,0,1,2.77,4c-.13,1.76-2.14,1.11-3.28,1.57-3.21,1.32-7.21,1.48-8,6.11a.42.42,0,0,0-.1.52c-1.39,3.13.49,5.5,1.85,7.93C27,84.49,28,86.75,25,89.32c-2.37,2.07-2.39,5.33-.88,7.92,1.39,2.39,2.25,4.2-.27,6.25a1.64,1.64,0,0,0-.22,2.23,1.78,1.78,0,0,0,2.11.77c3.25-1,6.78-1.69,9.61-3.48,3-1.92,5.3-.62,7.8.42,1.51.63,1.11,1.91,0,2.37-3.18,1.29-4.72,5.25-8.6,5.39-1.3,0-1.57,1.3-1.73,2.41s0,2.22,1.1,2.3c3,.21,3.31,3.21,5,4.81,1.3,1.26,1.86,2.36-.38,3.23a2.48,2.48,0,0,0-1.74,2.87,2.24,2.24,0,0,0,2.32,1.85c2.38.1,2.85,1.65,2.6,3.64-.29,2.37.37,4.9-1.3,7.06-.61.79-.47,2.24.62,2.35,4.34.43,8.61,3.33,13.1.44.88-.58,2.13-2.14,3.07-.79,1.51,2.18,5.1,1.57,5.69,5,.19,1.11,1.83,1.44,3,.52.6-.46.9-1.77,1.74-1.4,4.44,1.92,9.4-.08,13.69,1.7,5.93,2.46,12.13,2.92,18.27,2.94,8.05,0,14.53,3.65,21,7.73a6.45,6.45,0,0,1,3.11,6.12c-.08,7.9,0,15.8.22,23.69.23,9.66.65,19.33-.22,29-.55,6.1-1.15,6.72-7,8-2.46.56-4.93,1-7.39,1.6-4.65,1.07-8.77,3-11.44,7.34h0c-8.88,1.91-17.73,3.91-26.75,5-1.47.19-4.31-.64-4.05,1.88.21,2.11,2.91.88,4.47,1.3-1,1.3-2.46.79-3.72.78-15.38-.17-30.75-1.39-46.14-.6-7,.36-14,1.11-21.71,1.74a9.71,9.71,0,0,0,5.46,2.1c4.2.48,8.4,1.14,12.61,1.37a218.73,218.73,0,0,0,25.86,0c8.45-.53,16.77-2.36,25.3-2.26,12.2.16,24.36,1.23,36.53,1.36,27.45.3,54.83,2.45,82.27,2.62,16.58.11,33.17-.31,49.73-.93a48.28,48.28,0,0,0,12.59-1.65c-22.78-1.21-45.55-1.28-68.26-3-3.08-4-6.53-7-11.82-8-6.44-1.25-12.86-3.11-17.47-8.71-1.63-2-4.22-2.88-6.72-3.25-2.66-.4-3.5-1.88-3.58-4.4-.26-7.19-.72-14.38-.89-21.57-.35-14.25-1.89-28.47-.79-42.74.57-7.32.61-7.31,7.2-9.26h0c1.8,3.82,6,2.17,8.83,3.82.75.43,3.13-1.14,5,0,.62.38,2,.08,2-.77.06-3.32,1.56-1.71,2.85-1a3.6,3.6,0,0,0,3.43.45c2.6-1.41,5.85-.75,8.19-2.88,1.4-1.27,2.14-.19,2.73,1,1.68,3.33,5.75,3.72,7.75,6.71.46.69,1.58.27,2.13-.35,1-1.13,2.22-1.21,3.59-1.27,2.36-.09,3.42-1.38,2.53-3.8-.78-2.08-.52-3,2-2.8s5.2-.1,6.58-2.76c1.51-2.89-.59-4.78-2.37-6.65,1.34-.85,2.46-.08,3.59,0a14.64,14.64,0,0,0,10.65-3.53c2.19-1.87.59-10.2-1.69-12.68-1-1.07-3.63-1.83-2.21-3.54,1.26-1.51,2.93.8,4.41,1.41a2.22,2.22,0,0,1,1.47,2.16c.12,2.25,1.74,2.56,3,1.41,1.54-1.4,3.36-1.41,5.05-2.07,3.18-1.22,6.68-2,8.37-5.57ZM199.37,268.31h0c0,2.72,0,5.45,0,8.17,0,1-.22,2.53,1.19,2.64,2.46.19,5.07.91,7.34-.49.87-.53,1.22-1.05,2.26-.33,3.18,2.2,6.37,2.16,8.81-1.07,2-2.63.82-6.91-2.12-9.88-1.34-1.36-3.78-2.23-3.14-4.74s2.73-1.33,4.34-1.22a1,1,0,0,0,.36-.11c3.74-1.5,5.52-.31,5.55,3.73,0,3.81,0,7.63,0,11.44,0,1.42-.08,2.9,1.92,2.8,1.72-.08,1.67-1.41,1.67-2.67,0-3.95,0-7.91,0-11.86,0-1.57-.42-3.39,2-3.64,1-.1,1.14-1,1.06-1.88a1.38,1.38,0,0,0-1.61-1.41c-2.72.28-5.66-.92-8.11.81-1.15.82-1.56.14-2.35-.24-2.92-1.4-5.73-1.49-7.8,1.5-1.77,2.56-1,6.49,1.5,8.89,1.07,1,2.42,1.82,3.19,3,1,1.6.75,4.64-.95,4.09-2.9-.93-5.19,1.66-8.08.25-1.67-.82-3.51-.51-3.51-3.22,0-2.52,1.33-2.93,3.31-2.85a1.56,1.56,0,0,0,1.82-1.68,1.51,1.51,0,0,0-1.76-1.7c-1.9.07-3.37-.15-3.37-2.76s1.48-2.82,3.39-2.71c1.05.05,1.84-.27,1.86-1.55s-.56-1.63-1.64-1.89c-5.45-1.32-7.16,0-7.17,5.65Zm-83.8,3.35c1.61,1.69,1.73,3.68,2.21,5.4s1.24,2.54,2.75,2.18c2.14-.5,1-2.08.67-3.27-1-3-1.8-5.6.3-8.76,1.49-2.24.83-5.39-1.09-7.62s-4.85-1.82-7.48-1.77c-1.38,0-1.74,1-1.74,2.22,0,5.72,0,11.44,0,17.17,0,1.28.54,2.07,1.89,2.06s1.77-.87,1.73-2.15A10.17,10.17,0,0,1,115.57,271.66Zm74.33.23c1.64,1.64,1.76,3.46,2.26,5.08s1.35,2.82,3.09,2.23c2.12-.73.67-2.31.33-3.36-1-2.95-1.94-5.49.33-8.63,1.52-2.11.93-5.27-1-7.55-2.15-2.5-5.06-1.89-7.79-1.84-1.18,0-1.43,1-1.43,2.05q0,8.75,0,17.48a1.69,1.69,0,0,0,2,1.92c1.17-.06,1.53-.78,1.62-1.87C189.43,275.69,188.93,273.91,189.9,271.89Zm-122.31.35,1.15-.22c.59,1.69,1.26,3.34,1.75,5.06s1.5,2.7,3.19,2.06.5-2.1.22-3.09c-.84-2.94-2.08-5.59.22-8.69,1.46-2,.86-4.77-.45-7-1.86-3.14-5-2.6-7.86-2.59-1.64,0-1.85,1.21-1.85,2.54q0,8.37,0,16.73c0,1.22.27,2.18,1.69,2.22,1.65.05,2-1,1.94-2.4C67.57,275.33,67.59,273.78,67.59,272.24Zm-13.76-.5c2.44,1.4,2.16,3.27,2.7,4.68.61,1.61,1.14,3.4,3.15,2.78,2.3-.7.69-2.44.36-3.64-.72-2.68-2-5.06.26-7.9,1.51-1.91,1-4.75-.15-7-1.68-3.25-4.77-2.92-7.69-2.88-1.19,0-2.12.46-2.13,1.85q0,9,0,17.91a1.59,1.59,0,0,0,1.75,1.75,1.57,1.57,0,0,0,1.77-1.72C53.85,275.82,53.83,274.09,53.83,271.74Zm129.07-3a18.1,18.1,0,0,0-1.24-7.56c-.88-2.07-2.4-3.61-4.82-3.66a4.51,4.51,0,0,0-4.55,2.66,20.08,20.08,0,0,0-.14,16.52,4.6,4.6,0,0,0,4.78,2.95,5.06,5.06,0,0,0,4.58-3.38A18.76,18.76,0,0,0,182.9,268.72ZM130,278.08c0-.17-.14.86,1.13,1.12a1.93,1.93,0,0,0,2.61-1.7c.26-1.43.75-2.63,2.51-2.51,1.54.1,1.89,1.22,2.12,2.48a2,2,0,0,0,2.61,1.74c1.52-.36,1.12-1.58.9-2.63q-1.65-8.15-3.33-16.29c-.29-1.42-.72-2.6-2.48-2.56s-2.31,1-2.6,2.51C132.39,265.81,131.31,271.38,130,278.08ZM39,268.3v4.9c0,6.61,0,6.59,6.35,6.13,1.25-.09,2.54-.05,2.52-1.8,0-1.51-1.22-1.69-2.3-1.59-2.32.24-3-.87-3-3.09s.76-3,2.81-2.82c1.14.1,2.18-.21,2.17-1.71a1.55,1.55,0,0,0-1.84-1.65c-2.05.13-3.17-.4-3.17-2.89,0-2.76,1.61-2.66,3.41-2.63,1,0,1.86-.34,1.92-1.57s-.66-1.59-1.7-1.83c-5.49-1.29-7.17,0-7.21,5.64C39,265,39,266.66,39,268.3Zm38.59-.07h0c0,2.85,0,5.69,0,8.54,0,1.66.64,2.56,2.32,2.53s3.18,0,4.76,0c1,0,1.83-.4,1.81-1.64s-.88-1.6-1.89-1.54c-2.08.11-3.43-.14-3.45-3s1.18-3.21,3.34-3.11c1,0,1.85-.44,1.84-1.63a1.58,1.58,0,0,0-1.81-1.7c-2.1.11-3.42-.17-3.37-3s1.76-2.45,3.42-2.49c1,0,1.85-.26,1.9-1.52s-.59-1.61-1.64-1.88c-5.43-1.36-7.21,0-7.21,5.56C77.64,265,77.63,266.6,77.63,268.23Zm160-10.76c-2.46.08-4.18.89-5.05,3a6.78,6.78,0,0,0,1,7.27c1.11,1.33,2.53,2.39,3.71,3.66,1,1.05,1.46,2.32.56,3.69a2.15,2.15,0,0,1-3.14.73c-1.33-.86-2.31-.83-2.83.67s.7,2.15,1.86,2.6c2.42.94,4.84.83,6.63-1.16,2.11-2.35,2.06-5.17.71-8-.91-1.89-2.66-3-4-4.43-.85-.88-1.7-1.84-1.17-3.22s1.79-1.56,3-1.18,2.13.09,2.35-1.27-.87-1.83-1.91-2.14A11.43,11.43,0,0,0,237.59,257.47ZM91.83,279.67c4.28,0,6.76-2.78,6.44-6.66-.24-2.94-2-4.88-4.18-6.63-1.25-1-2.56-2.17-1.92-4.08s2-1.31,3.36-1.09a1.49,1.49,0,0,0,1.92-1.48c.13-1-.58-1.37-1.33-1.75a5.37,5.37,0,0,0-7.77,4.28c-.57,4,1.86,6.27,4.53,8.42,1.34,1.09,2.29,2.41,1.42,4.2s-2.33,1.57-3.75.8c-1-.55-1.73-.42-2.27.65-.69,1.36.08,2.07,1.14,2.53A24,24,0,0,0,91.83,279.67Zm68.26-11.14h0c0,3,0,6,0,9a1.57,1.57,0,0,0,1.71,1.78,1.59,1.59,0,0,0,1.82-1.67c0-1,.05-1.9,0-2.85,0-2.45-.55-5.17,3.36-4.72,1.13.13,1.6-.77,1.54-1.88-.07-1.27-.93-1.52-1.94-1.48-1.82.07-3-.35-3-2.66-.07-2.53,1.17-3,3.18-2.87,1,.07,1.87-.27,1.91-1.52s-.67-1.6-1.69-1.86c-5.07-1.32-6.95.14-6.94,5.47Zm-16.26-.23h0c0,2.85,0,5.69,0,8.54,0,1.68.59,2.52,2.31,2.45,1.45-.05,2.9,0,4.35,0,1,0,1.91-.15,2-1.41s-.72-2-1.95-1.91c-3.13.22-3.3-1.76-3.21-4.18.14-3.79.15-7.58.16-11.37,0-1.26-.17-2.57-1.79-2.65-2-.1-1.89,1.42-1.89,2.81C143.82,263.16,143.83,265.73,143.83,268.3Zm-38,1.74c0-2,0-4.08,0-6.12,0-.9-.29-2.08.84-2.48,1.3-.45,2.82-.72,2.18-2.6s-2.26-.95-3.49-1a20.47,20.47,0,0,0-4.76.05c-1.85.33-2.15,2.4-.79,2.82,3.3,1,2.33,3.44,2.39,5.54.09,3.39,0,6.8,0,10.2,0,1.4-.08,2.89,1.91,2.82,1.72-.07,1.67-1.41,1.67-2.67Q105.82,273.31,105.82,270ZM31.91,257.83a14.06,14.06,0,0,0-1.59,0c-1.12.11-2.59-.42-3.11,1.1-.57,1.69.71,2,1.93,2.34,1.43.42,1,1.77,1,2.77.05,4.08,0,8.17,0,12.25,0,1.34-.26,3,1.8,2.88s1.56-1.78,1.56-3.05c0-3.68-.06-7.35,0-11,0-1.67-.48-3.67,2.07-4.13.92-.17,1.13-1.06.94-2s-1-1.18-1.82-1.19Zm96.28,10.66c0-2.86,0-5.72,0-8.59,0-1.21-.32-2.21-1.77-2.13s-1.83.9-1.83,2.18c0,5.72,0,11.44,0,17.16,0,1.25.49,2.12,1.85,2.14s1.74-1,1.74-2.18Z"/><path class="b" d="M234.29,67.86a.91.91,0,0,1-.41.63c-.52,0-1,.21-1,.82s.48.78,1,.81a.84.84,0,0,1,.35.69c-1,2.88,2.55,5,1.44,7.67a20.35,20.35,0,0,0-.06,15.93,5.18,5.18,0,0,1-.54,5.08,4.73,4.73,0,0,0-.62,5.35c1.71,2.56,1.13,5.19,1.33,7.83h0c-6.33,2.89-12.46,8-19.59,1.61-.93-.82-2.53-2.86-3.91-.5-1.1,1.87-.12,3.41,1.2,5.06a14.42,14.42,0,0,1,3.12,9.87,3.24,3.24,0,0,1-2.18,3.12c-3.22.61-6.24,3.75-9.89.75-1.09-.89-3-.09-3.64,1.46-.45,1.08-.54,2.64,1.09,3,2.33.48,2.37,2.36,1.72,3.71-.85,1.79-3.13,3.13-4.75,2.34-3.46-1.7-3.2,1-3.52,2.69-.58,3.06-4.57,5.8-6.83,4.07-1.88-1.44-4.29-2.33-5.72-4.11-2.67-3.33-4.86-2.64-8.28-1-2,.94-4.64,3.59-7.5,1.31-2-1.59-4-4.75-5.41.55-.21.81-1.41.31-2.16.4-4,.52-7.48-2.8-11.55-1.48h0c.08-1.34.95-1.63,2.07-1.88,2.08-.47,3-1.88,2.72-4.11l-.29-1.69-.08-2.71.05,0c1.07.43,1.81.2,1.86-1.11s-.75-1.48-1.75-1.66c-3.32-.62-5.88,1.14-7.51,5.24-.77,2-3,3.28-2.42,5.84,1.12,2.56-2.54,1.69-2.33,3.25.57,4.29-1.56,8.09-1.79,12.25-.52,9.64,1.13,19.14,1.5,28.71.38,9.77.28,19.58.07,29.36-.08,3.8,1.1,6.52,4.06,8.59l.24,2.3c-.49,1.76.92.54,1.33.89h0l.87.74,0,0c.69,1.36,2,.88,3,1l1.68.35.79.39h1.57c5.94,2.46,11.74,5.1,18.27,6.09,2.63.4,6.44,2.18,7.25,6.21-9.78-.61-19.59-1-29.35-1.9-18.64-1.79-37.25-2.5-55.94-.77-6.31.59-12.64,1.84-19,.71-.5-2.54.88-3,2.93-2.94,4,.12,8.19.51,11.52-1.85,2.71-1.91,6.52.13,8.55-3.12h0c2-.2,3.85.77,5.74,1.28,1.32.36,2.66.83,3.07-1.22l2.14-.21c3.45.75,6.27-2.13,9.73-1.85.6.05,3.61-1.26,1.63-3.68l-.18-1.5a12.46,12.46,0,0,0,5.69-10.54c.2-17.39.08-34.78.08-52.17a7.11,7.11,0,0,0-3-6.1c-3.39-2.66-7.35-4.24-11.32-6.71,2.31-1.16,4-.47,5.72.1,1.13-.51,2.1.3,3,.63,2.83,1,3.69.3,3.32-2.78a33.14,33.14,0,0,1,0-7.71,5.14,5.14,0,0,0-2.53-5.4c-.06-2.06-1.37-1.88-2.74-1.6a.26.26,0,0,1-.39-.11c-.78-3.15-3.25-1.58-4.9-1.6-1.91,0-1.18,1.95-1.43,3.17-.36,1.73,1.23,4.29-1.87,4.93l-.17-.28c0-.25,0-.68-.13-.74-2-.89-4.67-1.88-5.59.7-1.22,3.43-4.34-2.14-4.92,1.53a8,8,0,0,0,0,1.2h0c-2.61,1.41-1.67,3.43-.77,5.72-2.58-.16-5.13,0-7.38-.72-.5-.17.06-3.68.13-5.65.07-1.82.29-3.75-2.45-3.47l-.73-.32a17,17,0,0,0-8-4.31c-2.18-.56-6.85-3.21-6.4,3.19.07,1-.86,1.22-1.65,1.46a3.93,3.93,0,0,0-2.79,2.66c-.71,3.11-3,2.75-4.59,1.84-2-1.17-4.66-1.08-6.1-3.37-.62-1-1.56-1.15-2.74-.37-4.41,2.91-8.93,2-13.81.13,2.37-2.41,1-5.29,1.54-7.87.78-3.86-1.63-4.72-5.6-5.11,5.35-2.51,3.66-5.55,2-8.37a22.13,22.13,0,0,0-3.19-3.61c-.88-.94-1.23-1.37.37-2.26A64.72,64.72,0,0,0,44.45,107c2-1.56,2.31-3.6,0-4.84-2.66-1.4-6-2.25-8.6-.69-3.19,1.91-6.87.73-10,2.89,1.29-2.69,1.61-4.82.06-7.41a4.89,4.89,0,0,1,.77-6.36c2.7-2.29,2.25-4.7,1-7.53-1.34-3-3.36-5.76-4-9.11a.42.42,0,0,1,.1-.52C27.34,71,30.55,68,35.31,68.2c1.75.06,1.6-2.36,1.15-3.31-1.61-3.35-.32-6.51,0-9.78.27-2.67,1.21-4.48,3.94-4.57,2.21-.07,3-1.29,3.35-3.22l.07,0c1.52,0,3.05-.31,3.66-1.9s-.17-2.58-1.74-3c-1.3-.38-.53-1.38-.33-2,.48-1.5,1.17-.24,1.74,0,1.17.49,2.48.8,3.29-.3s.53-2.55-.06-3.87c-1.6-3.61-.27-7.7,3.44-10.74,2.13-1.75,8.2-1.66,10.34.33,1.59,1.48,4,3.33,5.26,2.63,1.63-.92,2.6-3.62,2.17-6.14-.12-.66,0-1.37,0-2-.25-2.28.13-3.86,2.89-4.12,1.88-.18,8,1,9.57,2,2.33,1.45,3.87,2.87,3.77,6.17-.09,2.7,2.33,3.51,4.91,3.39s4-1.22,4.37-3.76c.42-2.7-.27-5-3.22-7,5.89.22,8.27-5,12.73-6.55,1.71-.62,2.57-.95,4.47-.17,2.59,1.07,5.56,3.85,8.43,1.62s5.28-3,8.54-.91c1.43.91,3.26,1.78,4.43-1.55,1.72-4.93,4.77-5.51,9.77-3.43a6.14,6.14,0,0,0,6.93-1.2C151.9,2.24,154.8,0,159,2.75c1.73,1.12,1.82,2.77,3,3.93,3.23,3.16,13.38,3.35,16.66.09,3.82-3.78,7.43-3,9.45,1.93,3.43,8.35,9.43,13.35,18.08,15.75,5,1.38,11,.63,14.77,6.11-1.93.58-4.09.15-6,1s-4.83,1.34-4.47,4.32c.33,2.77,2.7,3.29,5.18,3.14,2.79-.16,4.3,1.29,4.12,4.18a9.43,9.43,0,0,0,2.65,7.09c2.41-4.52,8.25-2,10.81-6.12.28-.45,1.61-.16,1.41.66-.65,2.69,1.65,3.47,2.85,4.87C239.58,52.15,240,55,238,57c-2.45,2.54-2.38,5.24-2.13,8.24l0,0C234.11,65.35,234.17,66.59,234.29,67.86ZM113.76,99.75c-2.27,4.3-4.91,5.8-8.4,5.3-2.14-.31-1.88,1.18-2.11,2.51s-.8,2.32,1.17,2.66a6.48,6.48,0,0,1,5.53,4.63c.22.71.59,1.44,1.31,1.2,3-1,5.35.87,7.94,1.73,1.35.45,3,.3,3.41,2.21s-1.55,1.86-2.41,2.73-1.88,1.6-1,2.71,1.49,0,2.1-.72a2,2,0,0,1,2.84-.55c1.2.83.61,1.85,0,2.84a4.94,4.94,0,0,0-.69,1.86c-.11,1.2-1.44,2.7.49,3.52,1.66.69,3.3,2.14,5.21.9,1.56-1,1.71-2.71,1.22-4.36a15.66,15.66,0,0,0-1.61-3.7c-3.07-4.93-6.16-9.84-8.19-15.35a3.25,3.25,0,0,0-2.4-2.43C114.89,106.73,113.35,104.5,113.76,99.75Zm37.32,2c-1.5,1.45-2.53,2.45-3.57,3.44-1.66,1.59-3.94,2.82-5.79,1.74-4.42-2.57-5.4.76-6.9,3.54-.83,1.55-1.7,3.07-2.52,4.62-1.72,3.26.47,10.14,3.66,11.72,1.11.55,1.43-.25,1.79-.91,3.16-5.86,7.87-10.58,11.28-16.26A13.9,13.9,0,0,0,151.08,101.7Zm.14,25.93v.12a2.84,2.84,0,0,0,.78-.07c2.16-.88,5.8,1.59,6.5-1.78s-3.34-3-5.27-4.34c-1.19-.81-2.92-1.22-3-3s1.37-2.77,2.84-3.47c1.18-.56,2.53-.9,2.23-2.77-.11-.74-.21-1.34-1.06-1.35-1.56,0-2.3,1.16-2.93,2.36-1.37,2.62-2.75,5.26-4,8-.94,2-3.23,4.15-2.1,6.14C145.75,128.4,149.13,127.63,151.22,127.63Zm-16.91-22.74c-3,.19-4.59-1.64-6.39-2.93-2-1.46-3-.92-3.62,1.39-.56,2,1.66,9.67,3.28,10.77,1,.68,1.38-.07,1.8-.8C130.87,110.76,132.37,108.2,134.31,104.89Z"/><path class="c" d="M74.9,241.5c6.38,1.13,12.71-.12,19-.71,18.69-1.73,37.3-1,55.94.77,9.76.94,19.57,1.29,29.35,1.9l2.88,0c22.71,1.67,45.48,1.74,68.26,3A48.28,48.28,0,0,1,237.76,248c-16.56.62-33.15,1-49.73.93-27.44-.17-54.82-2.32-82.27-2.62-12.17-.13-24.33-1.2-36.53-1.36-8.53-.1-16.85,1.73-25.3,2.26a218.73,218.73,0,0,1-25.86,0c-4.21-.23-8.41-.89-12.61-1.37A9.71,9.71,0,0,1,0,243.74c7.7-.63,14.69-1.38,21.71-1.74,15.39-.79,30.76.43,46.14.6,1.26,0,2.7.52,3.72-.78Z"/><path class="d" d="M109.61,140.53c3.1-.64,1.51-3.2,1.87-4.93.25-1.22-.48-3.19,1.43-3.17,1.65,0,4.12-1.55,4.9,1.6-1.51.12-3.62-.33-4.37.5s-.82,3.23-.26,4.51c1.28,2.93.49,4.57-2.12,5.82-.66.32-1.56,1-1.59,1.55-.07,1.1,1.19,1.18,1.94,1.65,1.84,1.14,4.57.44,5.74,2.94-1.71-.57-3.41-1.26-5.72-.1,4,2.47,7.93,4,11.32,6.71a7.11,7.11,0,0,1,3,6.1c0,17.39.12,34.78-.08,52.17A12.46,12.46,0,0,1,120,226.42c-4.08,1-8.18,2-12.23,3.12a8,8,0,0,0-5.32,3.79l4.23.33c-.41,2.05-1.75,1.58-3.07,1.22-1.89-.51-3.69-1.48-5.74-1.28,2.67-4.33,6.79-6.27,11.44-7.34,2.46-.56,4.93-1,7.39-1.6,5.82-1.32,6.42-1.94,7-8,.87-9.64.45-19.31.22-29-.19-7.89-.3-15.79-.22-23.69a6.45,6.45,0,0,0-3.11-6.12c-6.46-4.08-12.94-7.7-21-7.73-6.14,0-12.34-.48-18.27-2.94-4.29-1.78-9.25.22-13.69-1.7-.84-.37-1.14.94-1.74,1.4-1.21.92-2.85.59-3-.52-.59-3.42-4.18-2.81-5.69-5-.94-1.35-2.19.21-3.07.79-4.49,2.89-8.76,0-13.1-.44-1.09-.11-1.23-1.56-.62-2.35,1.67-2.16,1-4.69,1.3-7.06.25-2-.22-3.54-2.6-3.64a2.24,2.24,0,0,1-2.32-1.85,2.48,2.48,0,0,1,1.74-2.87c2.24-.87,1.68-2,.38-3.23-1.64-1.6-1.91-4.6-5-4.81-1.09-.08-1.24-1.29-1.1-2.3s.43-2.36,1.73-2.41c3.88-.14,5.42-4.1,8.6-5.39,1.15-.46,1.55-1.74,0-2.37-2.5-1-4.77-2.34-7.8-.42-2.83,1.79-6.36,2.43-9.61,3.48a1.78,1.78,0,0,1-2.11-.77,1.64,1.64,0,0,1,.22-2.23c2.52-2,1.66-3.86.27-6.25-1.51-2.59-1.49-5.85.88-7.92,3-2.57,2-4.83.5-7.49-1.36-2.43-3.24-4.8-1.85-7.93.64,3.35,2.66,6.08,4,9.11,1.25,2.83,1.7,5.24-1,7.53a4.89,4.89,0,0,0-.77,6.36c1.55,2.59,1.23,4.72-.06,7.41,3.1-2.16,6.78-1,10-2.89,2.6-1.56,5.94-.71,8.6.69,2.35,1.24,2.06,3.28,0,4.84a64.72,64.72,0,0,1-7.83,5.56c-1.6.89-1.25,1.32-.37,2.26a22.13,22.13,0,0,1,3.19,3.61c1.61,2.82,3.3,5.86-2,8.37,4,.39,6.38,1.25,5.6,5.11-.53,2.58.83,5.46-1.54,7.87,4.88,1.84,9.4,2.78,13.81-.13,1.18-.78,2.12-.6,2.74.37,1.44,2.29,4.1,2.2,6.1,3.37,1.55.91,3.88,1.27,4.59-1.84a3.93,3.93,0,0,1,2.79-2.66c.79-.24,1.72-.47,1.65-1.46-.45-6.4,4.22-3.75,6.4-3.19a17,17,0,0,1,8,4.32c-3.5-.2-6.47-2.14-9.72-3.14-1.85-.57-4.59-2.36-3.36,2.21.34,1.24-.92,1.45-1.66,1.92s-2.11,1.05-1.8,2.35S72.77,143,73.72,143c4.64-.1,9.19.08,13.49,2.25.68.35,2.33,1,2.31-.92s1-4.09-1.21-5.48c2.74-.28,2.52,1.65,2.45,3.47-.07,2-.63,5.48-.13,5.65,2.25.76,4.8.56,7.38.72-.9-2.29-1.84-4.31.77-5.72-.58,4.31-.36,4.48,5.23,3.56-1.4-2-1.64-5.14-5.23-3.56a8,8,0,0,1,0-1.2c.58-3.67,3.7,1.9,4.92-1.53.92-2.58,3.57-1.59,5.59-.7.12.06.09.49.13.74l-4.58-.36c-.21,1.55.92,2.09,1.44,3s.71,2,1.87,1.65.94-1.5,1.17-2.37C109.48,141.6,109.52,141.06,109.61,140.53Zm-31.52,5.56c1-.32,2.89.6,2.8-1.25-.09-1.68-1.91-1-3-1s-2.89-.63-2.8,1.17S77,145.78,78.09,146.09Zm-5.45-1.88c-.54.22-.9.61-.71,1.2a.86.86,0,0,0,1.26.47,1.09,1.09,0,0,0,.54-.84A.93.93,0,0,0,72.64,144.21Z"/><path class="d" d="M235.83,65.28c-.25-3-.32-5.7,2.13-8.24,2-2.08,1.62-4.89-.43-7.3-1.2-1.4-3.5-2.18-2.85-4.87.2-.82-1.13-1.11-1.41-.66-2.56,4.1-8.4,1.6-10.81,6.12a9.43,9.43,0,0,1-2.65-7.09c.18-2.89-1.33-4.34-4.12-4.18-2.48.15-4.85-.37-5.18-3.14-.36-3,2.44-3.37,4.47-4.32s4.07-.46,6-1c-3.78-5.48-9.77-4.73-14.77-6.11-8.65-2.4-14.65-7.4-18.08-15.75-2-4.93-5.63-5.71-9.45-1.93C175.4,10,165.25,9.84,162,6.68c-1.19-1.16-1.28-2.81-3-3.93-4.21-2.72-7.11-.51-9.85,1.86a6.14,6.14,0,0,1-6.93,1.2c-5-2.08-8-1.5-9.77,3.43-1.17,3.33-3,2.46-4.43,1.55-3.26-2-5.63-1.34-8.54.91s-5.84-.55-8.43-1.62c-1.9-.78-2.76-.45-4.47.17-4.46,1.59-6.84,6.77-12.73,6.55,3,2.07,3.64,4.35,3.22,7.05-.4,2.54-1.88,3.64-4.37,3.76s-5-.69-4.91-3.39c.1-3.3-1.44-4.72-3.77-6.17-1.53-1-7.69-2.16-9.57-2-2.76.26-3.14,1.84-2.89,4.12.07.67-.09,1.38,0,2,.43,2.52-.54,5.22-2.17,6.14-1.22.7-3.67-1.15-5.26-2.63-2.14-2-8.21-2.08-10.34-.33-3.71,3-5,7.13-3.44,10.74.59,1.32.88,2.73.06,3.87s-2.12.79-3.29.3c-.57-.23-1.26-1.49-1.74,0-.2.61-1,1.61.33,2,1.57.47,2.32,1.53,1.74,3s-2.14,1.86-3.66,1.9c2.19-2.26-.57-2.7-1.37-3.82-1.25-1.72-5.64-3.36.58-4.62,2.14-.44,5.1-1.94,5.17-6.44.15-8.85,10-12.91,17.06-7.62,1,.77,2,2.21,3.44,1.28,1.19-.78.4-2.26.32-3.43-.29-4.2,1.29-7.18,5.3-8.47a6.93,6.93,0,0,0,4.07-3A2.9,2.9,0,0,1,81.6,10c1.31.39,1.13,1.57,1,2.71-.23,3,2,3.9,4.14,4.52,2.29.68,3.69,1.26,2.3,4.16a3.39,3.39,0,0,0,1.66,4.49,3.5,3.5,0,0,0,4.44-1.77c.91-1.6,1.36-3.28-.42-4.75-1-.79-2.58-1.38-1.78-3.15.64-1.43,2.24-1,3.31-1.52,3.36-1.56,6.78-3.5,9.07-6.44,1.93-2.48,3.3-2.67,5.46-.82,1.93,1.66,4.76,1.13,6.77,2.9.5.43,2-.58,2.4-2.08,1.13-3.82,2.29-4,5.11-.95,1.27,1.37,3.1,1.42,4.58,2.32,1.17.73,1.39-.44,1.84-1.32,2.55-5,6.57-6.68,11.53-4.42a3.46,3.46,0,0,0,4.21-.55c6.93-5.3,12-4.35,16.85,3,.08.12.09.27.17.37,1.58,2,10.88,1.65,12.49-.43,1.85-2.4,3.7-4.5,7.26-3.65s5,2.86,6.28,6.37c2.08,5.75,5.72,10.57,12.18,12.09,4,1,7.73,2.87,12.11,3.11,3.27.18,6.37,2.74,8.12,6.17.47.92.7,1.75-.15,2.58a1.54,1.54,0,0,1-2.17.21c-2.8-2.31-4.69,1.74-7.31,1.08-.52-.13-.55,1.06-.49,1.74.08.93.51,1.61,1.47,1.54,5.61-.38,7.45,2.66,7.07,7.93-.07,1,.47,2.78,1.74,1.77,2.63-2.12,6.57-1.13,8.7-4.32.95-1.43,3-.9,4.44-1.43a1.32,1.32,0,0,1,1.47,2c-1.8,2.39-.21,3.52,1.12,5.11,3.24,3.86,2.77,8.34-1.32,11.9C235.67,61.91,237.38,64.05,235.83,65.28Z"/><path class="d" d="M199.37,268.31V263.4c0-5.65,1.72-7,7.17-5.65,1.08.26,1.66.73,1.64,1.89s-.81,1.6-1.86,1.55c-1.91-.11-3.38.09-3.39,2.71s1.47,2.83,3.37,2.76a1.51,1.51,0,0,1,1.76,1.7,1.56,1.56,0,0,1-1.82,1.68c-2-.08-3.31.33-3.31,2.85,0,2.71,1.84,2.4,3.51,3.22,2.89,1.41,5.18-1.18,8.08-.25,1.7.55,2-2.49.95-4.09-.77-1.2-2.12-2-3.19-3-2.52-2.4-3.27-6.33-1.5-8.89,2.07-3,4.88-2.9,7.8-1.5.79.38,1.2,1.06,2.35.24,2.45-1.73,5.39-.53,8.11-.81a1.38,1.38,0,0,1,1.61,1.41c.08.87-.1,1.78-1.06,1.88-2.44.25-2,2.07-2,3.64,0,3.95,0,7.91,0,11.86,0,1.26.05,2.59-1.67,2.67-2,.1-1.92-1.38-1.92-2.8,0-3.81,0-7.63,0-11.44,0-4-1.81-5.23-5.55-3.73a1,1,0,0,1-.36.11c-1.61-.11-3.69-1.35-4.34,1.22s1.8,3.38,3.14,4.74c2.94,3,4.1,7.25,2.12,9.88-2.44,3.23-5.63,3.27-8.81,1.07-1-.72-1.39-.2-2.26.33-2.27,1.4-4.88.68-7.34.49-1.41-.11-1.18-1.59-1.19-2.64,0-2.72,0-5.45,0-8.17Z"/><path class="d" d="M148,145.47c4.07-1.32,7.58,2,11.55,1.48.75-.09,1.95.41,2.16-.4,1.39-5.3,3.41-2.14,5.41-.55,2.86,2.28,5.51-.37,7.5-1.31,3.42-1.62,5.61-2.31,8.28,1,1.43,1.78,3.84,2.67,5.72,4.11,2.26,1.73,6.25-1,6.83-4.07.32-1.69.06-4.39,3.52-2.69,1.62.79,3.9-.55,4.75-2.34.65-1.35.61-3.23-1.72-3.71-1.63-.34-1.54-1.9-1.09-3,.66-1.55,2.55-2.35,3.64-1.46,3.65,3,6.67-.14,9.89-.75a3.24,3.24,0,0,0,2.18-3.12,14.42,14.42,0,0,0-3.12-9.87c-1.32-1.65-2.3-3.19-1.2-5.06,1.38-2.36,3-.32,3.91.5,7.13,6.34,13.26,1.28,19.59-1.61-1.69,3.59-5.19,4.35-8.37,5.57-1.69.66-3.51.67-5.05,2.07-1.26,1.15-2.88.84-3-1.41a2.22,2.22,0,0,0-1.47-2.16c-1.48-.61-3.15-2.92-4.41-1.41-1.42,1.71,1.22,2.47,2.21,3.54,2.28,2.48,3.88,10.81,1.69,12.68a14.64,14.64,0,0,1-10.65,3.53c-1.13-.08-2.25-.85-3.59,0,1.78,1.87,3.88,3.76,2.37,6.65-1.38,2.66-4,3-6.58,2.76s-2.77.72-2,2.8c.89,2.42-.17,3.71-2.53,3.8-1.37.06-2.58.14-3.59,1.27-.55.62-1.67,1-2.13.35-2-3-6.07-3.38-7.75-6.71-.59-1.15-1.33-2.23-2.73-1-2.34,2.13-5.59,1.47-8.19,2.88a3.6,3.6,0,0,1-3.43-.45c-1.29-.69-2.79-2.3-2.85,1,0,.85-1.35,1.15-2,.77-1.83-1.1-4.21.47-5,0C154,147.64,149.81,149.29,148,145.47Z"/><path class="d" d="M182.09,243.42l-2.88,0c-.81-4-4.62-5.81-7.25-6.21-6.53-1-12.33-3.63-18.27-6.09-2.14-3.71-5.77-4.79-9.51-5.65-3-2.07-4.14-4.79-4.06-8.59.21-9.78.31-19.59-.07-29.36-.37-9.57-2-19.07-1.5-28.71.23-4.16,2.36-8,1.79-12.25-.21-1.56,3.45-.69,2.33-3.25,3.33-1.44,7.81.32,10.14-3.87.32,2.23-.64,3.64-2.72,4.11-1.12.25-2,.54-2.07,1.88-6.59,1.95-6.63,1.94-7.2,9.26-1.1,14.27.44,28.49.79,42.74.17,7.19.63,14.38.89,21.57.08,2.52.92,4,3.58,4.4,2.5.37,5.09,1.26,6.72,3.25,4.61,5.6,11,7.46,17.47,8.71C175.56,236.43,179,239.43,182.09,243.42Z"/><path class="d" d="M115.57,271.66a10.17,10.17,0,0,0-.75,5.46c0,1.28-.31,2.14-1.73,2.15s-1.89-.78-1.89-2.06c0-5.73,0-11.45,0-17.17,0-1.24.36-2.2,1.74-2.22,2.63-.05,5.47-.56,7.48,1.77s2.58,5.38,1.09,7.62c-2.1,3.16-1.26,5.8-.3,8.76.38,1.19,1.47,2.77-.67,3.27-1.51.36-2.3-.58-2.75-2.18S117.18,273.35,115.57,271.66Zm-.85-7.19c.39,1.12-.72,3,1.3,3.21,1.83.15,2.37-1.44,2.37-3s-.25-3.51-2.37-3.39S115.09,263.35,114.72,264.47Z"/><path class="d" d="M189.9,271.89c-1,2-.47,3.8-.61,5.51-.09,1.09-.45,1.81-1.62,1.87a1.69,1.69,0,0,1-2-1.92q0-8.73,0-17.48c0-1,.25-2,1.43-2.05,2.73-.05,5.64-.66,7.79,1.84,2,2.28,2.55,5.44,1,7.55-2.27,3.14-1.3,5.68-.33,8.63.34,1.05,1.79,2.63-.33,3.36-1.74.59-2.59-.57-3.09-2.23S191.54,273.53,189.9,271.89Zm2.89-7.54c-.08-1.38-.31-3.06-2.22-3-2.08,0-1.35,2-1.38,3.13s-.57,3.1,1.35,3.23S192.67,266.08,192.79,264.35Z"/><path class="d" d="M67.59,272.24c0,1.54,0,3.09,0,4.63,0,1.38-.29,2.45-1.94,2.4-1.42,0-1.69-1-1.69-2.22q0-8.37,0-16.73c0-1.33.21-2.53,1.85-2.54,2.89,0,6-.55,7.86,2.59,1.31,2.22,1.91,5,.45,7-2.3,3.1-1.06,5.75-.22,8.69.28,1,1.6,2.39-.22,3.09s-2.7-.32-3.19-2.06-1.16-3.37-1.75-5.06Zm-.12-7.53c.67.85-.73,3,1.5,2.94,1.81,0,2.2-1.78,2.22-3.29s-.55-3.21-2.39-3.06C66.69,261.46,68,263.43,67.47,264.71Z"/><path class="d" d="M53.83,271.74c0,2.35,0,4.08,0,5.82a1.57,1.57,0,0,1-1.77,1.72,1.59,1.59,0,0,1-1.75-1.75q0-9,0-17.91c0-1.39.94-1.83,2.13-1.85,2.92,0,6-.37,7.69,2.88,1.17,2.26,1.66,5.1.15,7-2.24,2.84-1,5.22-.26,7.9.33,1.2,1.94,2.94-.36,3.64-2,.62-2.54-1.17-3.15-2.78C56,275,56.27,273.14,53.83,271.74Zm-.24-7.1c.38,1.09-.55,3,1.53,3.07,1.81,0,2.27-1.6,2.36-3.17s-.47-3.2-2.2-3.29C52.81,261.13,54.09,263.37,53.59,264.64Z"/><path class="d" d="M182.9,268.72a18.76,18.76,0,0,1-1.39,7.53,5.06,5.06,0,0,1-4.58,3.38,4.6,4.6,0,0,1-4.78-2.95,20.08,20.08,0,0,1,.14-16.52,4.51,4.51,0,0,1,4.55-2.66c2.42.05,3.94,1.59,4.82,3.66A18.1,18.1,0,0,1,182.9,268.72Zm-3.69-.49c-.2-1.55.24-3.63-.69-5.56-.42-.87-.84-1.8-2-1.67a2,2,0,0,0-1.67,1.56,22.55,22.55,0,0,0,.09,12.06,1.77,1.77,0,0,0,1.67,1.49c.93,0,1.36-.64,1.73-1.42C179.28,272.78,179.18,270.73,179.21,268.23Z"/><path class="d" d="M130,278.08c1.3-6.7,2.38-12.27,3.47-17.84.29-1.47.93-2.48,2.6-2.51s2.19,1.14,2.48,2.56q1.66,8.15,3.33,16.29c.22,1.05.62,2.27-.9,2.63a2,2,0,0,1-2.61-1.74c-.23-1.26-.58-2.38-2.12-2.48-1.76-.12-2.25,1.08-2.51,2.51a1.93,1.93,0,0,1-2.61,1.7C129.87,278.94,130,277.91,130,278.08Zm5.7-14.45c-.49,2.65-.88,4.48-1.15,6.33-.14,1,.12,2,1.39,1.94,1.1,0,1.92-.67,1.57-1.77C136.93,268.27,137.55,266.1,135.71,263.63Z"/><path class="d" d="M39,268.3c0-1.64,0-3.27,0-4.91,0-5.64,1.72-6.93,7.21-5.64,1,.24,1.76.64,1.7,1.83s-.89,1.58-1.92,1.57c-1.8,0-3.4-.13-3.41,2.63,0,2.49,1.12,3,3.17,2.89a1.55,1.55,0,0,1,1.84,1.65c0,1.5-1,1.81-2.17,1.71-2.05-.16-2.81.7-2.81,2.82s.65,3.33,3,3.09c1.08-.1,2.28.08,2.3,1.59,0,1.75-1.27,1.71-2.52,1.8-6.37.46-6.36.48-6.35-6.13C39,271.56,39,269.93,39,268.3Z"/><path class="d" d="M77.63,268.23c0-1.63,0-3.26,0-4.89,0-5.57,1.78-6.92,7.21-5.56,1,.27,1.69.71,1.64,1.88s-.88,1.5-1.9,1.52c-1.66,0-3.36-.42-3.42,2.49s1.27,3.11,3.37,3a1.58,1.58,0,0,1,1.81,1.7c0,1.19-.81,1.67-1.84,1.63-2.16-.1-3.37.37-3.34,3.11s1.37,3.08,3.45,3c1-.06,1.87.27,1.89,1.54s-.77,1.62-1.81,1.64c-1.58,0-3.17,0-4.76,0s-2.34-.87-2.32-2.53c0-2.85,0-5.69,0-8.54Z"/><path class="d" d="M237.59,257.47a11.43,11.43,0,0,1,1.66.29c1,.31,2.14.72,1.91,2.14s-1,1.67-2.35,1.27-2.43-.27-3,1.18.32,2.34,1.17,3.22c1.38,1.44,3.13,2.54,4,4.43,1.35,2.81,1.4,5.63-.71,8-1.79,2-4.21,2.1-6.63,1.16-1.16-.45-2.4-1-1.86-2.6s1.5-1.53,2.83-.67a2.15,2.15,0,0,0,3.14-.73c.9-1.37.42-2.64-.56-3.69-1.18-1.27-2.6-2.33-3.71-3.66a6.78,6.78,0,0,1-1-7.27C233.41,258.36,235.13,257.55,237.59,257.47Z"/><path class="d" d="M91.83,279.67a24,24,0,0,1-2.41-.81c-1.06-.46-1.83-1.17-1.14-2.53.54-1.07,1.25-1.2,2.27-.65,1.42.77,2.89.95,3.75-.8s-.08-3.11-1.42-4.2c-2.67-2.15-5.1-4.4-4.53-8.42A5.37,5.37,0,0,1,96.12,258c.75.38,1.46.73,1.33,1.75a1.49,1.49,0,0,1-1.92,1.48c-1.31-.22-2.77-.68-3.36,1.09s.67,3.06,1.92,4.08c2.13,1.75,3.94,3.69,4.18,6.63C98.59,276.89,96.11,279.69,91.83,279.67Z"/><path class="d" d="M160.09,268.53v-5.3c0-5.33,1.87-6.79,6.94-5.47,1,.26,1.73.71,1.69,1.86s-.89,1.59-1.91,1.52c-2-.12-3.25.34-3.18,2.87.05,2.31,1.21,2.73,3,2.66,1,0,1.87.21,1.94,1.48.06,1.11-.41,2-1.54,1.88-3.91-.45-3.41,2.27-3.36,4.72,0,.95,0,1.9,0,2.85a1.59,1.59,0,0,1-1.82,1.67,1.57,1.57,0,0,1-1.71-1.78c0-3,0-6,0-9Z"/><path class="d" d="M143.83,268.3c0-2.57,0-5.14,0-7.71,0-1.39-.1-2.91,1.89-2.81,1.62.08,1.79,1.39,1.79,2.65,0,3.79,0,7.58-.16,11.37-.09,2.42.08,4.4,3.21,4.18,1.23-.09,2.07.5,1.95,1.91s-1,1.42-2,1.41c-1.45,0-2.9-.06-4.35,0-1.72.07-2.34-.77-2.31-2.45,0-2.85,0-5.69,0-8.54Z"/><path class="d" d="M105.82,270q0,3.27,0,6.53c0,1.26,0,2.6-1.67,2.67-2,.07-1.91-1.42-1.91-2.82,0-3.4.07-6.81,0-10.2-.06-2.1.91-4.52-2.39-5.54-1.36-.42-1.06-2.49.79-2.82a20.47,20.47,0,0,1,4.76-.05c1.23.08,2.89-.72,3.49,1s-.88,2.15-2.18,2.6c-1.13.4-.83,1.58-.84,2.48C105.79,266,105.82,268,105.82,270Z"/><path class="e" d="M31.91,257.83H34.7c.84,0,1.6.21,1.82,1.19s0,1.78-.94,2c-2.55.46-2,2.46-2.07,4.13,0,3.68,0,7.35,0,11,0,1.27.54,3-1.56,3.05s-1.79-1.54-1.8-2.88c0-4.08,0-8.17,0-12.25,0-1,.45-2.35-1-2.77-1.22-.36-2.5-.65-1.93-2.34.52-1.52,2-1,3.11-1.1A14.06,14.06,0,0,1,31.91,257.83Z"/><path class="d" d="M235.8,112.67c-.2-2.64.38-5.27-1.33-7.83a4.73,4.73,0,0,1,.62-5.35,5.18,5.18,0,0,0,.54-5.08,20.35,20.35,0,0,1,.06-15.93c1.11-2.65-2.46-4.79-1.44-7.67,4.78,4.38,4.93,5.78,1.57,10.71-2.13,3.12,0,6.33.44,9.34.63,4,3,7.69-.67,11.39-1,1,.32,2,.82,2.84C237.89,107.76,238.59,110.36,235.8,112.67Z"/><path class="d" d="M128.19,268.49v8.58c0,1.21-.31,2.19-1.74,2.18s-1.85-.89-1.85-2.14c0-5.72,0-11.44,0-17.16,0-1.28.52-2.12,1.83-2.18s1.76.92,1.77,2.13C128.2,262.77,128.19,265.63,128.19,268.49Z"/><path class="d" d="M43.76,47.32c-.33,1.93-1.14,3.15-3.35,3.22-2.73.09-3.67,1.9-3.94,4.57-.33,3.27-1.62,6.43,0,9.78.45,1,.6,3.37-1.15,3.31-4.76-.16-8,2.83-11.54,5.18.79-4.63,4.79-4.79,8-6.11,1.14-.46,3.15.19,3.28-1.57a3.88,3.88,0,0,0-2.77-4c-.74-.26-1.68-.41-1.59-1.47s1.06-1,1.81-1.22c2.11-.6,3.31-1.45,1.76-4-.74-1.21,2.6-6.18,4-5.92C40.55,49.51,41.92,47.82,43.76,47.32Z"/><path class="d" d="M74.9,241.5l-3.33.32c-1.56-.42-4.26.81-4.47-1.3-.26-2.52,2.58-1.69,4.05-1.88,9-1.14,17.87-3.14,26.75-5-2,3.25-5.84,1.21-8.55,3.12-3.33,2.36-7.56,2-11.52,1.85C75.78,238.49,74.4,239,74.9,241.5Z"/><path class="d" d="M234.29,67.86c-.12-1.27-.18-2.51,1.56-2.6A2.31,2.31,0,0,1,234.29,67.86Z"/><path class="d" d="M233.9,70.12c-.53,0-1-.21-1-.81s.47-.79,1-.82C233.89,69,233.89,69.58,233.9,70.12Z"/><path class="a" d="M113.76,99.75c-.41,4.75,1.13,7,4.43,7.69a3.25,3.25,0,0,1,2.4,2.43c2,5.51,5.12,10.42,8.19,15.35a15.66,15.66,0,0,1,1.61,3.7c.49,1.65.34,3.35-1.22,4.36-1.91,1.24-3.55-.21-5.21-.9-1.93-.82-.6-2.32-.49-3.52a4.94,4.94,0,0,1,.69-1.86c.57-1,1.16-2,0-2.84a2,2,0,0,0-2.84.55c-.61.7-1.19,1.91-2.1.72s.3-2,1-2.71,2.79-.78,2.41-2.73-2.06-1.76-3.41-2.21c-2.59-.86-4.93-2.75-7.94-1.73-.72.24-1.09-.49-1.31-1.2a6.48,6.48,0,0,0-5.53-4.63c-2-.34-1.38-1.44-1.17-2.66s0-2.82,2.11-2.51C108.85,105.55,111.49,104.05,113.76,99.75Z"/><path class="a" d="M151.08,101.7a13.9,13.9,0,0,1-2.05,7.89c-3.41,5.68-8.12,10.4-11.28,16.26-.36.66-.68,1.46-1.79.91-3.19-1.58-5.38-8.46-3.66-11.72.82-1.55,1.69-3.07,2.52-4.62,1.5-2.78,2.48-6.11,6.9-3.54,1.85,1.08,4.13-.15,5.79-1.74C148.55,104.15,149.58,103.15,151.08,101.7Z"/><path class="a" d="M117.15,151c-1.17-2.5-3.9-1.8-5.74-2.94-.75-.47-2-.55-1.94-1.65,0-.56.93-1.23,1.59-1.55,2.61-1.25,3.4-2.89,2.12-5.82-.56-1.28-.54-3.63.26-4.51s2.86-.38,4.37-.5a.26.26,0,0,0,.39.11,4.09,4.09,0,0,0,2.74,1.6,5.14,5.14,0,0,1,2.53,5.4,33.14,33.14,0,0,0,0,7.71c.37,3.08-.49,3.81-3.32,2.78C119.25,151.3,118.28,150.49,117.15,151Z"/><path class="a" d="M151.22,127.63c-2.09,0-5.47.77-6-.16-1.13-2,1.16-4.11,2.1-6.14,1.24-2.69,2.62-5.33,4-8,.63-1.2,1.37-2.36,2.93-2.36.85,0,.95.61,1.06,1.35.3,1.87-1.05,2.21-2.23,2.77-1.47.7-2.92,1.63-2.84,3.47s1.81,2.14,3,3c1.93,1.31,6,.89,5.27,4.34s-4.34.9-6.5,1.78a2.84,2.84,0,0,1-.78.07Z"/><path class="a" d="M88.31,138.82c2.23,1.39,1.18,3.6,1.21,5.48s-1.63,1.27-2.31.92c-4.3-2.17-8.85-2.35-13.49-2.25-1,0-2.37.23-2.68-1.12s.92-1.77,1.8-2.35,2-.68,1.66-1.92c-1.23-4.57,1.51-2.78,3.36-2.21,3.25,1,6.22,2.94,9.72,3.14Z"/><path class="a" d="M134.31,104.89c-1.94,3.31-3.44,5.87-4.93,8.43-.42.73-.78,1.48-1.8.8-1.62-1.1-3.84-8.78-3.28-10.77.64-2.31,1.58-2.85,3.62-1.39C129.72,103.25,131.28,105.08,134.31,104.89Z"/><path class="a" d="M152.81,139.48c-2.33,4.19-6.81,2.43-10.14,3.87-.6-2.56,1.65-3.88,2.42-5.84,1.61-1.18,3.16-2.44,4.83-3.52,1.17-.76,2.56-1.48,2.57,1l-.05,0c-1.05.07-2.15.19-2,1.64.14,1.24,1.25,1,2.08,1.07Z"/><path class="a" d="M106.68,233.66l-4.23-.33a8,8,0,0,1,5.32-3.79c4-1.13,8.15-2.09,12.23-3.12l.18,1.5a10.56,10.56,0,0,1-6.9,3.54c-1.58.26-3.6-.11-4.46,2Z"/><path class="c" d="M144.18,225.51c3.74.86,7.37,1.94,9.51,5.65h-1.57l-.79-.39-1.68-.35c-.79-1.05-2-.84-3-1l0,0-.87-.74h0l-1.33-.89Z"/><path class="d" d="M108.82,233.45c.86-2.1,2.88-1.73,4.46-2a10.56,10.56,0,0,0,6.9-3.54c2,2.42-1,3.73-1.63,3.68C115.09,231.32,112.27,234.2,108.82,233.45Z"/><path class="a" d="M109.61,140.53c-.09.53-.13,1.07-.27,1.59-.23.87-.13,2.07-1.17,2.37s-1.43-.92-1.87-1.65-1.65-1.4-1.44-3l4.58.36Z"/><path class="d" d="M152.49,135c0-2.53-1.4-1.81-2.57-1-1.67,1.08-3.22,2.34-4.83,3.52,1.63-4.1,4.19-5.86,7.51-5.24,1,.18,1.8.44,1.75,1.66S153.56,135.47,152.49,135Z"/><path class="d" d="M152.52,137.79c-.83-.09-1.94.17-2.08-1.07-.15-1.45.95-1.57,2-1.64C152.46,136,152.49,136.89,152.52,137.79Z"/><path class="d" d="M120.94,135.74a4.09,4.09,0,0,1-2.74-1.6C119.57,133.86,120.88,133.68,120.94,135.74Z"/><path class="d" d="M146.61,229.42c1.07.17,2.25,0,3,1C148.57,230.3,147.3,230.78,146.61,229.42Z"/><path class="d" d="M144.42,227.81l1.33.89C145.34,228.35,143.93,229.57,144.42,227.81Z"/><path class="d" d="M151.33,230.78l.79.39Z"/><path class="d" d="M145.76,228.71l.87.74Z"/><path class="a" d="M98.78,142.94c3.59-1.58,3.83,1.6,5.23,3.56-5.59.92-5.81.75-5.23-3.56Z"/><path class="b" d="M78.09,146.09c-1-.31-2.89.61-3-1.08s1.76-1.17,2.8-1.17,2.89-.68,3,1C81,146.69,79.11,145.77,78.09,146.09Z"/><path class="b" d="M72.64,144.21a.93.93,0,0,1,1.09.83,1.09,1.09,0,0,1-.54.84.86.86,0,0,1-1.26-.47C71.74,144.82,72.1,144.43,72.64,144.21Z"/><path class="a" d="M114.72,264.47c.37-1.12-.76-3.06,1.3-3.18s2.38,1.75,2.37,3.39-.54,3.15-2.37,3C114,267.51,115.11,265.59,114.72,264.47Z"/><path class="a" d="M192.79,264.35c-.12,1.73-.33,3.47-2.25,3.34s-1.38-2-1.35-3.23-.7-3.09,1.38-3.13C192.48,261.29,192.71,263,192.79,264.35Z"/><path class="a" d="M67.47,264.71c.52-1.28-.78-3.25,1.33-3.41,1.84-.15,2.41,1.48,2.39,3.06s-.41,3.26-2.22,3.29C66.74,267.69,68.14,265.56,67.47,264.71Z"/><path class="a" d="M53.59,264.64c.5-1.27-.78-3.51,1.69-3.39,1.73.09,2.29,1.66,2.2,3.29s-.55,3.21-2.36,3.17C53,267.68,54,265.73,53.59,264.64Z"/><path class="a" d="M179.21,268.23c0,2.5.07,4.55-.84,6.46-.37.78-.8,1.43-1.73,1.42a1.77,1.77,0,0,1-1.67-1.49,22.55,22.55,0,0,1-.09-12.06,2,2,0,0,1,1.67-1.56c1.13-.13,1.55.8,2,1.67C179.45,264.6,179,266.68,179.21,268.23Z"/><path class="c" d="M135.71,263.63c1.84,2.47,1.22,4.64,1.81,6.5.35,1.1-.47,1.76-1.57,1.77-1.27,0-1.53-.93-1.39-1.94C134.83,268.11,135.22,266.28,135.71,263.63Z"/></svg>