<svg xmlns="http://www.w3.org/2000/svg" viewBox="0 0 354.36 84.76"><defs><style>.a{fill:#fcfdfd;}.b{fill:#316aaa;}.c{fill:#4575ac;}.d{fill:#1c60ac;}</style></defs><path class="a" d="M62.19,12.45C61.76,9,60,6.11,59,2.87,58.23.32,56.12.92,54.33,1c-1.95.07-1.76,1.65-1.76,3,0,9.65,0,19.3,0,28.95,0,3.54,1.55,4.18,5,2.26,1.35-4.83-.41-10,1.45-14.86a123.39,123.39,0,0,1,5.59,13.51c.79,2.28,2.4,2.21,4.14,2.14,2.19-.1,2-1.79,2-3.27,0-9.38,0-18.76,0-28.14,0-2.08,0-3.69-2.85-3.66S65.15,2.5,65.18,4.63c.07,3.71.53,7.49-.41,11.31C62.94,15.1,63.14,13.38,62.19,12.45ZM20,19.14l1.09.15c0,4.4.06,8.8,0,13.19-.05,2.23.31,3.62,3,3.58s2.51-1.75,2.51-3.56c0-9.25,0-18.5,0-27.75,0-1.63.62-3.9-2.22-3.74-2.16.12-4.75-1-5.54,2.79-1,4.79-2.65,9.44-4,14.15a8.22,8.22,0,0,1-2-3.74q-1.51-5.49-2.95-11C8.94-.18,6.26,1.18,4.22,1,1.82.86,2,2.75,2,4.41,2,13.93,2,23.46,1.94,33c0,2.34.91,3,3.08,3.07S7.59,34.87,7.56,33c-.07-4.54,0-9.08,0-13.62,2.82,4,3.28,8.65,4.8,12.9.45,1.26-.1,3.5,2,3.47,1.94,0,1.7-2.18,2.09-3.48C17.72,27.91,18.85,23.52,20,19.14ZM138.85,66.39c0,4.9.08,9.8,0,14.69-.06,2.22.81,2.81,2.81,2.79s3-.36,2.83-2.7a47.43,47.43,0,0,1,0-6.53c.07-1.23-.69-3.13,1.05-3.5s1.76,1.62,2.15,2.8c.89,2.71,1.69,5.45,2.52,8.17.92,3,3.34,1.78,5,1.56,2.41-.31.79-2.1.49-3.13-.86-3-1.85-6-2.94-8.88a3.05,3.05,0,0,1,.73-3.62c3.84-4.19,3.83-9.12,1.83-14.05s-6.13-5.54-10.64-5.25a10.17,10.17,0,0,1-2,0c-2.86-.41-4.07.59-3.89,3.78C139,57.13,138.85,61.76,138.85,66.39ZM66.38,48.82c-1.65.69-5.53-2.13-5.46,3.2.12,9.65.07,19.31,0,29,0,2.05.53,2.89,2.66,2.94,2.29,0,3.09-.79,3-3.08s0-4.9,0-7.35c0-.89-.29-2.11.92-2.4,1.47-.35,1.65,1,2,2,.89,2.85,1.81,5.69,2.58,8.57.86,3.16,3.35,2.46,5.2,2,2.51-.6.59-2.44.3-3.58A72.69,72.69,0,0,0,75,72.36a4.18,4.18,0,0,1,.84-4.73c3.4-4.17,3.5-9,1.38-13.8C75.22,49.32,71.29,48.37,66.38,48.82ZM38.55,66.4h0c0,4.76.08,9.53,0,14.28-.05,2.1.24,3.29,2.73,3.25,2.28,0,3-.84,2.9-3.12-.15-2.57,0-5.16,0-7.75,0-.79,0-1.75,1-2,1.23-.28,1.53.72,1.81,1.64.91,3,1.87,6,2.72,9s3.43,2.49,5.24,2c2.32-.6.47-2.43.2-3.63a35.93,35.93,0,0,0-1.89-5.79,7.09,7.09,0,0,1,.91-7.76c2.83-4,2.64-8.78.48-13.18-2-4.08-5.77-4.85-9.84-4.64a16.12,16.12,0,0,1-2.78,0c-2.58-.32-3.55.74-3.47,3.43C38.66,56.88,38.55,61.65,38.55,66.4ZM98.39,18.49h0c0,4.89.07,9.79,0,14.69,0,2.14.77,2.86,2.79,2.89s2.89-.69,2.8-2.85c-.11-2.71,0-5.43,0-8.15,0-.8,0-1.76,1-2,1.2-.27,1.58.69,1.87,1.62.9,2.85,2,5.65,2.6,8.56.75,3.29,3.14,3.21,5.24,2.58,2.59-.77.58-2.7.27-4a61.67,61.67,0,0,0-2.37-7.35,4.18,4.18,0,0,1,.85-4.73c3.4-4.16,3.41-9,1.37-13.8-1.91-4.47-5.71-5.26-10-5a11.83,11.83,0,0,1-2.38,0c-3-.38-4.34.67-4.13,4.05C98.59,9.5,98.39,14,98.39,18.49Zm162.94,48h0c0,4.62.05,9.25,0,13.87,0,2.12,0,3.64,2.86,3.57,2.56-.07,2.74-1.41,2.68-3.39-.07-2.44,0-4.89,0-7.34,0-.94-.09-2.09,1.14-2.25s1.48.93,1.76,1.84c.94,3,2,5.92,2.76,8.94.86,3.27,3.47,2.32,5.21,2,2.52-.5.59-2.41.3-3.55-.71-2.76-1.69-5.44-2.63-8.12a3.71,3.71,0,0,1,.77-4.32c3.59-4.06,3.47-9,1.56-13.76-1.76-4.41-5.55-5.48-9.85-5.25a25.16,25.16,0,0,1-3.58,0c-2.26-.18-3,.87-3,3.12C261.4,56.72,261.33,61.61,261.33,66.51ZM140.2,18.43c-.08-4.37-.36-8.69-2.26-12.72C136.38,2.4,134.08.29,130.28.22a7.74,7.74,0,0,0-7.79,5.25,34.48,34.48,0,0,0,0,26.19A7.73,7.73,0,0,0,130,36.75c3.62.09,6-1.77,7.64-4.85C139.89,27.69,140.09,23.08,140.2,18.43Zm116.44,48a29.5,29.5,0,0,0-1.52-11.64c-1.47-3.82-3.8-6.52-8.12-6.66s-7,2.38-8.38,6.24a36,36,0,0,0,.14,24.37c1.32,3.74,4,6,8.17,5.9s6.52-2.56,8-6.21A28.66,28.66,0,0,0,256.64,66.43Zm-163-40.75c0-2.16,0-3.93,0-5.7,0-1.52-.24-2.94-2.09-2.63-2.33.38-5.19-1.42-6.91,1.26-.59.91-.68,3.34.85,3.48,3.83.33,3,3,3.06,5.28,0,1.84,0,3.69-2.32,4.08s-3.51-1.16-4-3.11a39.1,39.1,0,0,1,0-19.75c.39-1.45,1.11-2.86,2.83-3.07a2.85,2.85,0,0,1,3.08,2.1c.76,2.06,2,1.72,3.5,1.07,2-.87,1.45-2.27.77-3.7C91.13,2.23,89.11.47,86,.27c-3.34-.22-6.26,1-7.67,4-4.26,9.38-4.41,19,.06,28.31C81,38,89,38.22,92.63,33.57,94.64,31,93.17,28,93.67,25.68ZM39.9,1.05c-2.43-.45-3.54.56-4,3.13Q33.2,18.6,30.13,32.94c-.53,2.49.25,3,2.53,3.14,3,.14,3.25-1.83,3.41-3.9.19-2.38,1.24-3,3.55-3.24,3.6-.31,3.79,2,4.11,4.5.4,3,2.55,2.81,4.52,2.48,2.4-.41,1.23-2.28,1-3.57C47.39,22.89,45.42,13.45,43.65,4,43.21,1.58,42.19.62,39.9,1.05ZM179.73,48.82c-2.87-.71-3.69,1-4.16,3.48-1.75,9.21-3.67,18.39-5.4,27.61-.25,1.32-1.65,3.47,1,3.9,2.28.37,4.67.27,4.57-3.24-.12-4.25,2.78-4,5.46-3.59s2.06,2.91,2.28,4.6c.41,3.06,2.53,2.25,4.23,2.25,2.55,0,1.66-1.8,1.39-3.18-1.86-9.47-3.76-18.94-5.61-28.41C183.07,50.07,182.55,48.13,179.73,48.82Zm39.79-25.11-1.09,0c-.2-.9-.45-1.8-.6-2.72-1-5.91-2-11.8-2.89-17.72C214.5.38,212.46,1,210.69,1s-1.76,1.19-1.49,2.57q3.06,15.2,6.06,30.4c.46,2.33,2.2,2,3.74,2,1.38,0,3,.43,3.42-1.78,2-10.28,4.11-20.53,6.17-30.8.32-1.59.11-2.48-1.92-2.49-2.41,0-3.55.67-3.92,3.28C221.82,10.73,220.62,17.21,219.52,23.71Zm-67.38,1.41-.76,0c-1.18-7-2.55-13.88-3.46-20.87C147.52,1.17,146,.65,143.65,1c-3,.46-1.55,2.72-1.28,4.13,1.69,9.08,3.59,18.12,5.33,27.19.46,2.42,1.21,3.77,4.05,3.8s3.54-1.43,4-3.82c1.73-9.07,3.64-18.11,5.33-27.19.27-1.41,1.78-3.66-1.27-4.11-2.46-.37-3.89.3-4.28,3.26C154.59,11.25,153.29,18.18,152.14,25.12ZM83.25,66.39v6.53c0,11.11,0,11.12,10.69,11,1.6,0,3.49.66,3.58-2.33s-1.73-2.65-3.61-2.78c-1.62-.12-4,1-4.69-1a13.64,13.64,0,0,1,0-8.43c.64-2.11,3-.82,4.61-1.11,1.3-.24,3,.6,3.33-1.78.3-2.57-.76-3.28-3.16-3.29-1.66,0-4.23,1.25-4.87-1.16a12.86,12.86,0,0,1,.18-7.2c.61-1.75,3.09-.58,4.73-.83a3.48,3.48,0,0,1,.79,0c1.76.17,2.71-.43,2.7-2.47s-.68-3-2.8-2.82a70.66,70.66,0,0,1-8.36,0c-2.54-.16-3.18,1-3.13,3.4C83.32,56.86,83.25,61.62,83.25,66.39Zm81.36-48.24h0v7.34c0,10.9,0,10.89,10.75,10.53,1.79-.06,3.4.09,3.43-2.64,0-2.9-1.8-2.38-3.48-2.54s-4,.92-4.76-.88a12.9,12.9,0,0,1-.09-8.39c.63-2.07,3-.95,4.59-1.08,1.79-.13,3.44.1,3.36-2.68s-1.92-2.64-3.57-2.41c-3.91.56-4.72-1.15-4.88-5-.23-5.27,2.94-4.35,5.89-4.35,1.54,0,2.92,0,2.94-2.26C178.81,1.74,178,.9,176,1a83.05,83.05,0,0,1-8.35,0c-2.55-.18-3.15.93-3.07,3.33C164.71,8.9,164.61,13.53,164.61,18.15ZM189,36.73c3.83.16,6.78-1.14,8.46-4.52a11.75,11.75,0,0,0-.87-12.36c-1.59-2.39-3.89-4.06-6-5.89s-3.53-4-2-6.74c1.42-2.56,3.77-2.2,5.9-.93,1.56.92,2.11,0,2.72-1.14s1-2.38-.5-3.5c-4.7-3.59-12.4-1-14,4.85-1.33,4.77.06,8.85,3.59,12.17,1.65,1.56,3.52,2.91,5.05,4.58,1.91,2.08,2.51,4.63.6,7-1.78,2.21-4.11,1.64-6.1.25-1.47-1-2.34-1.39-3.38.55-.94,1.76-1,2.95.78,4.05A9.69,9.69,0,0,0,189,36.73Zm48.73,0c3.84.18,6.7-1.33,8.27-4.73,1.91-4.13,1.41-8.2-1-12-1.53-2.47-4-3.94-6-5.88s-3.61-3.92-2.08-6.75c1.42-2.64,3.71-2.14,5.9-1.07,1.82.9,2.27-.46,2.95-1.66.8-1.4.28-2.2-.88-3a9.25,9.25,0,0,0-13.8,4.75,11.2,11.2,0,0,0,3.1,11.92C236,20,238,21.6,239.8,23.43c1.91,2,2.28,4.45.59,6.66s-4,2-6.06.47c-1.65-1.19-2.62-1.24-3.73.77s-.39,3,1.21,3.9A10,10,0,0,0,237.74,36.71ZM117.36,74.47c.21-4.12-1.93-7.41-5.12-10.17a45.07,45.07,0,0,1-4.15-3.77,4.53,4.53,0,0,1-.52-6c1.34-1.93,3.29-1.67,5-.71,1.89,1.06,2.83.54,3.66-1.35,1-2.31-.55-2.92-2-3.58-4.09-1.84-9.11-.61-11.5,2.75a11.08,11.08,0,0,0,.86,13.26,72.61,72.61,0,0,0,5.56,5.24c2.25,2.1,3.66,4.61,1.77,7.54s-4.39,2-6.64.42c-1.54-1.05-2.29-.6-3.07.9s-1.29,2.63.5,3.76a10.8,10.8,0,0,0,10.64,1C116,82.16,117.44,78.87,117.36,74.47Zm200.46,0A11.38,11.38,0,0,0,314,65.67c-1.55-1.48-3.29-2.76-4.79-4.28-1.81-1.83-3-4.06-1.39-6.57,1.45-2.31,3.63-2,5.63-.8,1.68,1,2.33.16,3-1.26s.37-2.5-1-3.41c-4.1-2.77-10.9-1-13.09,3.55s-1,9.91,3,13.67c1.58,1.45,3.34,2.71,4.8,4.28,1.84,2,3,4.33,1.08,6.93s-4.25,1.93-6.39.54c-1.58-1-2.43-1.11-3.4.75s-.8,3,1,4c3.49,2,7.11,2.34,10.67.51S317.92,78.59,317.82,74.48ZM346.94,48.1c-5.22-.07-8.73,3.35-9,8.73a12.1,12.1,0,0,0,4.9,10.58c1.77,1.42,3.7,2.7,4.87,4.72s1.38,4.21-.22,6.07-3.62,1.6-5.45.49-3.14-2-4.27.79.79,3.43,2.42,4.21c4.32,2.06,9.32,1.06,12-2.24,2.91-3.59,2.91-9.51.06-13.68-1.71-2.5-4.14-4.18-6.3-6.17-1.95-1.78-3.1-4-1.76-6.49s3.69-2.29,5.85-1.06c1.48.83,2.15.22,2.78-1.06s1-2.49-.54-3.48A11,11,0,0,0,346.94,48.1ZM283.69,66.27c0,4.89.07,9.78,0,14.67-.05,2,.53,3,2.66,2.93,3.05-.11,6.1-.16,9.14,0,2.39.14,2.5-1.17,2.45-3-.07-2.71-2-1.84-3.44-2.08-1.71-.3-4.19,1.08-5-1.22a13.11,13.11,0,0,1,0-8c.77-2.35,3.24-1.08,4.95-1.24,2.71-.25,4.1-2,3-4-.93-1.73-2.65-1-3.94-.92-3.16.28-4.54-.66-4.37-4.23.25-5,0-5,5.39-5.13,1.74,0,3.45.33,3.46-2.5,0-2.57-1.25-2.84-3.23-2.76a72.5,72.5,0,0,1-7.94,0c-2.55-.19-3.19.93-3.13,3.32C283.78,56.75,283.69,61.51,283.69,66.27Zm-263.86,0v6.95c0,12,0,12,11.75,10.69.27,0,.53,0,.8,0a1.63,1.63,0,0,0,1.56-1.54c.43-2.62-.46-3.72-3.2-3.62-1.72.07-4.47,1.15-5.06-.83a17.06,17.06,0,0,1-.09-8.46c.57-2.35,3.24-1.13,4.89-1.08,3,.09,3.47-1.48,2.92-3.79-.51-2.11-2.42-1-3.72-1.28s-3.67.91-4.13-1.12a14.46,14.46,0,0,1,.08-7.25c.59-1.86,3.06-.62,4.67-.91a3,3,0,0,1,.79,0c1.93.18,3-.45,2.92-2.7s-1.3-2.61-3.12-2.55c-2.78.07-5.58.1-8.36,0-2.13-.11-2.78.8-2.74,2.86C19.88,56.46,19.82,61.36,19.83,66.26Zm199.09.29h0c0,4.75.08,9.5,0,14.25,0,2.21.53,3.18,2.88,3.18s3-1,2.84-3.21c-.14-2,0-4.07,0-6.11,0-6,0-6,5.79-6.36,1.74-.11,2.71-.49,2.65-2.55s-1-2.62-2.74-2.5c-1.19.08-2.38,0-3.57,0a1.92,1.92,0,0,1-2.07-1.46C223.07,57,225,54.05,229.7,54c.39,0,.79,0,1.19,0,1.67.14,2.42-.59,2.39-2.35s-.2-3-2.32-2.9a79.44,79.44,0,0,1-8.73,0c-2.8-.23-3.39,1.12-3.34,3.6C219,57,218.92,61.79,218.92,66.55ZM127.49,48.72c-1.86,0-3.72,0-5.57,0s-2.77.47-2.81,2.5c0,1.82.43,3,2.42,2.75,2.66-.34,3,1.14,3,3.4-.08,7.49,0,15,0,22.45,0,2-.52,4.08,2.74,4.14s2.89-1.87,2.88-4c0-7.49,0-15,0-22.45,0-2.12.08-3.89,2.88-3.56,2,.25,2.39-1,2.41-2.77,0-2-.95-2.58-2.72-2.49S129.21,48.72,127.49,48.72ZM324.65,69.06c0,3.66,0,7.33,0,11,0,2.14-.21,4,2.92,3.94,3,0,2.67-1.86,2.66-3.79,0-7.6,0-15.21,0-22.81,0-2.21.28-3.77,3-3.45,1.71.2,2.32-.75,2.31-2.44s-.6-2.82-2.52-2.79c-3.57,0-7.15.06-10.72,0-1.6,0-2.86.06-2.87,2.27,0,1.91.29,3.25,2.55,3,2.46-.28,2.81,1.21,2.77,3.26C324.59,61.18,324.65,65.12,324.65,69.06Zm-319.2.09h0c0,3.81,0,7.62,0,11.42,0,1.93,0,3.35,2.59,3.37s3-1.29,3-3.51c-.08-7.61,0-15.22-.07-22.83,0-2.38.23-4.05,3.13-3.66,1.77.24,2.27-.83,2.28-2.47,0-1.82-.54-2.79-2.5-2.75-3.57.09-7.15.06-10.73,0-1.73,0-3.1.06-3.1,2.51,0,2.18.84,3,2.83,2.74,2.15-.23,2.7.93,2.65,2.93C5.38,61,5.45,65.08,5.45,69.15Zm187.28-2.84c0,4.9,0,9.8,0,14.7,0,1.13-.49,2.77,1.34,2.83,3.71.1,7.43,0,11.15,0,1.73,0,1.68-1.32,1.72-2.59,0-1.45-.39-2.4-2-2.41a20,20,0,0,0-2.79,0c-3.14.48-4.14-.8-4-4.06.22-7.48.05-15,.08-22.46,0-2.08,0-3.63-2.87-3.64-3,0-2.64,1.87-2.64,3.76Zm-25.88,0c0-4.76,0-9.52,0-14.28,0-2-.08-3.44-2.68-3.38-2.22,0-3.07.81-3.06,3.1.07,9.79.1,19.59,0,29.39,0,2.55,1.19,2.82,3.19,2.86,2.22.05,2.62-1,2.58-3C166.78,76.07,166.86,71.17,166.85,66.27ZM254,36.78c2.2-.08,3.48-1.2,3.5-3.48s-1.22-3.5-3.43-3.49a3.09,3.09,0,0,0-3.31,3.25A3.19,3.19,0,0,0,254,36.78Z"/><path class="b" d="M20,19.14c-1.19,4.38-2.32,8.77-3.61,13.11-.39,1.3-.15,3.44-2.09,3.48-2.1,0-1.55-2.21-2-3.47-1.52-4.25-2-8.88-4.8-12.9,0,4.54,0,9.08,0,13.62,0,1.89-.24,3.1-2.54,3.07S1.92,35.32,1.94,33c.08-9.52,0-19,0-28.57C2,2.75,1.82.86,4.22,1c2,.15,4.72-1.21,5.61,2.18q1.44,5.51,2.95,11a8.22,8.22,0,0,0,2,3.74c1.38-4.71,3-9.36,4-14.15C19.61,0,22.2,1.13,24.36,1c2.84-.16,2.21,2.11,2.22,3.74,0,9.25,0,18.5,0,27.75,0,1.81.2,3.53-2.51,3.56s-3-1.35-3-3.58c.09-4.39,0-8.79,0-13.19Z"/><path class="b" d="M138.85,66.39c0-4.63.19-9.26-.07-13.88-.18-3.19,1-4.19,3.89-3.78a10.17,10.17,0,0,0,2,0c4.51-.29,8.7.46,10.64,5.25s2,9.86-1.83,14.05a3.05,3.05,0,0,0-.73,3.62c1.09,2.91,2.08,5.88,2.94,8.88.3,1,1.92,2.82-.49,3.13-1.69.22-4.11,1.44-5-1.56-.83-2.72-1.63-5.46-2.52-8.17-.39-1.18-.34-3.17-2.15-2.8s-1,2.27-1.05,3.5a47.43,47.43,0,0,0,0,6.53c.2,2.34-.92,2.68-2.83,2.7s-2.87-.57-2.81-2.79C138.93,76.19,138.85,71.29,138.85,66.39Zm5.22-6.63c1.31,1.76-1.85,5.52,2.41,5.63,3.44.08,4.19-2.77,4.13-5.71s-.44-5.8-4.12-5.6C142.22,54.31,145.37,58,144.07,59.76Z"/><path class="b" d="M66.38,48.82c4.91-.45,8.84.5,10.84,5,2.12,4.78,2,9.63-1.38,13.8A4.18,4.18,0,0,0,75,72.36a72.69,72.69,0,0,1,2.5,7.74c.29,1.14,2.21,3-.3,3.58-1.85.44-4.34,1.14-5.2-2-.77-2.88-1.69-5.72-2.58-8.57-.32-1-.5-2.34-2-2-1.21.29-.9,1.51-.92,2.4,0,2.45-.14,4.91,0,7.35s-.67,3.13-3,3.08c-2.13-.05-2.68-.89-2.66-2.94.08-9.66.13-19.32,0-29C60.85,46.69,64.73,49.51,66.38,48.82Zm6.27,10.36c-.05-.39-.12-1.2-.29-2A3.65,3.65,0,0,0,68,54c-2.57.26-1.48,2.4-1.64,3.8a28.74,28.74,0,0,0,0,4.45c.05,1.26-.47,3,1.48,3.19a3.69,3.69,0,0,0,4-1.93A8.32,8.32,0,0,0,72.65,59.18Z"/><path class="b" d="M38.55,66.4c0-4.75.11-9.52,0-14.27-.08-2.69.89-3.75,3.47-3.43a16.12,16.12,0,0,0,2.78,0c4.07-.21,7.83.56,9.84,4.64,2.16,4.4,2.35,9.2-.48,13.18a7.09,7.09,0,0,0-.91,7.76,35.93,35.93,0,0,1,1.89,5.79c.27,1.2,2.12,3-.2,3.63-1.81.46-4.37,1.07-5.24-2s-1.81-6-2.72-9c-.28-.92-.58-1.92-1.81-1.64-1,.23-.94,1.19-1,2,0,2.59-.17,5.18,0,7.75.13,2.28-.62,3.09-2.9,3.12-2.49,0-2.78-1.15-2.73-3.25.12-4.75,0-9.52,0-14.28Zm11.74-7a17.8,17.8,0,0,0-.28-2.1C49.48,55,48.12,53.79,45.76,54c-2.58.23-1.6,2.32-1.73,3.73a41.29,41.29,0,0,0,0,4.85c0,1.15-.31,2.61,1.4,2.85A3.67,3.67,0,0,0,49,64.24C50.09,62.92,50.26,61.32,50.29,59.38Z"/><path class="b" d="M98.39,18.49c0-4.49.2-9-.07-13.46C98.11,1.65,99.43.6,102.45,1a11.83,11.83,0,0,0,2.38,0c4.25-.28,8,.51,10,5,2,4.81,2,9.64-1.37,13.8a4.18,4.18,0,0,0-.85,4.73,61.67,61.67,0,0,1,2.37,7.35c.31,1.3,2.32,3.23-.27,4-2.1.63-4.49.71-5.24-2.58-.65-2.91-1.7-5.71-2.6-8.56-.29-.93-.67-1.89-1.87-1.62-1,.23-.94,1.19-1,2,0,2.72-.14,5.44,0,8.15.09,2.16-.77,2.87-2.8,2.85s-2.84-.75-2.79-2.89c.11-4.9,0-9.8,0-14.69Zm5.24-6.77c1.17,1.89-1.7,5.27,2.17,5.92,2.64.45,4.54-2.17,4.45-5.88-.07-2.8-.54-5.79-4.12-5.67C101.94,6.24,104.79,9.91,103.63,11.72Z"/><path class="b" d="M261.33,66.51c0-4.9.07-9.79,0-14.69-.05-2.25.71-3.3,3-3.12a25.16,25.16,0,0,0,3.58,0c4.3-.23,8.09.84,9.85,5.25,1.91,4.77,2,9.7-1.56,13.76a3.71,3.71,0,0,0-.77,4.32c.94,2.68,1.92,5.36,2.63,8.12.29,1.14,2.22,3-.3,3.55-1.74.35-4.35,1.3-5.21-2-.79-3-1.82-6-2.76-8.94-.28-.91-.58-2-1.76-1.84s-1.13,1.31-1.14,2.25c0,2.45-.07,4.9,0,7.34.06,2-.12,3.32-2.68,3.39-2.83.07-2.89-1.45-2.86-3.57.08-4.62,0-9.25,0-13.87Zm11.83-7.16c-.08-.47-.13-1.16-.29-1.81-.55-2.19-1.72-3.7-4.16-3.52-2.87.21-1.7,2.53-1.86,4a33.47,33.47,0,0,0,0,4.48c0,1-.3,2.35,1,2.78a3.39,3.39,0,0,0,3.67-.9C272.83,63.09,273.13,61.36,273.16,59.35Z"/><path class="b" d="M140.2,18.44c-.11,4.64-.31,9.25-2.57,13.46-1.66,3.08-4,4.94-7.64,4.85a7.73,7.73,0,0,1-7.49-5.09,34.48,34.48,0,0,1,0-26.19A7.74,7.74,0,0,1,130.28.22c3.8.07,6.1,2.18,7.66,5.49C139.84,9.74,140.12,14.06,140.2,18.44Zm-14.33,0c-.05,3.68,0,7.35,1.48,10.82.55,1.32,1.45,2.33,3,2.22a2.91,2.91,0,0,0,2.57-2.24A35.81,35.81,0,0,0,133.06,8c-.38-1.32-1.18-2.55-2.72-2.64-1.74-.1-2.58,1.22-3.14,2.65C125.9,11.37,125.84,14.91,125.87,18.46Z"/><path class="b" d="M62.19,12.45c1,.93.75,2.65,2.58,3.49.94-3.82.48-7.6.41-11.31,0-2.13-.09-3.68,2.73-3.71s2.86,1.58,2.85,3.66c0,9.38,0,18.76,0,28.14,0,1.48.23,3.17-2,3.27-1.74.07-3.35.14-4.14-2.14a123.39,123.39,0,0,0-5.59-13.51c-1.86,4.87-.1,10-1.44,14.86-2.89.54-3.69-.83-3.56-3.63.19-3.94.05-7.89.05-11.84,0-4.91,0-9.81,0-14.71,0-1.38.36-2.41,1.72-2.85,1.66-.54,1.38,1.27,2.12,1.85C58.89,4.77,58.67,6,59,7,59.69,9,59.92,11.37,62.19,12.45Z"/><path class="b" d="M256.65,66.43a28.82,28.82,0,0,1-1.71,12c-1.49,3.65-3.86,6.12-8,6.21s-6.85-2.16-8.17-5.9a36,36,0,0,1-.14-24.37c1.35-3.86,4-6.39,8.38-6.24s6.65,2.84,8.12,6.66A29.69,29.69,0,0,1,256.65,66.43Zm-5.6-.22c0-3.41,0-6.82-1.19-10.07-.52-1.45-1.22-2.81-3-2.83s-2.66,1.21-3.09,2.7a37.61,37.61,0,0,0-.06,20.51c.39,1.44,1.26,2.81,3,2.86,2,.06,2.68-1.54,3.23-3.08C251.11,73,251,69.61,251.05,66.21Z"/><path class="b" d="M93.67,25.68c-.5,2.35,1,5.35-1,7.89C89,38.22,81,38,78.39,32.62c-4.47-9.27-4.32-18.93-.06-28.31C79.74,1.22,82.66.05,86,.27c3.11.2,5.13,2,6.45,4.72.68,1.43,1.22,2.83-.77,3.7-1.47.65-2.74,1-3.5-1.07a2.85,2.85,0,0,0-3.08-2.1c-1.72.21-2.44,1.62-2.83,3.07a39.1,39.1,0,0,0,0,19.75c.49,1.95,1.67,3.51,4,3.11s2.35-2.24,2.32-4.08c0-2.32.77-4.95-3.06-5.28-1.53-.14-1.44-2.57-.85-3.48,1.72-2.68,4.58-.88,6.91-1.26C93.43,17,93.7,18.46,93.67,20,93.64,21.75,93.67,23.52,93.67,25.68Z"/><path class="b" d="M39.9,1.05c2.29-.43,3.31.53,3.75,2.92,1.77,9.48,3.74,18.92,5.58,28.38.25,1.29,1.42,3.16-1,3.57-2,.33-4.12.5-4.52-2.48-.32-2.47-.51-4.81-4.11-4.5-2.31.2-3.36.86-3.55,3.24-.16,2.07-.46,4-3.41,3.9-2.28-.12-3.06-.65-2.53-3.14q3-14.34,5.75-28.76C36.36,1.61,37.47.6,39.9,1.05ZM39.2,12.5l-1.65,9.28c-.36,2,.88,2.17,2.34,2.19,1.65,0,2.52-.58,2.13-2.41C41.38,18.58,41.36,15.45,39.2,12.5Z"/><path class="b" d="M179.73,48.82c2.82-.69,3.34,1.25,3.76,3.42,1.85,9.47,3.75,18.94,5.61,28.41.27,1.38,1.16,3.19-1.39,3.18-1.7,0-3.82.81-4.23-2.25-.22-1.69.32-4.22-2.28-4.6s-5.58-.66-5.46,3.59c.1,3.51-2.29,3.61-4.57,3.24-2.65-.43-1.25-2.58-1-3.9,1.73-9.22,3.65-18.4,5.4-27.61C176,49.82,176.86,48.11,179.73,48.82Zm.05,8.76-.43,0c-.61,3.68-1.27,7.36-1.81,11.06-.16,1.06-1.15,2.53.56,3.1a4.35,4.35,0,0,0,3.06-.09c1.39-.7.59-2.16.42-3.28C181,64.73,180.39,61.16,179.78,57.58Z"/><path class="b" d="M219.52,23.71c1.1-6.5,2.3-13,3.23-19.51.37-2.61,1.51-3.3,3.92-3.28,2,0,2.24.9,1.92,2.49-2.06,10.27-4.15,20.52-6.17,30.8C222,36.42,220.38,36,219,36c-1.54,0-3.28.33-3.74-2q-3-15.21-6.06-30.4c-.27-1.38-.27-2.55,1.49-2.57s3.81-.64,4.25,2.28c.88,5.92,1.9,11.81,2.89,17.72.15.92.4,1.82.6,2.72Z"/><path class="b" d="M152.14,25.12c1.15-6.94,2.45-13.87,3.39-20.85.39-3,1.82-3.63,4.28-3.26,3.05.45,1.54,2.7,1.27,4.11-1.69,9.08-3.6,18.12-5.33,27.19-.46,2.39-1.09,3.85-4,3.82s-3.59-1.38-4.05-3.8c-1.74-9.07-3.64-18.11-5.33-27.19-.27-1.41-1.75-3.67,1.28-4.13,2.39-.36,3.87.16,4.27,3.22.91,7,2.28,13.92,3.46,20.87Z"/><path class="b" d="M83.25,66.39c0-4.77.07-9.53,0-14.29,0-2.36.59-3.56,3.13-3.4a70.66,70.66,0,0,0,8.36,0c2.12-.13,2.79.77,2.8,2.82s-.94,2.64-2.7,2.47A3.48,3.48,0,0,0,94,54c-1.64.25-4.12-.92-4.73.83A12.86,12.86,0,0,0,89.1,62c.64,2.41,3.21,1.16,4.87,1.16,2.4,0,3.46.72,3.16,3.29-.28,2.38-2,1.54-3.33,1.78-1.59.29-4-1-4.61,1.11a13.64,13.64,0,0,0,0,8.43c.71,2,3.07.85,4.69,1,1.88.13,3.72-.33,3.61,2.78s-2,2.3-3.58,2.33c-10.7.16-10.7.15-10.69-11Z"/><path class="b" d="M164.61,18.15c0-4.62.1-9.25-.05-13.87-.08-2.4.52-3.51,3.07-3.33A83.05,83.05,0,0,0,176,1c2-.06,2.83.78,2.82,2.88,0,2.26-1.4,2.26-2.94,2.26-3,0-6.12-.92-5.89,4.35.16,3.8,1,5.51,4.88,5,1.65-.23,3.49-.42,3.57,2.41s-1.57,2.55-3.36,2.68c-1.59.13-4-1-4.59,1.08a12.9,12.9,0,0,0,.09,8.39c.73,1.8,3.12.73,4.76.88s3.5-.36,3.48,2.54c0,2.73-1.64,2.58-3.43,2.64-10.74.36-10.74.37-10.75-10.53V18.15Z"/><path class="b" d="M189,36.73a9.69,9.69,0,0,1-5.83-1.63c-1.77-1.1-1.72-2.29-.78-4.05,1-1.94,1.91-1.56,3.38-.55,2,1.39,4.32,2,6.1-.25,1.91-2.37,1.31-4.92-.6-7-1.53-1.67-3.4-3-5.05-4.58-3.53-3.32-4.92-7.4-3.59-12.17,1.64-5.89,9.34-8.44,14-4.85,1.47,1.12,1.18,2.18.5,3.5S196,7.21,194.46,6.29c-2.13-1.27-4.48-1.63-5.9.93-1.52,2.75-.07,5,2,6.74s4.44,3.5,6,5.89a11.75,11.75,0,0,1,.87,12.36C195.79,35.59,192.84,36.89,189,36.73Z"/><path class="b" d="M237.74,36.71a10,10,0,0,1-5.93-1.48c-1.6-.95-2.3-1.91-1.21-3.9s2.08-2,3.73-.77c2.06,1.49,4.39,1.72,6.06-.47s1.32-4.68-.59-6.66C238,21.6,236,20,234.21,18.23a11.2,11.2,0,0,1-3.1-11.92,9.25,9.25,0,0,1,13.8-4.75c1.16.81,1.68,1.61.88,3-.68,1.2-1.13,2.56-2.95,1.66-2.19-1.07-4.48-1.57-5.9,1.07-1.53,2.83.14,4.9,2.08,6.75s4.5,3.41,6,5.88c2.37,3.85,2.87,7.92,1,12.05C244.44,35.38,241.58,36.89,237.74,36.71Z"/><path class="b" d="M117.36,74.47c.08,4.4-1.33,7.69-5,9.33a10.8,10.8,0,0,1-10.64-1c-1.79-1.13-1.25-2.31-.5-3.76s1.53-2,3.07-.9c2.25,1.54,4.81,2.44,6.64-.42s.48-5.44-1.77-7.54a72.61,72.61,0,0,1-5.56-5.24,11.08,11.08,0,0,1-.86-13.26c2.39-3.36,7.41-4.59,11.5-2.75,1.47.66,3,1.27,2,3.58-.83,1.89-1.77,2.41-3.66,1.35-1.71-1-3.66-1.22-5,.71a4.53,4.53,0,0,0,.52,6,45.07,45.07,0,0,0,4.15,3.77C115.43,67.06,117.57,70.35,117.36,74.47Z"/><path class="b" d="M317.82,74.48c.1,4.11-1.16,7.32-4.61,9.09S306,85,302.54,83.06c-1.81-1-2-2.16-1-4s1.82-1.78,3.4-.75c2.14,1.39,4.53,2,6.39-.54s.76-5-1.08-6.93c-1.46-1.57-3.22-2.83-4.8-4.28-4.07-3.76-5.25-9.12-3-13.67s9-6.32,13.09-3.55c1.35.91,1.72,1.88,1,3.41s-1.33,2.25-3,1.26c-2-1.18-4.18-1.51-5.63.8-1.57,2.51-.42,4.74,1.39,6.57,1.5,1.52,3.24,2.8,4.79,4.28A11.38,11.38,0,0,1,317.82,74.48Z"/><path class="b" d="M346.94,48.1a11,11,0,0,1,5.32,1.41c1.56,1,1.2,2.16.54,3.48s-1.3,1.89-2.78,1.06c-2.16-1.23-4.48-1.54-5.85,1.06s-.19,4.71,1.76,6.49c2.16,2,4.59,3.67,6.3,6.17,2.85,4.17,2.85,10.09-.06,13.68-2.68,3.3-7.68,4.3-12,2.24-1.63-.78-3.51-1.5-2.42-4.21s2.5-1.86,4.27-.79,3.89,1.33,5.45-.49,1.38-4,.22-6.07-3.1-3.3-4.87-4.72a12.1,12.1,0,0,1-4.9-10.58C338.21,51.45,341.72,48,346.94,48.1Z"/><path class="b" d="M283.69,66.27c0-4.76.09-9.52,0-14.27-.06-2.39.58-3.51,3.13-3.32a72.5,72.5,0,0,0,7.94,0c2-.08,3.25.19,3.23,2.76,0,2.83-1.72,2.48-3.46,2.5-5.37.08-5.14.11-5.39,5.13-.17,3.57,1.21,4.51,4.37,4.23,1.29-.11,3-.81,3.94.92,1.13,2.08-.26,3.79-3,4-1.71.16-4.18-1.11-4.95,1.24a13.11,13.11,0,0,0,0,8c.77,2.3,3.25.92,5,1.22,1.42.24,3.37-.63,3.44,2.08,0,1.85-.06,3.16-2.45,3-3-.18-6.09-.13-9.14,0-2.13.08-2.71-.89-2.66-2.93C283.76,76.05,283.69,71.16,283.69,66.27Z"/><path class="b" d="M19.82,66.26c0-4.9.06-9.8,0-14.71,0-2.06.61-3,2.74-2.86,2.78.14,5.58.11,8.36,0C32.71,48.67,34,49,34,51.28s-1,2.88-2.92,2.7a3,3,0,0,0-.79,0c-1.61.29-4.08-1-4.67.91a14.46,14.46,0,0,0-.08,7.25c.46,2,2.71.79,4.13,1.12s3.21-.83,3.72,1.28c.55,2.31.05,3.88-2.92,3.79-1.65,0-4.32-1.27-4.89,1.08a17.06,17.06,0,0,0,.09,8.46c.59,2,3.34.9,5.06.83,2.74-.1,3.63,1,3.2,3.62a1.63,1.63,0,0,1-1.56,1.54c-.27,0-.53,0-.8,0-11.77,1.26-11.77,1.26-11.75-10.69Q19.83,69.75,19.82,66.26Z"/><path class="b" d="M218.92,66.55c0-4.76.06-9.51,0-14.26,0-2.48.54-3.83,3.34-3.6a79.44,79.44,0,0,0,8.73,0c2.12-.06,2.29,1.23,2.32,2.9s-.72,2.49-2.39,2.35c-.4,0-.8,0-1.19,0-4.75.09-6.63,3-5.06,7.82a1.92,1.92,0,0,0,2.07,1.46c1.19,0,2.38.09,3.57,0,1.78-.12,2.68.51,2.74,2.5s-.91,2.44-2.65,2.55c-5.8.34-5.8.4-5.79,6.36,0,2-.11,4.09,0,6.11.14,2.19-.47,3.2-2.84,3.21s-2.93-1-2.88-3.18c.12-4.75,0-9.5,0-14.25Z"/><path class="b" d="M127.49,48.72c1.72,0,3.45.07,5.17,0s2.75.45,2.72,2.49c0,1.74-.38,3-2.41,2.77-2.8-.33-2.9,1.44-2.88,3.56.06,7.48,0,15,0,22.45,0,2.1.34,4-2.88,4s-2.74-2.14-2.74-4.14c0-7.48-.06-15,0-22.45,0-2.26-.34-3.74-3-3.4-2,.25-2.45-.93-2.42-2.75,0-2,1.09-2.54,2.81-2.5S125.63,48.72,127.49,48.72Z"/><path class="b" d="M324.65,69.06c0-3.94-.06-7.88,0-11.82,0-2.05-.31-3.54-2.77-3.26-2.26.26-2.56-1.08-2.55-3,0-2.21,1.27-2.29,2.87-2.27,3.57.05,7.15,0,10.72,0,1.92,0,2.51,1,2.52,2.79s-.6,2.64-2.31,2.44c-2.68-.32-3,1.24-3,3.45.08,7.6,0,15.21,0,22.81,0,1.93.31,3.74-2.66,3.79-3.13.05-2.95-1.8-2.92-3.94C324.69,76.39,324.65,72.72,324.65,69.06Z"/><path class="b" d="M5.45,69.15c0-4.07-.07-8.15,0-12.23,0-2-.5-3.16-2.65-2.93C.84,54.21,0,53.43,0,51.25c0-2.45,1.37-2.53,3.1-2.51,3.58,0,7.16.07,10.73,0,2,0,2.52.93,2.5,2.75,0,1.64-.51,2.71-2.28,2.47-2.9-.39-3.16,1.28-3.13,3.66.1,7.61,0,15.22.07,22.83,0,2.22-.24,3.53-3,3.51S5.41,82.5,5.45,80.57c.06-3.8,0-7.61,0-11.42Z"/><path class="b" d="M192.73,66.31V52.42c0-1.89-.4-3.77,2.64-3.76,2.83,0,2.88,1.56,2.87,3.64,0,7.49.14,15-.08,22.46-.1,3.26.9,4.54,4,4.06a20,20,0,0,1,2.79,0c1.57,0,2,1,2,2.41,0,1.27,0,2.57-1.72,2.59-3.72,0-7.44.13-11.15,0-1.83-.06-1.33-1.7-1.34-2.83C192.71,76.11,192.73,71.21,192.73,66.31Z"/><path class="c" d="M166.86,66.27c0,4.9-.08,9.8,0,14.69,0,2-.36,3.05-2.58,3-2,0-3.22-.31-3.19-2.86.1-9.8.07-19.6,0-29.39,0-2.29.84-3.05,3.06-3.1,2.6-.06,2.7,1.42,2.68,3.38C166.82,56.75,166.85,61.51,166.86,66.27Zm-4.36-.15c0,4.62,0,9.25,0,13.87,0,1.2-.16,2.63,1.65,2.6,1.51,0,1.54-1.23,1.54-2.34q0-13.86,0-27.72c0-1.09,0-2.32-1.47-2.4-1.81-.09-1.72,1.32-1.72,2.54C162.49,57.15,162.5,61.64,162.5,66.12Z"/><path class="c" d="M62.19,12.45C59.92,11.37,59.69,9,59,7c-.33-1-.11-2.18-1.07-2.93-.74-.58-.46-2.39-2.12-1.85-1.36.44-1.73,1.47-1.72,2.85,0,4.9,0,9.8,0,14.71,0,3.95.14,7.9-.05,11.84-.13,2.8.67,4.17,3.56,3.63-3.48,1.92-5,1.28-5-2.26-.06-9.65,0-19.3,0-28.95,0-1.35-.19-2.93,1.76-3C56.12.92,58.23.32,59,2.87,60,6.11,61.76,9,62.19,12.45Z"/><path class="c" d="M254,36.78a3.19,3.19,0,0,1-3.24-3.72,3.09,3.09,0,0,1,3.31-3.25c2.21,0,3.45,1.2,3.43,3.49S256.21,36.7,254,36.78Z"/><path class="a" d="M144.07,59.76c1.3-1.78-1.85-5.45,2.42-5.68,3.68-.2,4.06,2.77,4.12,5.6s-.69,5.79-4.13,5.71C142.22,65.28,145.38,61.52,144.07,59.76Z"/><path class="a" d="M72.65,59.18a8.32,8.32,0,0,1-.76,4.34,3.69,3.69,0,0,1-4,1.93c-2-.23-1.43-1.93-1.48-3.19a28.74,28.74,0,0,1,0-4.45c.16-1.4-.93-3.54,1.64-3.8a3.65,3.65,0,0,1,4.33,3.18C72.53,58,72.6,58.79,72.65,59.18Z"/><path class="a" d="M50.29,59.38c0,1.94-.2,3.54-1.29,4.86a3.67,3.67,0,0,1-3.59,1.19c-1.71-.24-1.36-1.7-1.4-2.85a41.29,41.29,0,0,1,0-4.85c.13-1.41-.85-3.5,1.73-3.73,2.36-.21,3.72,1,4.25,3.28A17.8,17.8,0,0,1,50.29,59.38Z"/><path class="a" d="M103.63,11.72c1.16-1.81-1.69-5.48,2.5-5.63,3.58-.12,4.05,2.87,4.12,5.67.09,3.71-1.81,6.33-4.45,5.88C101.93,17,104.8,13.61,103.63,11.72Z"/><path class="a" d="M273.16,59.35c0,2-.33,3.74-1.63,5.08a3.39,3.39,0,0,1-3.67.9c-1.33-.43-1-1.74-1-2.78a33.47,33.47,0,0,1,0-4.48c.16-1.52-1-3.84,1.86-4,2.44-.18,3.61,1.33,4.16,3.52C273,58.19,273.08,58.88,273.16,59.35Z"/><path class="a" d="M125.87,18.46c0-3.55,0-7.09,1.33-10.44.56-1.43,1.4-2.75,3.14-2.65,1.54.09,2.34,1.32,2.72,2.64a35.81,35.81,0,0,1-.14,21.25,2.91,2.91,0,0,1-2.57,2.24c-1.55.11-2.45-.9-3-2.22C125.9,25.81,125.82,22.14,125.87,18.46Z"/><path class="a" d="M251.05,66.21c0,3.4.06,6.83-1.09,10.09-.55,1.54-1.25,3.14-3.23,3.08-1.74,0-2.61-1.42-3-2.86A37.61,37.61,0,0,1,243.79,56c.43-1.49,1.34-2.73,3.09-2.7s2.46,1.38,3,2.83C251,59.39,251.08,62.8,251.05,66.21Z"/><path class="a" d="M39.2,12.5c2.16,2.95,2.18,6.08,2.82,9.06.39,1.83-.48,2.43-2.13,2.41-1.46,0-2.7-.18-2.34-2.19Z"/><path class="a" d="M179.78,57.58c.61,3.58,1.25,7.15,1.8,10.74.17,1.12,1,2.58-.42,3.28a4.35,4.35,0,0,1-3.06.09c-1.71-.57-.72-2-.56-3.1.54-3.7,1.2-7.38,1.81-11.06Z"/><path class="d" d="M162.5,66.12c0-4.48,0-9,0-13.45,0-1.22-.09-2.63,1.72-2.54,1.5.08,1.46,1.31,1.47,2.4q0,13.86,0,27.72c0,1.11,0,2.31-1.54,2.34-1.81,0-1.65-1.4-1.65-2.6C162.48,75.37,162.5,70.74,162.5,66.12Z"/></svg>