<svg xmlns="http://www.w3.org/2000/svg" viewBox="0 0 208.98 180.35"><defs><style>.a{fill:#fcfdfd;}.b{fill:#7fccee;}.c{fill:#4575ac;}.d{fill:#316aaa;}</style></defs><path class="a" d="M44.84,62l0,.07c-.86,4.75-1.17,9.5.14,14.23l.19.11.17-.13c2.79,1,5.56,1.31,8.29-.2.1-.82-.49-1.54-1-1.46-6.1.88-5.14-3.41-5-7.11,0-1.35,0-2.71,0-4.06,0-1.19-.26-2.21-1.79-2A.69.69,0,0,0,44.84,62ZM154.6,48.11c-.9,0-1.81,0-2.7-.13-1.19-.17-3-1.42-3.35.19-.4,2,1.85,2.17,3.29,2.4,1.06.17,2.37.55,3.15-.79l1.53-1.06c1.29-1.15,1.19-2.33.08-3.53-1.22-1.4-3-1.57-4.58-2.19a1.3,1.3,0,0,1-1-1.54c.18-.77.83-.89,1.47-1.11,1.3-.46,2.59,1.43,4.2,0-1.9-2.17-4-2.13-6.21-1.37a2.82,2.82,0,0,0-1.84,2.86c0,2.77,2.24,2.91,4,3.62C153.87,45.88,155.58,46.05,154.6,48.11ZM39.2,114.42c1.33,1.46,1.81,2.11,2.41,2.64q14.8,13.23,29.64,26.44c13.28,11.84,26.59,23.66,39.8,35.58,1.92,1.73,3.19,1.66,5,0,6.81-6.23,13.76-12.3,20.65-18.45Q155.32,144,173.86,127.4c4.5-4.05,8.87-8.25,13.95-13-10.35,0-19.76-.09-29.17.06-2.74,0-3.81-.76-3.7-3.67.18-4.76,0-9.54,0-14.3,0-10.62,0-10.66-10.47-10.55-22.56.22-45.12-.32-67.68.21-3.84.1-4.92.71-4.79,4.49.21,6.12.06,12.26,0,18.39,0,5.35,0,5.35-5.33,5.36ZM113,22.14c12.59,0,25.19-.06,37.78.05,3,0,4.38-.82,4.24-4.15-.21-4.75-.16-9.52,0-14.28C155.11.88,154,0,151.25,0q-38,.09-76,0c-2.42,0-3.3.82-3.24,3.3.13,4.89.21,9.8,0,14.69-.15,3.18.8,4.26,4,4.22C88.36,22,100.69,22.14,113,22.14ZM76.92,69.22c-1.5-2.24-1.45-4.49-2-6.53a2.1,2.1,0,0,0-2.75-1.62c-1.53.31-1.15,1.57-.88,2.62,1,3.67,2,7.34,3,11,.38,1.39.94,2.56,2.69,2.41s2-1.35,2.35-2.78c.36-1.72.42-3.62,2.18-5.26.54,2.11,1,3.81,1.4,5.52.34,1.45.9,2.56,2.6,2.53,1.49,0,2-1,2.38-2.28,1-3.68,2-7.34,3-11,.27-1,.76-2.32-.74-2.7s-2.58,0-2.94,1.8c-.43,2.18-1.07,4.31-1.77,7-1.74-2.35-1.67-4.63-2.36-6.63-.36-1-.61-2.16-2-2.23s-1.57,1.1-2,2.13C78.42,65.05,78.59,67.22,76.92,69.22Zm95.87-.72-.95.28c-1.54-2.12-3.09-4.23-4.62-6.36a2.92,2.92,0,0,0-3.49-1.27c-1.25.44-.94,1.81-1,2.84-.05,3.4-.07,6.81,0,10.21,0,1.28-.28,3,1.82,2.85,1.81-.15,1.73-1.68,1.83-3.07s-.44-3,.94-4.85c1.65,2.27,3.17,4.38,4.71,6.49.76,1,1.7,1.78,3,1.4s1.27-1.58,1.27-2.66c0-3.68,0-7.35,0-11,0-1.13,0-2.25-1.58-2.28s-2,1-2,2.39C172.8,65.13,172.79,66.81,172.79,68.5Zm-161-27.34,1,.19v6.7c0,1,0,2.09,1.34,2,1-.08,1-1.1,1-1.9q0-5.51,0-11c0-1.07.18-2.3-1.27-2.6s-2.17.58-2.68,1.83C10.07,39,9.47,42,7.32,44.94c-1.33-3.28-2.47-6-3.5-8.7-.43-1.15-1-1.89-2.3-1.77C.07,34.6,0,35.69,0,36.84c0,3.81,0,7.61.05,11.42,0,.81.07,1.79,1.11,1.82s1.07-1,1.12-1.79c.14-2.33-.42-4.73.74-8l3.27,8.26c.25.63.48,1.36,1.26,1.36s1-.81,1.2-1.42C9.76,46,10.75,43.59,11.75,41.16Zm96.53,31.63c-2.49,1.59-4.73,1.29-6.29-1.3a4.4,4.4,0,0,1,1.21-6.15c1.69-1.34,3.42-1.11,5.18,0,1.12.71,2.41.88,3.05-.56s-.64-1.92-1.51-2.5a8.23,8.23,0,0,0-10.76,1.95,8.33,8.33,0,0,0,1,10.76c2.8,2.5,8.63,2.57,11.09.1a4.81,4.81,0,0,0,.71-6c-1.41-2.08-4.21-1.25-6.24-.58-1.34.44-1.09,2,.27,2.79C106.75,71.68,107.94,71.24,108.28,72.79ZM70.49,69.12a7.87,7.87,0,1,0-15.74-.35c-.11,4.82,3.24,8.34,7.9,8.3A7.59,7.59,0,0,0,70.49,69.12ZM179,69.07c0,8.83.27,9.1,7.58,7.73,4.47-.83,6.88-4.42,6.21-9.23s-4.32-7.06-11-6.56c-5.18.38-1.79,4.57-2.74,6.84A3.31,3.31,0,0,0,179,69.07Zm-64.3-.18V75a1.79,1.79,0,0,0,1.52,2c.92.17,1.7-.19,1.82-1.1,1.13-9.32,2.86-2.1,4.4-.18.08.1.13.23.21.34a2.27,2.27,0,0,0,2.82.88c1.5-.7.61-1.88.06-2.7-1.22-1.81-1-3.1.34-5,2.5-3.45.63-7.44-3.48-8.16-7-1.24-7.7-.67-7.7,6.54C114.69,68.08,114.69,68.49,114.7,68.89Zm21.4,8c4.9.06,8.08-3.08,8.08-8a7.7,7.7,0,0,0-7.89-7.86c-4.53,0-7.68,3.18-7.8,7.9S131.32,76.83,136.1,76.89Zm-119.62-8c0,9,0,9,8.41,8.08,3.56-.37,5.06-2.71,3.95-6.26-.31-1-.89-1.72-.57-3,1.16-4.6-.15-6.48-4.6-6.46-8.63,0-7-1-7.19,7.23C16.47,68.57,16.48,68.7,16.48,68.84Zm144-1.47c0-1.22,0-2.45,0-3.67s.21-2.63-1.61-2.66-2,1.38-2,2.81c0,2,0,4.08-.08,6.11s-.88,3.71-3.3,3.73-3.23-1.6-3.36-3.69c-.15-2.3-.08-4.62-.13-6.93,0-1.25-.5-2.1-1.91-2-1.2.1-1.53.9-1.53,2,0,2.85-.07,5.71.1,8.56s2,4.55,4.77,5.19C157.57,78.23,160.34,75.36,160.45,67.37ZM62.58,40.47c-1.95-2.64-4.4-2.46-6.86-1.1s-3.28,5.22-1.74,8,4.07,3.8,6.78,2.51c2-1,3.3-1.35,5.52-.06,3.7,2.16,7.16-.33,7.13-4.57,0-1,0-1.91,0-2.86-.08-2-1.07-3.42-3-3.7s-4.12-.39-5.29,2c1.39,1.08,2.2-.28,3.21-.23s2.33,0,2.42,1.46S69.49,43,68.64,43c-1.53-.05-3.64.15-3.76,1.57-.31,3.72-3,2.94-5.08,3.51A3,3,0,0,1,56,46.61,4.05,4.05,0,0,1,56.11,42a3,3,0,0,1,3.81-1.31C60.75,41,61.56,41.77,62.58,40.47ZM42.51,35.08C40.87,37,41,40.33,37.76,39.25c-2.66-.89-5.63-1.77-6.84,1.56-1.34,3.72,2.17,3.88,4.41,4.77.74.3,1.61.63,1.41,1.65s-1.06,1-1.87,1.21c-1.36.3-2.61-1.21-4.35-.21,2.28,2.68,4.78,2.78,7.13,1.11,2-1.42,2.06-3.37-.12-5-1.41-1.07-4.72-.45-4.31-2.65.58-3.1,3.36.09,5-.76,2.85-1.49,3.15.3,3.17,2.52a35.29,35.29,0,0,0,.12,4.49,2.44,2.44,0,0,0,3.15,2.26c1-.2,2-1.17.58-1.81C41.87,46.9,43,43.06,43.68,42.2,46.22,39.14,43.51,37.7,42.51,35.08ZM37,61.18c-5.58,0-5.59,0-5.6,5.48v7.73c0,1.29.11,2.51,1.8,2.52q3.56,0,7.13,0A1.47,1.47,0,0,0,42,75.5c.07-1.19-.6-1.72-1.7-1.73a18.88,18.88,0,0,1-2.38,0c-1.17-.16-3,.63-3-1.52s1.7-1.5,2.91-1.72c1.41-.24,3.81.91,3.91-1.39.12-2.79-2.49-1.46-4-1.79-.26,0-.53,0-.79,0-.9-.09-2,0-2.09-1.29-.1-1.48,1-1.58,2.08-1.83,1.72-.37,4.91,1.24,4.81-1.59C41.63,60,38.43,61.76,37,61.18ZM208.9,42.51h0V36.39c0-.71-.08-1.53-.83-1.64-1.13-.16-1.24.86-1.19,1.64.15,2.29-.72,2.83-2.82,2.22a3.71,3.71,0,0,0-4,1.24,7.2,7.2,0,0,0-.78,8c1.91,4.16,5.74,2,8.5,2,2.14,0,.72-3.19,1.11-4.9A11.77,11.77,0,0,0,208.9,42.51ZM85,34.56c-1.42,3.58-.84,7-1.08,10.45-.22,3.08-.18,5.46,4.24,5.16,3.52-.24,5.89-1.46,6.38-5.28.41-3.18-1.88-6.45-5.07-6.22S85.33,37.57,85,34.56Zm16.76,3.94c-3.32,0-5.62,2.47-5.55,6,.06,3.35,2.26,5.73,5.37,5.79,3.43.08,5.62-2.16,5.68-5.82S105.24,38.51,101.76,38.5Zm69,11.82c3.06.23,5.51-2,5.78-5.31.31-3.68-1.6-6.21-4.91-6.49s-5.82,1.89-6.07,5.4A5.74,5.74,0,0,0,170.76,50.32Zm-38.65-2.67c1.84,3,4,2.91,6.18,2.31a3.08,3.08,0,0,0,2.61-3.14c0-1.82-1.38-2.43-2.74-3.09-1.18-.56-3.63-.21-3.1-2.22.59-2.19,2.58-.88,4.05-.53.31.07.68-.13,1.51-.31-1.66-2.29-3.61-2.43-5.71-1.94A3.09,3.09,0,0,0,132.45,42c0,1.76,1.27,2.5,2.71,3.1,1.21.5,3.63.24,3,2.23s-2.64.9-4.12.47A15.24,15.24,0,0,0,132.11,47.65Zm-21.88,3c2.28-1.91,1.36-3.94,1.48-5.68.15-2.13.17-4.37,2.92-4.4s2.33,2.37,2.42,4.2c.07,1.35,0,2.71.09,4.07,0,.7.45,1.4,1.23,1.24a1.51,1.51,0,0,0,.83-1.17c0-2.58,0-5.17-.2-7.73a2.68,2.68,0,0,0-3-2.58c-2.07.14-5.77.3-5.9,1A26.5,26.5,0,0,0,110.23,50.61ZM28.31,44.94c.11-4.09-1.83-6.44-5.28-6.44-3.21,0-5.39,2.25-5.47,5.63-.09,3.54,2.16,6.12,5.4,6.17S28.22,48.46,28.31,44.94ZM164.75,39.4c-2.23-.8-2.76-2.19-3.38-3.57-.22-.51-1.32-.06-1.27.24.33,1.76-2.77,2.47-1.5,4,1.55,1.87.86,3.81,1.1,5.74a18.22,18.22,0,0,0,.36,2.78,2.19,2.19,0,0,0,2.42,1.65c.48,0,1.19-.22,1.38-.58.77-1.41-.77-1.31-1.31-1.89a3.64,3.64,0,0,1-.58-2.69C162,43,161.45,40.69,164.75,39.4Zm22.66,5.76c2.32,0,4,.07,5.64,0,.93-.06,2.33.59,2.59-1,.21-1.25.48-2.49-.72-3.72a6.11,6.11,0,0,0-4.14-1.74,4.24,4.24,0,0,0-4.46,3.16c-1.07,3.06-.48,5.69,2,7.57,1.25.93,3,2.41,4.52-.23C190.28,49.48,189,47.92,187.41,45.16ZM82,38.75c-2,1.43-4.3-.9-5.17.5s-.32,3.63-.38,5.51a24.13,24.13,0,0,0,0,2.82c.08,1-.48,2.52,1.12,2.45,1.19-.05.93-1.46.89-2.33C78.32,44.34,78.14,41,82,38.75Zm102.64.75c-5.64-.64-5.64-.64-5.66,4.39,0,1.22,0,2.44,0,3.66.06.87-.39,2.29.79,2.4,1.57.14,1.22-1.43,1.25-2.41C181.16,44.42,180.19,40.86,184.64,39.5ZM128.23,50.08h1.37c0-3.44,0-6.88,0-10.32,0-.57-.31-1.09-1-.93a1.11,1.11,0,0,0-.69.76C127.88,43.09,127.36,46.64,128.23,50.08Z"/><path class="b" d="M39.2,114.42H66.76c5.33,0,5.33,0,5.33-5.36,0-6.13.16-12.27,0-18.39-.13-3.78.95-4.39,4.79-4.49,22.56-.53,45.12,0,67.68-.21C155,85.86,155,85.9,155,96.52c0,4.76.14,9.54,0,14.3-.11,2.91,1,3.71,3.7,3.67,9.41-.15,18.82-.06,29.17-.06-5.08,4.72-9.45,8.92-13.95,13Q155.35,144,136.75,160.59c-6.89,6.15-13.84,12.22-20.65,18.45-1.86,1.7-3.13,1.77-5,0-13.21-11.92-26.52-23.74-39.8-35.58q-14.82-13.23-29.64-26.44C41,116.53,40.53,115.88,39.2,114.42Z"/><path class="b" d="M113,22.14c-12.33,0-24.66-.11-37,.07-3.2,0-4.15-1-4-4.22.23-4.89.15-9.8,0-14.69C72,.82,72.87,0,75.29,0q38,.11,76,0c2.7,0,3.86.87,3.77,3.75-.14,4.76-.19,9.53,0,14.28.14,3.33-1.23,4.18-4.24,4.15C138.21,22.08,125.61,22.14,113,22.14Z"/><path class="c" d="M76.92,69.22c1.67-2,1.5-4.17,2.19-6,.38-1,.51-2.2,2-2.13s1.6,1.18,2,2.23c.69,2,.62,4.28,2.36,6.63.7-2.7,1.34-4.83,1.77-7,.36-1.82,1.55-2.16,2.94-1.8s1,1.68.74,2.7c-1,3.68-2,7.34-3,11-.35,1.28-.89,2.26-2.38,2.28-1.7,0-2.26-1.08-2.6-2.53-.39-1.71-.86-3.41-1.4-5.52-1.76,1.64-1.82,3.54-2.18,5.26C79,75.75,78.61,77,76.9,77.1s-2.31-1-2.69-2.41c-1-3.66-2-7.33-3-11-.27-1-.65-2.31.88-2.62a2.1,2.1,0,0,1,2.75,1.62C75.47,64.73,75.42,67,76.92,69.22Z"/><path class="c" d="M172.79,68.5c0-1.69,0-3.37,0-5,0-1.4.37-2.42,2-2.39s1.57,1.15,1.58,2.28c0,3.67,0,7.34,0,11,0,1.08.08,2.28-1.27,2.66s-2.29-.36-3-1.4c-1.54-2.11-3.06-4.22-4.71-6.49C166,71,166.5,72.55,166.4,74s0,2.92-1.83,3.07c-2.1.18-1.8-1.57-1.82-2.85-.05-3.4,0-6.81,0-10.21,0-1-.29-2.4,1-2.84a2.92,2.92,0,0,1,3.49,1.27c1.53,2.13,3.08,4.24,4.62,6.36Z"/><path class="c" d="M11.75,41.16c-1,2.43-2,4.87-3,7.3-.25.61-.38,1.42-1.2,1.42s-1-.73-1.26-1.36L3,40.26c-1.16,3.3-.6,5.7-.74,8,0,.81,0,1.81-1.12,1.79s-1.11-1-1.11-1.82c0-3.81,0-7.61,0-11.42,0-1.15.07-2.24,1.52-2.37,1.26-.12,1.87.62,2.3,1.77,1,2.73,2.17,5.42,3.5,8.7,2.15-3,2.75-5.91,3.86-8.58.51-1.25,1.22-2.13,2.68-1.83s1.26,1.53,1.27,2.6q0,5.5,0,11c0,.8,0,1.82-1,1.9-1.31.1-1.34-1-1.34-2v-6.7Z"/><path class="c" d="M108.28,72.79c-.34-1.55-1.53-1.11-2.27-1.52-1.36-.76-1.61-2.35-.27-2.79,2-.67,4.83-1.5,6.24.58a4.81,4.81,0,0,1-.71,6c-2.46,2.47-8.29,2.4-11.09-.1a8.33,8.33,0,0,1-1-10.76,8.23,8.23,0,0,1,10.76-1.95c.87.58,2.07,1.2,1.51,2.5s-1.93,1.27-3.05.56c-1.76-1.1-3.49-1.33-5.18,0A4.4,4.4,0,0,0,102,71.49C103.55,74.08,105.79,74.38,108.28,72.79Z"/><path class="c" d="M70.49,69.12a7.59,7.59,0,0,1-7.84,7.95c-4.66,0-8-3.48-7.9-8.3a7.87,7.87,0,1,1,15.74.35Zm-7.84,4.6c2.71-.27,4.17-1.82,4.15-4.73s-1.44-4.6-4.34-4.54c-2.73,0-4,1.81-4,4.46C58.38,71.71,59.57,73.56,62.65,73.72Z"/><path class="c" d="M179,69.07a3.31,3.31,0,0,1,0-1.22c.95-2.27-2.44-6.46,2.74-6.84,6.71-.5,10.36,1.74,11,6.56s-1.74,8.4-6.21,9.23C179.27,78.17,179,77.9,179,69.07Zm3.26.17c1.18,1.09-1.65,4.47,2.39,4.48,3.14,0,4.6-1.79,4.62-4.85s-1.65-4.45-4.5-4.48C181.32,64.36,182.75,67.11,182.26,69.24Z"/><path class="c" d="M114.7,68.89c0-.4,0-.81,0-1.22,0-7.21.67-7.78,7.7-6.54,4.11.72,6,4.71,3.48,8.16-1.34,1.86-1.56,3.15-.34,5,.55.82,1.44,2-.06,2.7a2.27,2.27,0,0,1-2.82-.88c-.08-.11-.13-.24-.21-.34-1.54-1.92-3.27-9.14-4.4.18-.12.91-.9,1.27-1.82,1.1a1.79,1.79,0,0,1-1.52-2Zm8.6-2.43c0-1.8-1-2.45-2.5-2.54s-3,0-3,2.2c-.06,1.7.71,2.5,2.36,2.5S123.06,68.4,123.3,66.46Z"/><path class="c" d="M136.1,76.89c-4.78-.06-7.73-3.14-7.61-7.94s3.27-7.92,7.8-7.9a7.7,7.7,0,0,1,7.89,7.86C144.18,73.81,141,77,136.1,76.89Zm4.49-7.79c-.17-3.14-1.65-4.7-4.55-4.64s-4,1.91-4,4.51c0,2.8,1.38,4.74,4.32,4.71S140.49,71.75,140.59,69.1Z"/><path class="c" d="M16.48,68.84c0-.14,0-.27,0-.41.16-8.21-1.44-7.2,7.19-7.23,4.45,0,5.76,1.86,4.6,6.46-.32,1.28.26,2,.57,3,1.11,3.55-.39,5.89-3.95,6.26C16.47,77.79,16.47,77.79,16.48,68.84Zm6.34-4.67c-1.82-.11-3,.11-2.87,1.81s1.59,1.46,2.67,1.43,2.65.18,2.62-1.58C25.21,63.85,23.53,64.26,22.82,64.17Zm-.23,9.58c1.17-.21,3,.5,3-1.63,0-1.71-1.49-1.64-2.67-1.66S20,70.14,20,72.21,21.52,73.54,22.59,73.75Z"/><path class="c" d="M160.45,67.37c-.11,8-2.88,10.86-9.06,9.43-2.76-.64-4.59-2.21-4.77-5.19s-.08-5.71-.1-8.56c0-1.07.33-1.87,1.53-2,1.41-.11,1.89.74,1.91,2,0,2.31,0,4.63.13,6.93.13,2.09.95,3.7,3.36,3.69s3.2-1.61,3.3-3.73.06-4.07.08-6.11c0-1.43.09-2.85,2-2.81s1.57,1.48,1.61,2.66S160.45,66.15,160.45,67.37Z"/><path class="c" d="M62.58,40.47c-1,1.3-1.83.51-2.66.22A3,3,0,0,0,56.11,42,4.05,4.05,0,0,0,56,46.61a3,3,0,0,0,3.76,1.46c2.05-.57,4.77.21,5.08-3.51.12-1.42,2.23-1.62,3.76-1.57.85,0,2.1.39,2-1.11s-1.36-1.39-2.42-1.46-1.82,1.31-3.21.23c1.17-2.39,3.27-2.29,5.29-2s3,1.67,3,3.7c0,.95,0,1.91,0,2.86,0,4.24-3.43,6.73-7.13,4.57-2.22-1.29-3.49-.9-5.52.06-2.71,1.29-5.23.24-6.78-2.51s-.77-6.56,1.74-8S60.63,37.83,62.58,40.47ZM69,44.4c-1.33,0-2.47.48-2.69,1.9s.86,2.13,2.18,2.21,2.75,0,2.84-1.92C71.37,45,70.06,44.75,69,44.4Z"/><path class="c" d="M42.51,35.08c1,2.62,3.71,4.06,1.17,7.12-.72.86-1.81,4.7,1.56,6.18,1.45.64.46,1.61-.58,1.81a2.44,2.44,0,0,1-3.15-2.26,35.29,35.29,0,0,1-.12-4.49c0-2.22-.32-4-3.17-2.52-1.64.85-4.42-2.34-5,.76-.41,2.2,2.9,1.58,4.31,2.65,2.18,1.64,2.11,3.59.12,5C35.3,51,32.8,50.91,30.52,48.23c1.74-1,3,.51,4.35.21.81-.17,1.68-.27,1.87-1.21s-.67-1.35-1.41-1.65c-2.24-.89-5.75-1-4.41-4.77,1.21-3.33,4.18-2.45,6.84-1.56C41,40.33,40.87,37,42.51,35.08Z"/><path class="c" d="M37,61.18c1.42.58,4.62-1.21,4.71,1.4.1,2.83-3.09,1.22-4.81,1.59-1.12.25-2.18.35-2.08,1.83.09,1.33,1.19,1.2,2.09,1.29.26,0,.53,0,.79,0,1.48.33,4.09-1,4,1.79-.1,2.3-2.5,1.15-3.91,1.39-1.21.22-3-.4-2.91,1.72s1.86,1.36,3,1.52a18.88,18.88,0,0,0,2.38,0c1.1,0,1.77.54,1.7,1.73a1.47,1.47,0,0,1-1.63,1.4q-3.57,0-7.13,0c-1.69,0-1.8-1.23-1.8-2.52V66.66C31.42,61.18,31.43,61.18,37,61.18Z"/><path class="c" d="M208.9,42.51a11.77,11.77,0,0,1,0,2.45c-.39,1.71,1,4.86-1.11,4.9-2.76,0-6.59,2.19-8.5-2a7.2,7.2,0,0,1,.78-8,3.71,3.71,0,0,1,4-1.24c2.1.61,3,.07,2.82-2.22-.05-.78.06-1.8,1.19-1.64.75.11.83.93.83,1.64v6.12Zm-2.09,2c.29-2.35-.5-4.1-3-4.13-2.24,0-3.23,1.64-3.29,3.75-.07,2.27.77,4.06,3.3,4.1C206.11,48.27,207.06,46.85,206.81,44.52Z"/><path class="c" d="M85,34.56c.33,3,1.33,4.33,4.47,4.11s5.48,3,5.07,6.22c-.49,3.82-2.86,5-6.38,5.28-4.42.3-4.46-2.08-4.24-5.16C84.16,41.61,83.58,38.14,85,34.56Zm1,10c-.15,2.24.82,3.64,3.12,3.68,2.5,0,3.55-1.67,3.54-3.93s-1-4-3.53-4S85.87,42.26,86,44.59Z"/><path class="c" d="M101.76,38.5c3.48,0,5.56,2.26,5.5,6s-2.25,5.9-5.68,5.82c-3.11-.06-5.31-2.44-5.37-5.79C96.14,41,98.44,38.49,101.76,38.5Zm-.29,9.78c2.59-.08,3.75-1.71,3.78-3.94a3.58,3.58,0,0,0-3.28-4c-2.28-.18-3.43,1.42-3.58,3.52S99.07,47.92,101.47,48.28Z"/><path class="c" d="M170.76,50.32a5.74,5.74,0,0,1-5.2-6.4c.25-3.51,2.7-5.69,6.07-5.4s5.22,2.81,4.91,6.49C176.27,48.3,173.82,50.55,170.76,50.32Zm.3-2c2.36-.32,3.47-1.81,3.41-4.17-.06-2.17-1.13-3.76-3.35-3.76-2.5,0-3.4,1.86-3.43,4.12A3.45,3.45,0,0,0,171.06,48.33Z"/><path class="c" d="M132.11,47.65a15.24,15.24,0,0,1,2,.15c1.48.43,3.5,1.6,4.12-.47s-1.82-1.73-3-2.23c-1.44-.6-2.71-1.34-2.71-3.1a3.09,3.09,0,0,1,2.46-3.27c2.1-.49,4.05-.35,5.71,1.94-.83.18-1.2.38-1.51.31-1.47-.35-3.46-1.66-4.05.53-.53,2,1.92,1.66,3.1,2.22,1.36.66,2.72,1.27,2.74,3.09A3.08,3.08,0,0,1,138.29,50C136.08,50.56,134,50.63,132.11,47.65Z"/><path class="c" d="M110.23,50.61a26.5,26.5,0,0,1-.17-11c.13-.7,3.83-.86,5.9-1a2.68,2.68,0,0,1,3,2.58c.2,2.56.21,5.15.2,7.73a1.51,1.51,0,0,1-.83,1.17c-.78.16-1.18-.54-1.23-1.24-.08-1.36,0-2.72-.09-4.07-.09-1.83.39-4.22-2.42-4.2s-2.77,2.27-2.92,4.4C111.59,46.67,112.51,48.7,110.23,50.61Z"/><path class="c" d="M28.31,44.94c-.09,3.52-2,5.42-5.35,5.36s-5.49-2.63-5.4-6.17c.08-3.38,2.26-5.62,5.47-5.63C26.48,38.5,28.42,40.85,28.31,44.94Zm-1.79-.57c-.32-2-.89-4-3.43-4-2.21,0-3.34,1.54-3.45,3.63s.7,4.05,3.17,4.28S26.11,46.61,26.52,44.37Z"/><path class="c" d="M164.75,39.4C161.45,40.69,162,43,162,45.08a3.64,3.64,0,0,0,.58,2.69c.54.58,2.08.48,1.31,1.89-.19.36-.9.54-1.38.58a2.19,2.19,0,0,1-2.42-1.65,18.22,18.22,0,0,1-.36-2.78c-.24-1.93.45-3.87-1.1-5.74-1.27-1.53,1.83-2.24,1.5-4,0-.3,1.05-.75,1.27-.24C162,37.21,162.52,38.6,164.75,39.4Z"/><path class="c" d="M187.41,45.16c1.54,2.76,2.87,4.32,5.43,4-1.51,2.64-3.27,1.16-4.52.23-2.48-1.88-3.07-4.51-2-7.57a4.24,4.24,0,0,1,4.46-3.16,6.11,6.11,0,0,1,4.14,1.74c1.2,1.23.93,2.47.72,3.72-.26,1.59-1.66.94-2.59,1C191.39,45.23,189.73,45.16,187.41,45.16Zm4-1c.58-.62,2.44.87,2.5-1.17,0-1.69-1.22-2.64-2.83-2.78S188,41,188,42.6C188,44.4,189.83,44.06,191.38,44.16Z"/><path class="c" d="M156.52,48.72,155,49.77l-.39-1.66c1-2.06-.73-2.23-1.87-2.68-1.81-.71-4-.85-4-3.62A2.82,2.82,0,0,1,150.52,39c2.18-.76,4.31-.8,6.21,1.37-1.61,1.46-2.9-.43-4.2,0-.64.22-1.29.34-1.47,1.11A1.3,1.3,0,0,0,152,43c1.58.62,3.36.79,4.58,2.19C156.57,46.37,156.55,47.54,156.52,48.72Z"/><path class="d" d="M45.85,61.46c1.53-.24,1.77.78,1.79,2,0,1.35,0,2.71,0,4.06-.11,3.7-1.07,8,5,7.11.54-.08,1.13.64,1,1.46l-8.29.2-.17.13L45,76.28q-.06-7.11-.14-14.23l0-.07Z"/><path class="c" d="M82,38.75c-3.86,2.25-3.68,5.59-3.55,9,0,.87.3,2.28-.89,2.33-1.6.07-1-1.49-1.12-2.45a24.13,24.13,0,0,1,0-2.82c.06-1.88-.47-4.14.38-5.51S80,40.18,82,38.75Z"/><path class="c" d="M184.64,39.5c-4.45,1.36-3.48,4.92-3.6,8,0,1,.32,2.55-1.25,2.41-1.18-.11-.73-1.53-.79-2.4-.07-1.22,0-2.44,0-3.66C179,38.86,179,38.86,184.64,39.5Z"/><path class="c" d="M128.23,50.08c-.87-3.44-.35-7-.29-10.5a1.11,1.11,0,0,1,.69-.76c.65-.16,1,.36,1,.93,0,3.44,0,6.88,0,10.32Z"/><path class="b" d="M154.6,48.11l.39,1.66c-.78,1.35-2.09,1-3.15.8-1.44-.23-3.69-.44-3.29-2.4.33-1.61,2.16-.36,3.35-.19C152.79,48.1,153.7,48.07,154.6,48.11Z"/><path class="c" d="M44.88,62.05Q45,69.16,45,76.28C43.71,71.55,44,66.8,44.88,62.05Z"/><path class="c" d="M45.38,76.26l8.29-.2C50.94,77.57,48.17,77.24,45.38,76.26Z"/><path class="b" d="M156.52,48.72c0-1.18,0-2.35.08-3.53C157.71,46.39,157.81,47.57,156.52,48.72Z"/><path class="c" d="M45.85,61.46l-1,.52A.68.68,0,0,1,45.85,61.46Z"/><path class="a" d="M62.65,73.72c-3.08-.16-4.27-2-4.23-4.81,0-2.65,1.31-4.41,4-4.46,2.9-.06,4.32,1.62,4.34,4.54S65.36,73.45,62.65,73.72Z"/><path class="a" d="M182.26,69.24c.49-2.13-.94-4.88,2.51-4.85,2.85,0,4.53,1.46,4.5,4.48s-1.48,4.86-4.62,4.85C180.61,73.71,183.44,70.33,182.26,69.24Z"/><path class="b" d="M123.3,66.46c-.24,1.94-1.62,2.16-3.19,2.16s-2.42-.8-2.36-2.5c.06-2.16,1.49-2.3,3-2.2S123.33,64.66,123.3,66.46Z"/><path class="a" d="M140.59,69.1c-.1,2.65-1.34,4.55-4.26,4.58S132,71.77,132,69c0-2.6,1.2-4.45,4-4.51S140.42,66,140.59,69.1Z"/><path class="a" d="M22.82,64.17c.71.09,2.39-.32,2.42,1.66,0,1.76-1.51,1.55-2.62,1.58S20.07,67.82,20,66,21,64.06,22.82,64.17Z"/><path class="a" d="M22.59,73.75c-1.07-.21-2.68.49-2.62-1.54s1.65-1.77,2.94-1.75,2.69,0,2.67,1.66C25.57,74.25,23.76,73.54,22.59,73.75Z"/><path class="a" d="M69,44.4c1.1.35,2.41.55,2.33,2.19-.09,1.9-1.45,2-2.84,1.92S66,47.86,66.27,46.3,67.63,44.44,69,44.4Z"/><path class="a" d="M206.81,44.52c.25,2.33-.7,3.75-3,3.72-2.53,0-3.37-1.83-3.3-4.1.06-2.11,1.05-3.77,3.29-3.75C206.31,40.42,207.1,42.17,206.81,44.52Z"/><path class="a" d="M86,44.59c-.09-2.33.52-4.19,3.13-4.22s3.51,1.74,3.53,4-1,4-3.54,3.93C86.78,48.23,85.81,46.83,86,44.59Z"/><path class="a" d="M101.47,48.28c-2.4-.36-3.24-2.13-3.08-4.37s1.3-3.7,3.58-3.52a3.58,3.58,0,0,1,3.28,4C105.22,46.57,104.06,48.2,101.47,48.28Z"/><path class="a" d="M171.06,48.33a3.45,3.45,0,0,1-3.37-3.81c0-2.26.93-4.13,3.43-4.12,2.22,0,3.29,1.59,3.35,3.76C174.53,46.52,173.42,48,171.06,48.33Z"/><path class="a" d="M26.52,44.37c-.41,2.24-1.12,4.14-3.71,3.89S19.52,46.2,19.64,44s1.24-3.64,3.45-3.63C25.63,40.37,26.2,42.37,26.52,44.37Z"/><path class="a" d="M191.38,44.16c-1.55-.1-3.35.24-3.38-1.56,0-1.6,1.39-2.53,3.05-2.39s2.87,1.09,2.83,2.78C193.82,45,192,43.54,191.38,44.16Z"/></svg>