<svg xmlns="http://www.w3.org/2000/svg" viewBox="0 0 270 50.65"><defs><style>.a{fill:#fcfdfd;}.b{fill:#1f61ac;}.c{fill:#4575ac;}.d{fill:#7fccee;}</style></defs><path class="a" d="M117,23.88c.09-.1.26-.21.25-.3a2.94,2.94,0,0,0-.19-.64V21.21c.72-.55.64-1.07,0-1.58L117,18c.85-.8,1-1.6,0-2.41,0-.53,0-1.07.05-1.6,2-.87,1.36-2.36.7-3.69-.95-1.88-2.27-.35-3.44-.25l-.06,0c.82-4.36-1.89-5.05-5.13-5.2L109,4.63c-.55-4.17-3.88-2.67-6.2-3.15C98.51.6,94.44,1.47,90.46,3l-.2.13C86.65,3.28,83,3.23,80.11,6a2,2,0,0,1-.44.37A6.79,6.79,0,0,0,77,11.31l-.12.13c-3,2.73-4,6.53-2.72,9.94,1,2.57,2.41,5,3.11,7.79.21.84,1,2.08,2.19.67h1.42c.5,1.25,1.59,1.06,2.6,1.22,3.17.47,6.32,1,9.48,1.54l.1.09a1.71,1.71,0,0,0,1.27,1.75q0,5.24,0,10.47l-.52.9,0,0c-3.06.46-5.8,1.85-8.55,3.17l-1.38.47a3.4,3.4,0,0,0,.92.33H106.4c-.71-1.22-1.66-.76-2.31-1.14-.49-1.29-1.49-1.18-2.52-1l-.17-.11c-.27-1.06-1.11-1.1-1.94-1.15l-.08,0-.85-.65,0,0c0-3.38,0-6.77-.15-10.15-.06-1.83,0-3.53,1.67-4.67l1.71.33c1.54.75,3.05-.59,4.59-.08l.06,0c.82,1.13,1.64,2.11,2.5,0l.09-.09c.62-.05,1.14-.26,1.28-1l.07-.07a1.76,1.76,0,0,0,1.47-1.62l.13-.07.86-.46.15-.14,3.28-3Zm58.94-8.38-.15.22c-1.18,1.29-.74,2.56,0,3.83l0,1.79c1.85,2.41,1.52,5.85,3.68,8.11a1.15,1.15,0,0,1,.3.28c3.23,2.06,6.87,1.38,10.38,1.63l1.52,0c.64,1.38,1.91,1.19,3.07,1.3,1.37,2.38.62,5,1,7.57.49,3.58-.31,6.38-4.46,7.14a38.59,38.59,0,0,0-6,2.19H207.6a84.06,84.06,0,0,1-7.92-3.82l-.15-.81c-.06-3.62-.18-7.25-.16-10.87,0-1.13-.29-2.85,1.2-3,2.29-.28,4.86-.64,6.93.13,3,1.14,4-.32,4.87-2.61l0,0c2.86-1.41,5.65-3.18,6.22-6.56.43-2.58-.1-5.34-.2-8l.69-1c.84-.81.66-1.52-.18-2.17l-.16-.34Q216.89,8.5,215,6.58l-.3-.2c-.57-1.93-2-1.32-3.25-1.13a2.16,2.16,0,0,1-.65-.35c0-.7-.15-1.3-1.06-1.13l-.2-.27c.51-1.76-.79-2.46-1.87-2.17-1.78.48-3.34-.43-4.91-.34-3.72.24-7.61,0-11,2.11l-.72.44c-1.13-.28-1.9.48-2.74,1l-.21-.22c.07-1.36-.9-1.87-1.71-1.27-1.62,1.22-3.81,1.46-5.07,3.22l-.21.18c-.67.33-.71.92-.61,1.57l0,.09c-2.51,1.5-3.35,3.94-3.57,6.72l-.21.12C176.19,14.83,175.91,15,175.93,15.5ZM138.36,48.44a1.83,1.83,0,0,0-2.22.53c-.39.06-.94,0-1.15.22-.82.92.31.62.5.62q10.59,0,21.18,0c-8-1.26-8.28-7.2-8.07-13.44,0-.67,0-1.35,0-2-.08-2.3.18-3.3,3.21-3.37,2.74-.07,5.83,1.78,8.26-.16,5.12-4.1,10.24-8.41,7.78-16.4a3,3,0,0,1,.15-1.2c.81-3.17.75-3.23-3.39-3.42-.74-1.12.95-2.76-.72-3.65-4.06-2.17-7.93-5.29-12.71-5-5.25.34-10.29,2.22-15.64,2.66-3.45.28-6.79,3.18-7.62,7.52-2.38,2.64-3.72,5.9-2.87,9.28.57,2.27,2.67,4.14,3,6.69.26,2.09,1.22,2.46,3.27,2.92,4.48,1,9.55-.17,13.4,3.41l-.06,12,0,0a12,12,0,0,0-6.07,2.66ZM2.07,18.8h0c-3,3.12-2.78,4.73.8,7.08a.79.79,0,0,0,.71.29c3.92,1.43,7.56,4.69,12.11,1.8,1-.61,1.76.18,2.46.79s.32,1.24-.09,1.76c-2.68,3.4-3.29,8.68-8.51,9.79-.57.13-1,.83-1.53,1.27Q4.38,45.31.71,49a3.31,3.31,0,0,0,2.17-.25c2.73,3.38,6.8-1.36,9.61,1.68a1.34,1.34,0,0,0,2-.76c1.16-5.09,2.25.19,3.4.12.23-1.9.45-3.66-1.44-4.75a2.25,2.25,0,0,1,.87-3.16c1-.54,1.6.63,2.4,1a10.13,10.13,0,0,1,5.74,6.85c1.36-1.47,2.49-2.73.26-4.25-.6-.42-.63-1.71-.92-2.6a5,5,0,0,0,.52-.51c2.7,1,3.74,3.39,4.89,5.74-.15.71.57,1.66.65,1.48,1.75-4,2.83.67,4.43.45.05-2.84-1.27-4.3-3.72-4.86-3-2.49-5.66-5.48-9.5-6.7-2.92-.93-2.34-2.86-1.61-5.14,1-3.23,4.07-3.86,6.26-5.59,1.63-.24,3.11.51,4.67.73,4.92.69,7.79-2.77,10.53-6.06,2.14-2.57.22-4.44-1.59-6.19a2.27,2.27,0,0,1-.55-1.48c0-3.83-2.71-5.15-5.59-5.86A6.84,6.84,0,0,1,29.49,5C27.36,1.08,24.38.47,20.77,3c-1.87,1.32-3.24.8-4.26-1C15.07-.7,13.26-.32,11.24,1.13A17,17,0,0,1,8,3.36C3.56,5.1,4.49,10.84.85,13.19c-.52.34.42,1.69,1.26,2.23l0,.08C2.12,16.6,2.1,17.7,2.07,18.8ZM226.7,22l.15.15c2.58,1.85,1,5.82,3.64,7.62,3.4,1.68,7.14,1.58,10.75,2,3.36.41,5.08,1.76,4.8,5.46-.22,2.85-.08,5.72-.1,8.58a55.23,55.23,0,0,1-10.89,3.81h24.21c-8.9-3.33-8.9-3.33-9.07-12.27,0-1,0-1.9-.06-2.85-.09-2.34.21-3.48,3.26-3.44,3.81.05,8.82,2,11.07-2.94,1.22-2.67,5.17-2.37,5.05-6-.11-3.33-.58-6.7.45-10a2.82,2.82,0,0,0-.44-1.86c-2.7.1-2.79-2.76-4.18-3.77-3.69-2.67-7.91-5.83-12.49-5.11-7,1.08-14.22,1.48-20.67,5-3,4.52-6.47,8.85-5.72,14.89-.07.09-.2.24-.17.27A3.47,3.47,0,0,0,226.7,22ZM57.64,21.42v0c-2.12,0-4.24,0-6.37,0a1.78,1.78,0,0,0-1.94,1.64,1.61,1.61,0,0,0,1.57,2c4.36.07,8.74.46,13.09-.21a1.73,1.73,0,0,0,1.61-2c-.11-1.3-1-1.45-2-1.46C61.62,21.41,59.63,21.42,57.64,21.42Zm-.18,7.3v0c-2,0-4,0-6,0-1.09,0-2.24.06-2.2,1.63,0,1.26,1,1.47,2,1.47q6.15,0,12.3,0c1,0,1.95-.14,2-1.42.09-1.58-1.08-1.64-2.16-1.66C61.43,28.69,59.45,28.72,57.46,28.72Z"/><path class="b" d="M210.79,4.9a2.16,2.16,0,0,0,.65.35,3.84,3.84,0,0,0,3.25,1.13l.3.2c-1.12,3.24-.39,4,3.77,3.85l.16.33.18,2.18-.69,1c-2.1,2-1.19,4.56-.89,6.88.22,1.68.24,3.26-1.62,3.42-2.8.23-3,2.27-3.51,4.28l0,0c-2.52,1.09-5.18.88-7.82.86-1.67,0-2.83-.08-1.8-2.54.78-1.85.43-4.49-1.76-5.13-2.52-.74-5.41-1.62-7.84.63-1.18,1.08-.92,2.13.23,3,1.55,1.16,1,2.15-.12,3.16a2.86,2.86,0,0,1-.23.77,7.25,7.25,0,0,1-4.55-.69c-3-.26-5.66,2-8.72,1.1a1.28,1.28,0,0,0-.29-.28c.54-2.63-2.1-5.14.73-8.47-2.19.78-3.34,1-4.42.36l0-1.79c1.5-1.29,0-2.55,0-3.83l.14-.22.73-.53.21-.12c1.48-2.08,3-4.15,3.57-6.72l0-.09c.69-.33.67-.94.61-1.57l.21-.18c2.77,1.22,4.2-2.46,6.78-1.95l.21.22c.3.56.61,1.61.89,1.6,1.56-.06,1.24-1.72,1.85-2.62l.71-.44a16.74,16.74,0,0,0,6.66-.59c3.77-1.14,7.47,0,11.13,1l.2.27C209.84,4.38,210.12,4.84,210.79,4.9Z"/><path class="b" d="M80.83,29.83H79.41c-2.94-2.7-.24-7.88-4.26-10.29a4,4,0,0,1,.69-4.37c1.14-1,.9-2.43,1-3.74l.12-.13c2.34-.8,2.5-2.87,2.72-4.9A2,2,0,0,0,80.11,6c1.46.08,3.07,1,4.18-.9A1.07,1.07,0,0,1,86,4.86c3.1,3.73,3-.8,4.27-1.7l.2-.13a23.07,23.07,0,0,0,6.63-.27c4.06-.54,8.14-.31,11.86,1.87l.13.13c2.36,1.06,3.06,3.84,5.13,5.2l.06,0c.94,1.3,3.65,1.29,2.74,3.94,0,.53,0,1.07-.05,1.6,0,.8,0,1.6,0,2.41l.06,1.68c0,.53,0,1.05,0,1.58v1.73l-.34-.09c-1.47.13-3.13-.21-3.88,1.68h0c-1.2,1.22-2.44,2.39-3.59,3.66-2.07,2.26-4.71,1.29-7,1.08-2.56-.23-.86-2.66-1.08-4-.41-2.43-1-3.84-3.65-3.13-5.54-.27-5.53-.27-3.77,4.71a2.85,2.85,0,0,1,0,.78l-.16.18c-1.85-.19-3,2.72-4.52,1.77C86.11,27.77,83.55,29.1,80.83,29.83Z"/><path class="b" d="M3.58,26.18a.79.79,0,0,1-.71-.29c-1.09-2.26-.84-4.68-.8-7.08h0C4,17.74,4,16.64,2.14,15.5l0-.08c.09-.93-.11-2.48.32-2.7,4-2,3.94-7.47,8.17-9.56,2.28-1.14,3.52-1.84,5.27.3,1.49,1.83,3.26,1.83,5.29.73C25,2.13,26.9,2.78,29.08,6.76c.74,1.34,1.59,2.86,3.05,2.88,7,.07,5.71,7.47,9.18,10.63a3.61,3.61,0,0,1-.88,1.62,28,28,0,0,1-5.76,4.74c-3.07,1.77-4.26.63-5.44-1.9,2.27-1.75,5.25-3.23,2.71-7A2.61,2.61,0,0,0,30.76,20a2.44,2.44,0,0,1-2.2,2.44c-1.71.24-2.17-1.48-2.15-2.32.07-4.07-2-5.4-5.56-6.49-2.51-.78-2.68,0-2.93,1.87l-1,.51,1,1.21,1.56.68c2,.89,4.3,2.67,2.44,4.49a4.76,4.76,0,0,1-6.71-.81c-.84-1.13-1.38-2.75-2.85-1.64s.1,2.32.72,3.4,2.64,2.19,1.38,3.75-3.36,1.13-4.75.3A9.93,9.93,0,0,0,3.58,26.18Z"/><path class="c" d="M232.18,6.36c6.45-3.54,13.7-3.94,20.67-5,4.58-.72,8.8,2.44,12.49,5.11,1.39,1,1.48,3.87,4.18,3.77a2.82,2.82,0,0,1,.44,1.86c-1,3.31-.56,6.68-.45,10,.12,3.65-3.83,3.35-5.05,6-2.25,4.94-7.26,3-11.07,2.94-3,0-3.35,1.1-3.26,3.44,0,.95.05,1.9.06,2.85.17,8.94.17,8.94,9.07,12.27H235.05a54.9,54.9,0,0,0,10.88-3.81c1.41-1.31.87-3.08.76-4.58-.44-6.35.33-12.65.57-19,1.61-.66,3.24-2.21,4.76.14-1.35-.07-3-.74-3.37,1.48,2,.25,1.94,3.57,4.41,3.15,0,1.37.39,2,1.91,2.49,5.72,1.72,7.92-3,11.15-6,.66-.61,1.71-.75,2-1.82,1.47-5.45-1.25-9.73-3.73-14.08-.18-.31-.22-.87-.45-1-4.81-1.74-9.27-4.79-14.83-3.4s-10.67,4.42-16.62,3.37Z"/><path class="c" d="M168,13.24a3,3,0,0,0-.15,1.2c2.46,8-2.66,12.3-7.78,16.4-2.43,1.94-5.52.09-8.26.16-3,.07-3.29,1.07-3.21,3.37,0,.68,0,1.36,0,2-.21,6.24,0,12.18,8.07,13.44q-10.59,0-21.18,0c-.19,0-1.32.3-.5-.62.21-.24.76-.16,1.14-.22a2.05,2.05,0,0,0,2.23-.53l.16-.07c2.2-.47,5,.43,6.07-2.66l0,0c1.39-4,1.07-8,.06-12-3.85-3.58-8.92-2.4-13.4-3.41-2.05-.46-3-.83-3.27-2.92-.31-2.55-2.41-4.42-3-6.69-.85-3.38.49-6.64,2.87-9.28l.27.27a13.36,13.36,0,0,1-.32,2c-.91,2.87-4.08,5.9.7,8.33.2.11-.3,1.48-.3,2.26,0,3.56,2.28,6.11,4.94,5,2.16-.93,3.77-1.15,5.85,0,1.69.93,3-.69,4.18-1.65.85-.67.09-1.43-.11-2.18-.28-1-2.62-.69-1.51-2.59,1-1.61,2.34-.65,3.54-.76a25.78,25.78,0,0,1,1.54,2.63c.4.87.79,2.05,1.76.93.61-.69,3.06-1.92.21-3.1,4-1.26,3,2.26,3.52,4.09.28,1-.84,2.63,1.08,2.8,3.13.28,6.16.53,8.52-2.66,2.5-3.38,5.93-6.12,4.91-11.14-.15-.76.62-1.72,1-2.59Z"/><path class="c" d="M3.58,26.18a9.93,9.93,0,0,1,6.06,1.17c1.39.83,3.53,1.2,4.75-.3S13.7,24.49,13,23.3s-2.29-2.21-.72-3.4,2,.51,2.85,1.64a4.76,4.76,0,0,0,6.71.81c1.86-1.82-.4-3.6-2.44-4.49.51-.69.58-2.91,1.82-1.47,2.08,2.42,4.59,5.8,3.4,8.72-1.54,3.74.48,2.58,2.11,2.65l0,0c-2.19,1.73-5.22,2.36-6.26,5.59-.73,2.28-1.31,4.21,1.61,5.14,3.84,1.22,6.5,4.21,9.5,6.7-.46,1-.91,1.95-1.36,2.93C29,45.75,28,43.32,25.29,42.36c-.19-.15-.48-.47-.56-.42-.51.3-.25.63,0,.93.29.89.32,2.18.92,2.6,2.23,1.52,1.1,2.78-.26,4.25a10.13,10.13,0,0,0-5.74-6.85c-.8-.34-1.44-1.51-2.4-1a2.25,2.25,0,0,0-.87,3.16c-2.91-.89-5.19-3.36-8.4-3.47.51-.44,1-1.14,1.53-1.27,5.22-1.11,5.83-6.39,8.51-9.79.41-.52.78-1.17.09-1.76s-1.49-1.4-2.46-.79C11.14,30.87,7.5,27.61,3.58,26.18Zm15.27-2c-1,.64-3.13-1.53-3.17.71s2.54,2.5,4.24,2.82c1.5.27,2-1.33,1.89-2.53C21.65,22.6,20,24.18,18.85,24.14Z"/><path class="c" d="M193.26,28.55c1.12-1,1.67-2,.12-3.16-1.15-.86-1.41-1.91-.23-3,2.43-2.25,5.32-1.37,7.84-.63,2.19.64,2.54,3.28,1.76,5.13-1,2.46.13,2.53,1.8,2.54,2.64,0,5.3.23,7.82-.86-.89,2.29-1.84,3.75-4.87,2.61-2.07-.77-4.64-.41-6.93-.13-1.49.19-1.2,1.91-1.2,3,0,3.62.1,7.25.16,10.87-.69-.15-1.39-.52-1.34-1.27.31-4.53-1.21-9.21,1-13.6.41-.8.94-2.07-.12-2.45a1.93,1.93,0,0,0-2.35,1.68c-.26,1.45-.11,3-.24,4.46-.43,5,1.36,10.27-1.67,15.12h5.71c-.34-1.11-1.17-2-.86-3.13a84.06,84.06,0,0,0,7.92,3.82H185.21a38.59,38.59,0,0,1,6-2.19c4.15-.76,5-3.56,4.46-7.14-.34-2.52.41-5.19-1-7.57C194.9,31.07,197.85,28.41,193.26,28.55Z"/><path class="c" d="M97.49,22.18c2.68-.71,3.24.7,3.65,3.13.22,1.3-1.48,3.73,1.08,4,2.31.21,5,1.18,7-1.08,1.15-1.27,2.39-2.44,3.59-3.66,0,1.08.07,2.16.11,3.24l-.15.14-.86.46-.13.07c-1,0-1.37.71-1.47,1.62l-.07.07c-.63.05-1.15.26-1.28,1l-.09.09-2.5,0-.06,0c-1.55-1.43-3.08-1.06-4.59.08L100,30.89c-.14-.63-.09-1.63-.45-1.83-1.16-.63-1.25.7-1.36,1.27a33.86,33.86,0,0,0,.29,15.38l0,0a.69.69,0,0,0,.85.65l.08,0c.3,1,1.13,1,1.94,1.15l.17.11a2.22,2.22,0,0,0,2.52,1c.65.38,1.6-.08,2.31,1.14H84.71a3.4,3.4,0,0,1-.92-.33L85.16,49c3-.55,6.58.39,8.56-3.17l0,0a.64.64,0,0,0,.52-.9q0-5.24,0-10.47c.19-1-.15-1.7-1.27-1.75l-.1-.09c1.88-1.32,1.85-3,.7-4.74l.16-.18C98,26.56,99.12,24.91,97.49,22.18Z"/><path class="c" d="M29.23,24.73c1.18,2.53,2.37,3.67,5.44,1.9a28,28,0,0,0,5.76-4.74,3.61,3.61,0,0,0,.88-1.62c-3.47-3.16-2.22-10.56-9.18-10.63-1.46,0-2.31-1.54-3.05-2.88-2.18-4-4.12-4.63-7.92-2.57-2,1.1-3.8,1.1-5.29-.73-1.75-2.14-3-1.44-5.27-.3-4.23,2.09-4.16,7.55-8.17,9.56-.43.22-.23,1.77-.32,2.7C1.27,14.88.33,13.53.85,13.19,4.49,10.84,3.56,5.1,8,3.36a17,17,0,0,0,3.28-2.23c2-1.45,3.83-1.83,5.27.82,1,1.85,2.39,2.37,4.26,1.05,3.61-2.53,6.59-1.92,8.72,2a6.84,6.84,0,0,0,4.67,3.88c2.88.71,5.58,2,5.59,5.86a2.27,2.27,0,0,0,.55,1.48C42.11,18,44,19.84,41.89,22.41c-2.74,3.29-5.61,6.75-10.53,6.06-1.56-.22-3-1-4.67-.73l0,0Z"/><path class="d" d="M8,41.59c3.21.11,5.49,2.58,8.4,3.47,1.89,1.09,1.67,2.85,1.44,4.75-1.15.07-2.24-5.21-3.4-.12a1.34,1.34,0,0,1-2,.76c-2.81-3-6.88,1.7-9.61-1.68A3.31,3.31,0,0,1,.71,49Q4.37,45.32,8,41.59ZM7.5,47.24,7.23,47a3.48,3.48,0,0,0-.26.63s.17.15.26.23Z"/><path class="c" d="M127.9,11.37c.83-4.34,4.17-7.24,7.62-7.52,5.35-.44,10.39-2.32,15.64-2.66,4.78-.31,8.65,2.81,12.71,5,1.67.89,0,2.53.72,3.65l-.21.21a8.91,8.91,0,0,1-1.63-1.09c-2.95-3.09-6.16-5.47-10.64-5.76-4.76-.3-8.9,2.39-13.11,2.89-4.8.57-8,2.15-10.83,5.57Z"/><path class="d" d="M247.26,22.25c-.24,6.32-1,12.62-.57,19,.11,1.5.65,3.27-.76,4.58,0-2.86-.11-5.73.11-8.58.28-3.7-1.44-5-4.8-5.46-3.61-.44-7.35-.34-10.75-2l.26-.33c3.7.79,7.26-1.78,11.23,0,2.1,1,3.67-2.17,2.65-4.77a17.5,17.5,0,0,1-.59-2.84Z"/><path class="d" d="M57.64,21.42c2,0,4,0,6,0,1,0,1.88.16,2,1.46a1.73,1.73,0,0,1-1.61,2c-4.35.67-8.73.28-13.09.21a1.61,1.61,0,0,1-1.57-2,1.78,1.78,0,0,1,1.94-1.64c2.13,0,4.25,0,6.37,0Z"/><path class="d" d="M57.46,28.72c2,0,4,0,6,0,1.08,0,2.25.08,2.16,1.66-.06,1.28-1,1.42-2,1.42q-6.15,0-12.3,0c-1,0-1.92-.21-2-1.47,0-1.57,1.11-1.62,2.2-1.63,2,0,4,0,6,0Z"/><path class="b" d="M199.68,45.78c-.31,1.16.52,2,.86,3.13h-5.71c3-4.85,1.24-10.11,1.67-15.12.13-1.48,0-3,.24-4.46a1.93,1.93,0,0,1,2.35-1.68c1.06.38.53,1.65.12,2.45-2.23,4.39-.71,9.07-1,13.6-.05.75.65,1.12,1.34,1.27Z"/><path class="d" d="M93.61,27.85c1.15,1.79,1.18,3.42-.7,4.74-3.16-.52-6.31-1.07-9.48-1.54-1-.16-2.1,0-2.6-1.22,2.72-.73,5.28-2.06,8.26-.21C90.63,30.57,91.76,27.66,93.61,27.85Z"/><path class="d" d="M76.83,11.44c-.09,1.31.15,2.75-1,3.74a4,4,0,0,0-.69,4.37c4,2.41,1.32,7.59,4.26,10.29-1.2,1.41-2,.17-2.19-.67-.7-2.78-2.1-5.22-3.11-7.79C72.78,18,73.86,14.17,76.83,11.44Z"/><path class="c" d="M226.46,21.25c-.75-6,2.73-10.37,5.72-14.89l.31.32a12.87,12.87,0,0,1-1.74,4.79c-2,3-3.06,6.32-2.3,10l-1.6.61L226.7,22A.86.86,0,0,0,226.46,21.25Z"/><path class="d" d="M109,4.63c-3.72-2.18-7.8-2.41-11.86-1.87A23.07,23.07,0,0,1,90.46,3c4-1.56,8.05-2.43,12.29-1.55C105.07,2,108.4.46,109,4.63Z"/><path class="c" d="M212.39,28.55c.48-2,.71-4.05,3.51-4.28,1.86-.16,1.84-1.74,1.62-3.42-.3-2.32-1.21-4.84.89-6.88.1,2.68.63,5.44.2,8C218,25.37,215.25,27.14,212.39,28.55Z"/><path class="d" d="M209.53,3.5c-3.66-1-7.36-2.13-11.13-1a16.74,16.74,0,0,1-6.66.59C195.14,1,199,1.23,202.75,1c1.57-.09,3.13.82,4.91.34C208.74,1,210,1.74,209.53,3.5Z"/><path class="d" d="M90.26,3.16C89,4.06,89.09,8.59,86,4.86a1.07,1.07,0,0,0-1.7.28c-1.11,1.9-2.72,1-4.18.9C83,3.23,86.65,3.28,90.26,3.16Z"/><path class="d" d="M179.76,29.73c3.06.88,5.74-1.36,8.72-1.1.05,1.23.32,2.32,1.66,2.73C186.63,31.11,183,31.79,179.76,29.73Z"/><path class="d" d="M98.51,45.71a33.86,33.86,0,0,1-.29-15.38c.11-.57.2-1.9,1.36-1.27.36.2.31,1.2.45,1.83-1.66,1.14-1.73,2.84-1.67,4.67C98.47,38.94,98.47,42.33,98.51,45.71Z"/><path class="d" d="M30.18,48.1c.45-1,.9-2,1.36-2.93,2.45.56,3.77,2,3.72,4.86-1.6.22-2.68-4.47-4.43-.45C30.75,49.76,30,48.81,30.18,48.1Z"/><path class="d" d="M175.78,21.34c1.08.65,2.23.42,4.42-.36-2.83,3.33-.19,5.84-.73,8.47C177.3,27.19,177.63,23.75,175.78,21.34Z"/><path class="d" d="M226.85,22.12l1.6-.61c.76-.08,2.16,0,1.81.66-1.47,2.65.49,4.84.49,7.24l-.26.33C227.81,27.94,229.43,24,226.85,22.12Z"/><path class="c" d="M2.07,18.81c0,2.4-.29,4.82.8,7.08C-.71,23.54-.9,21.93,2.07,18.81Z"/><path class="d" d="M114.21,10c-2.07-1.36-2.77-4.14-5.13-5.2C112.32,4.91,115,5.6,114.21,10Z"/><path class="d" d="M93.72,45.83c-2,3.56-5.53,2.62-8.56,3.17C87.92,47.68,90.66,46.29,93.72,45.83Z"/><path class="d" d="M188.08,4.34c-2.58-.51-4,3.17-6.78,2,1.26-1.76,3.45-2,5.07-3.22C187.18,2.47,188.15,3,188.08,4.34Z"/><path class="d" d="M117,13.94c.91-2.65-1.8-2.64-2.74-3.94,1.17-.1,2.49-1.63,3.44.25C118.37,11.58,119,13.07,117,13.94Z"/><path class="d" d="M218.76,10.43c-4.16.13-4.89-.61-3.77-3.85Q216.88,8.5,218.76,10.43Z"/><path class="d" d="M193.26,28.55c4.59-.14,1.64,2.52,1.47,4.15-1.16-.11-2.43.08-3.07-1.3.9-.38,1.74-.81,1.37-2.08A2.86,2.86,0,0,0,193.26,28.55Z"/><path class="c" d="M164.59,9.82c4.14.19,4.2.25,3.39,3.42l-.34-.28c-.35-1.83-3.34-.58-3.26-2.93Z"/><path class="d" d="M144.68,33.67c1,4,1.33,8-.06,12Z"/><path class="d" d="M180.43,8.13c-.59,2.57-2.09,4.64-3.57,6.72C177.08,12.07,177.92,9.63,180.43,8.13Z"/><path class="c" d="M193,29.32c.37,1.27-.47,1.7-1.37,2.08l-1.52,0c-1.34-.41-1.61-1.5-1.66-2.73A7.25,7.25,0,0,0,193,29.32Z"/><path class="d" d="M144.59,45.71c-1.11,3.09-3.87,2.19-6.07,2.66A12,12,0,0,1,144.59,45.71Z"/><path class="d" d="M79.67,6.41c-.22,2-.38,4.1-2.72,4.9A6.79,6.79,0,0,1,79.67,6.41Z"/><path class="d" d="M191,3.54c-.61.9-.29,2.56-1.85,2.62-.28,0-.59-1-.89-1.6C189.13,4,189.9,3.26,191,3.54Z"/><path class="d" d="M112.94,27.77c0-1.08-.07-2.16-.11-3.24h0l3.16,0,.24.25Z"/><path class="d" d="M101.74,31.22c1.51-1.14,3-1.51,4.59-.08C104.79,30.63,103.28,32,101.74,31.22Z"/><path class="d" d="M175.78,15.72c.05,1.28,1.53,2.54,0,3.83C175,18.28,174.6,17,175.78,15.72Z"/><path class="d" d="M214.69,6.38a3.84,3.84,0,0,1-3.25-1.13C212.71,5.06,214.12,4.45,214.69,6.38Z"/><path class="c" d="M2.14,15.5C4,16.64,4,17.74,2.07,18.8,2.1,17.7,2.12,16.6,2.14,15.5Z"/><path class="d" d="M106.39,31.18l2.5,0C108,33.29,107.21,32.31,106.39,31.18Z"/><path class="d" d="M104.09,48.67a2.22,2.22,0,0,1-2.52-1C102.6,47.49,103.6,47.38,104.09,48.67Z"/><path class="d" d="M93,32.68c1.12,0,1.46.7,1.27,1.75A1.71,1.71,0,0,1,93,32.68Z"/><path class="d" d="M117,18c0-.81,0-1.61,0-2.41C117.91,16.35,117.8,17.15,117,18Z"/><path class="d" d="M219.1,12.94l-.18-2.18C219.76,11.42,219.94,12.13,219.1,12.94Z"/><path class="d" d="M138.36,48.44a2.05,2.05,0,0,1-2.23.53A1.85,1.85,0,0,1,138.36,48.44Z"/><path class="d" d="M101.4,47.58c-.81-.11-1.64-.16-1.94-1.15C100.29,46.48,101.13,46.52,101.4,47.58Z"/><path class="d" d="M110.33,30.06c.1-.91.46-1.57,1.47-1.62A1.76,1.76,0,0,1,110.33,30.06Z"/><path class="d" d="M181.09,6.47c.06.63.08,1.24-.61,1.57C180.38,7.39,180.42,6.8,181.09,6.47Z"/><path class="d" d="M117.05,21.21c0-.53,0-1.05,0-1.58C117.69,20.14,117.77,20.66,117.05,21.21Z"/><path class="d" d="M210.79,4.9c-.67-.06-.95-.52-1.06-1.13C210.64,3.6,210.76,4.2,210.79,4.9Z"/><path class="d" d="M109,31.12c.13-.73.65-.94,1.28-1C110.12,30.86,109.6,31.07,109,31.12Z"/><path class="d" d="M111.93,28.37l.86-.46Z"/><path class="d" d="M117,23.88l-.77.87L116,24.5l.79-.81Z"/><path class="d" d="M117.05,22.94a2.94,2.94,0,0,1,.19.64c0,.09-.16.2-.25.3l-.21-.19c0-.28,0-.56-.07-.84Z"/><path class="d" d="M226.46,21.25a.86.86,0,0,1,.24.72,3.47,3.47,0,0,1-.41-.45S226.39,21.34,226.46,21.25Z"/><path class="d" d="M176.65,15l-.73.53C175.91,15,176.19,14.83,176.65,15Z"/><path class="d" d="M99.38,46.38a.69.69,0,0,1-.85-.65Z"/><path class="d" d="M94.27,44.9a.64.64,0,0,1-.52.9C93.93,45.5,94.1,45.2,94.27,44.9Z"/><path class="d" d="M97.49,22.18c1.63,2.73.51,4.38-3.72,5.49a2.85,2.85,0,0,0,0-.78C92,21.91,92,21.91,97.49,22.18Z"/><path class="c" d="M116.71,22.85c0,.28.05.56.07.84l-.79.81-3.16,0C113.58,22.64,115.24,23,116.71,22.85Z"/><path class="d" d="M29.23,24.73l-2.49,3c-1.63-.07-3.65,1.09-2.11-2.65,1.19-2.92-1.32-6.3-3.4-8.72-1.24-1.44-1.31.78-1.82,1.47l-1.56-.68c0-.58,0-1.15.07-1.72.25-1.83.42-2.65,2.93-1.87,3.52,1.09,5.63,2.42,5.56,6.49,0,.84.44,2.56,2.15,2.32A2.44,2.44,0,0,0,30.76,20a2.61,2.61,0,0,1,1.18-2.28C34.48,21.5,31.5,23,29.23,24.73Z"/><path class="c" d="M17.92,15.46c0,.57-.05,1.14-.07,1.72L16.9,16Z"/><path class="b" d="M230.75,29.41c0-2.4-2-4.59-.49-7.24.35-.63-1-.74-1.81-.66-.76-3.72.33-7,2.3-10a12.87,12.87,0,0,0,1.74-4.79c5.95,1.05,11.13-2,16.62-3.37s10,1.66,14.83,3.4c.23.08.27.64.45,1,2.48,4.35,5.2,8.63,3.73,14.08-.29,1.07-1.34,1.21-2,1.82-3.23,3-5.43,7.67-11.15,6-1.52-.46-1.93-1.12-1.91-2.49.11-.31.21-.62.31-.93.66-1.47,1-2.81-1.15-3.22a2.76,2.76,0,0,1-.2-.47c-1.52-2.36-3.15-.81-4.76-.15L244,21.83a17.5,17.5,0,0,0,.59,2.84c1,2.6-.55,5.73-2.65,4.77C238,27.63,234.45,30.2,230.75,29.41Z"/><path class="d" d="M253.37,26.09c-.1.31-.2.62-.31.93-2.47.42-2.39-2.9-4.41-3.15.41-2.22,2-1.55,3.37-1.48a2.55,2.55,0,0,0,.2.48A2.94,2.94,0,0,0,253.37,26.09Z"/><path class="b" d="M164.38,10c-.08,2.35,2.91,1.1,3.26,2.93-.34.87-1.11,1.83-1,2.59,1,5-2.41,7.76-4.91,11.14-2.36,3.19-5.39,2.94-8.52,2.66-1.92-.17-.8-1.8-1.08-2.8-.52-1.83.49-5.35-3.52-4.09l-1.44-.12c-.17-.38-.22-.94-.86-.6l-1.21.26c-1.2.11-2.58-.85-3.54.76-1.11,1.9,1.23,1.57,1.51,2.59.2.75,1,1.51.11,2.18-1.23,1-2.49,2.58-4.18,1.65-2.08-1.14-3.69-.92-5.85,0-2.66,1.16-5-1.39-4.94-5,0-.78.5-2.15.3-2.26-4.78-2.43-1.61-5.46-.7-8.33a13.36,13.36,0,0,0,.32-2c2.86-3.42,6-5,10.83-5.57,4.21-.5,8.35-3.19,13.11-2.89,4.48.29,7.69,2.67,10.64,5.76A8.91,8.91,0,0,0,164.38,10Z"/><path class="d" d="M145.14,22l1.2-.26.87.6,1.44.12c2.85,1.18.4,2.41-.21,3.1-1,1.12-1.36-.06-1.76-.93A25.78,25.78,0,0,0,145.14,22Z"/><path class="d" d="M18.85,24.14c1.11,0,2.8-1.54,3,1,.07,1.2-.39,2.8-1.89,2.53-1.7-.32-4.28-.57-4.24-2.82S17.83,24.78,18.85,24.14Z"/><path class="a" d="M24.77,42.87c-.29-.3-.55-.63,0-.93.08,0,.37.27.56.42A5,5,0,0,1,24.77,42.87Z"/><path class="a" d="M7.5,47.24l-.27.62c-.09-.08-.27-.18-.26-.23A3.48,3.48,0,0,1,7.23,47Z"/><path class="c" d="M253.37,26.09a2.94,2.94,0,0,1-1.15-3.22C254.35,23.28,254,24.62,253.37,26.09Z"/><path class="c" d="M147.21,22.34l-.87-.6C147,21.4,147,22,147.21,22.34Z"/></svg>